STARTFONT 2.1
COMMENT
COMMENT Converted from OpenType font "OldStandard-Regular.ttf" by "otf2bdf 3.0".
COMMENT
FONT -FreeType-Old Standard TT-Medium-R-Normal--29-290-72-72-P-153-ISO10646-1
SIZE 29 72 72
FONTBOUNDINGBOX 76 38 -24 -9
STARTPROPERTIES 19
FOUNDRY "FreeType"
FAMILY_NAME "Old Standard TT"
WEIGHT_NAME "Medium"
SLANT "R"
SETWIDTH_NAME "Normal"
ADD_STYLE_NAME ""
PIXEL_SIZE 29
POINT_SIZE 290
RESOLUTION_X 72
RESOLUTION_Y 72
SPACING "P"
AVERAGE_WIDTH 153
CHARSET_REGISTRY "ISO10646"
CHARSET_ENCODING "1"
FONT_ASCENT 27
FONT_DESCENT 8
COPYRIGHT "Copyright (C) 2006-2008 Alexey Kryukov <alexios@thessalonica.org.ru>"
_OTF_FONTFILE "OldStandard-Regular.ttf"
_OTF_PSNAME "OldStandardTT-Regular"
ENDPROPERTIES
CHARS 1456
STARTCHAR 0020
ENCODING 32
SWIDTH 275 0
DWIDTH 8 0
BBX 0 0 0 0
BITMAP
ENDCHAR
STARTCHAR 0021
ENCODING 33
SWIDTH 275 0
DWIDTH 8 0
BBX 4 21 2 0
BITMAP
60
F0
F0
F0
F0
F0
60
60
60
60
60
60
60
60
60
40
00
60
F0
F0
60
ENDCHAR
STARTCHAR 0022
ENCODING 34
SWIDTH 379 0
DWIDTH 11 0
BBX 7 5 2 17
BITMAP
EE
CC
CC
CC
44
ENDCHAR
STARTCHAR 0023
ENCODING 35
SWIDTH 655 0
DWIDTH 19 0
BBX 15 21 2 0
BITMAP
0210
0610
0610
0410
0430
0430
FFFE
0420
0C20
0C20
0820
0860
0860
0840
FFFE
1840
1840
10C0
10C0
1080
1080
ENDCHAR
STARTCHAR 0024
ENCODING 36
SWIDTH 586 0
DWIDTH 17 0
BBX 13 25 2 -2
BITMAP
0500
0500
0F80
3560
2510
4518
4518
4538
4538
7530
3D00
3F00
0FC0
07E0
05F0
0530
6518
E518
E518
C518
4530
4520
3DC0
0700
0500
ENDCHAR
STARTCHAR 0025
ENCODING 37
SWIDTH 862 0
DWIDTH 25 0
BBX 19 21 3 0
BITMAP
3C0100
460200
420200
C30400
C30800
C30800
C31000
C31000
422000
662000
384000
004300
008CC0
010840
011860
021860
021860
041860
041860
080840
080780
ENDCHAR
STARTCHAR 0026
ENCODING 38
SWIDTH 793 0
DWIDTH 23 0
BBX 20 21 2 0
BITMAP
038000
0C4000
082000
182000
182000
186000
1C4000
0C8000
0F0000
070FF0
0F0180
1B8100
33C100
61C200
60E200
E0F400
E07C00
E03800
E03C00
603C20
3BC6C0
ENDCHAR
STARTCHAR 0027
ENCODING 39
SWIDTH 241 0
DWIDTH 7 0
BBX 3 5 2 17
BITMAP
E0
C0
C0
C0
40
ENDCHAR
STARTCHAR 0028
ENCODING 40
SWIDTH 344 0
DWIDTH 10 0
BBX 6 28 3 -6
BITMAP
04
0C
18
10
20
20
40
40
40
80
80
80
80
80
80
80
80
80
80
C0
40
40
20
20
10
18
08
04
ENDCHAR
STARTCHAR 0029
ENCODING 41
SWIDTH 379 0
DWIDTH 11 0
BBX 6 28 2 -6
BITMAP
80
C0
40
20
30
10
18
08
08
08
04
04
04
04
04
04
04
04
0C
08
08
18
10
30
20
60
C0
80
ENDCHAR
STARTCHAR 002A
ENCODING 42
SWIDTH 482 0
DWIDTH 14 0
BBX 10 12 2 9
BITMAP
0C00
0E00
CC40
E4C0
75C0
0E00
1E00
E5C0
C4C0
0C00
0E00
0C00
ENDCHAR
STARTCHAR 002B
ENCODING 43
SWIDTH 896 0
DWIDTH 26 0
BBX 24 25 1 -4
BITMAP
000800
000800
000800
000800
000800
000800
000800
000800
000800
000800
000800
000800
FFFFFF
000800
000800
000800
000800
000800
000800
000800
000800
000800
000800
000800
000800
ENDCHAR
STARTCHAR 002C
ENCODING 44
SWIDTH 275 0
DWIDTH 8 0
BBX 4 8 2 -5
BITMAP
E0
F0
F0
10
10
10
20
40
ENDCHAR
STARTCHAR 002D
ENCODING 45
SWIDTH 379 0
DWIDTH 11 0
BBX 7 2 2 7
BITMAP
FE
FE
ENDCHAR
STARTCHAR 002E
ENCODING 46
SWIDTH 275 0
DWIDTH 8 0
BBX 4 4 2 0
BITMAP
60
F0
F0
60
ENDCHAR
STARTCHAR 002F
ENCODING 47
SWIDTH 448 0
DWIDTH 13 0
BBX 9 28 2 -6
BITMAP
0080
0080
0180
0100
0100
0100
0200
0200
0200
0600
0400
0400
0C00
0800
0800
1800
1000
1000
1000
2000
2000
2000
4000
4000
4000
C000
8000
8000
ENDCHAR
STARTCHAR 0030
ENCODING 48
SWIDTH 586 0
DWIDTH 17 0
BBX 14 21 1 0
BITMAP
0780
1840
3020
2030
6010
6018
6018
E018
E018
E018
E01C
E01C
E018
E018
E018
6018
6018
6030
3020
1060
0FC0
ENDCHAR
STARTCHAR 0031
ENCODING 49
SWIDTH 586 0
DWIDTH 17 0
BBX 10 21 3 0
BITMAP
0200
0600
0600
0E00
FE00
0E00
0E00
0E00
0E00
0E00
0E00
0E00
0E00
0E00
0E00
0E00
0E00
0E00
0E00
0E00
FFC0
ENDCHAR
STARTCHAR 0032
ENCODING 50
SWIDTH 586 0
DWIDTH 17 0
BBX 12 21 2 0
BITMAP
1F00
20C0
4060
8070
8070
C070
F070
7070
2060
00E0
00C0
0100
0600
0C00
1800
3010
6010
4010
E070
FFF0
FFF0
ENDCHAR
STARTCHAR 0033
ENCODING 51
SWIDTH 586 0
DWIDTH 17 0
BBX 12 21 2 0
BITMAP
1F00
61C0
C0E0
E060
F060
7070
0060
0060
00E0
30C0
3F00
00C0
0060
0070
0070
6070
F070
F070
C060
C0C0
7F80
ENDCHAR
STARTCHAR 0034
ENCODING 52
SWIDTH 586 0
DWIDTH 17 0
BBX 14 21 2 0
BITMAP
0040
00C0
01C0
01C0
03C0
07C0
05C0
0DC0
09C0
11C0
31C0
21C0
41C0
C1C0
FFFC
01C0
01C0
01C0
01C0
01C0
0FFC
ENDCHAR
STARTCHAR 0035
ENCODING 53
SWIDTH 586 0
DWIDTH 17 0
BBX 12 21 2 0
BITMAP
6040
7F80
7F00
4000
4000
4000
4000
5F00
60C0
4060
4060
0070
0070
0070
6070
F070
F070
E060
C0E0
40C0
3F80
ENDCHAR
STARTCHAR 0036
ENCODING 54
SWIDTH 586 0
DWIDTH 17 0
BBX 12 21 2 0
BITMAP
0780
1840
1060
30E0
60E0
60C0
6000
E000
E780
E8C0
F060
F060
E070
E070
E070
E070
6070
6060
7060
30C0
1F80
ENDCHAR
STARTCHAR 0037
ENCODING 55
SWIDTH 586 0
DWIDTH 17 0
BBX 11 21 3 0
BITMAP
FFE0
FFE0
C020
8020
8040
8040
0040
0080
0100
0100
0200
0600
0600
0C00
0C00
0C00
1E00
1E00
1E00
1E00
1E00
ENDCHAR
STARTCHAR 0038
ENCODING 56
SWIDTH 586 0
DWIDTH 17 0
BBX 14 21 2 0
BITMAP
0F80
3060
6030
E018
E018
E018
E018
F010
7C20
3FC0
0FE0
33F0
60F8
E038
E01C
E01C
E018
E018
6018
7030
1FC0
ENDCHAR
STARTCHAR 0039
ENCODING 57
SWIDTH 586 0
DWIDTH 17 0
BBX 12 21 2 0
BITMAP
0F00
3080
6040
6060
E060
E060
E070
E070
E070
6070
60F0
31B0
0E30
0030
0020
3060
7060
7040
60C0
6080
3F00
ENDCHAR
STARTCHAR 003A
ENCODING 58
SWIDTH 275 0
DWIDTH 8 0
BBX 4 14 2 0
BITMAP
60
F0
F0
60
00
00
00
00
00
00
60
F0
F0
60
ENDCHAR
STARTCHAR 003B
ENCODING 59
SWIDTH 275 0
DWIDTH 8 0
BBX 4 18 2 -5
BITMAP
60
F0
F0
60
00
00
00
00
00
00
E0
F0
F0
10
10
30
20
40
ENDCHAR
STARTCHAR 003C
ENCODING 60
SWIDTH 931 0
DWIDTH 27 0
BBX 22 24 2 -5
BITMAP
00000C
000038
000060
000180
000700
001C00
007000
00C000
030000
0E0000
380000
E00000
E00000
300000
0C0000
070000
01C000
007000
001800
000600
000380
0000E0
000038
00000C
ENDCHAR
STARTCHAR 003D
ENCODING 61
SWIDTH 896 0
DWIDTH 26 0
BBX 24 7 1 5
BITMAP
FFFFFF
000000
000000
000000
000000
000000
FFFFFF
ENDCHAR
STARTCHAR 003E
ENCODING 62
SWIDTH 931 0
DWIDTH 27 0
BBX 22 24 3 -5
BITMAP
C00000
700000
180000
060000
038000
00E000
003800
000C00
000300
0000C0
000070
00001C
00001C
000030
0000C0
000380
000E00
003800
006000
018000
070000
1C0000
700000
C00000
ENDCHAR
STARTCHAR 003F
ENCODING 63
SWIDTH 482 0
DWIDTH 14 0
BBX 11 21 2 0
BITMAP
1E00
6180
80C0
80C0
F0E0
F0C0
61C0
0180
0380
0600
0C00
0800
1100
1100
1100
0E00
0000
0C00
1E00
1E00
0C00
ENDCHAR
STARTCHAR 0040
ENCODING 64
SWIDTH 862 0
DWIDTH 25 0
BBX 21 21 2 1
BITMAP
03FF00
0C0080
180040
300020
203B90
40C710
418708
830708
870608
860608
8E0E08
8E0E08
8E0C10
8E1C10
8E1C20
462C40
43C780
200000
100000
080180
07DE00
ENDCHAR
STARTCHAR 0041
ENCODING 65
SWIDTH 758 0
DWIDTH 22 0
BBX 20 21 1 0
BITMAP
002000
006000
006000
007000
00F000
00F000
00B800
013800
013800
031C00
031C00
021C00
060E00
060E00
07FE00
0C0700
0C0700
080700
180380
180380
FF1FF0
ENDCHAR
STARTCHAR 0042
ENCODING 66
SWIDTH 689 0
DWIDTH 20 0
BBX 16 21 2 0
BITMAP
FFF0
1C0C
1C06
1C07
1C07
1C07
1C07
1C06
1C0C
1FF0
1C1C
1C06
1C06
1C07
1C07
1C07
1C07
1C07
1C06
1C0C
FFF0
ENDCHAR
STARTCHAR 0043
ENCODING 67
SWIDTH 655 0
DWIDTH 19 0
BBX 15 21 2 1
BITMAP
0FE2
1036
301E
200E
6006
6006
E006
E002
E000
E000
E000
E000
E000
E002
6002
6002
6004
2004
300C
1808
07F0
ENDCHAR
STARTCHAR 0044
ENCODING 68
SWIDTH 758 0
DWIDTH 22 0
BBX 19 21 2 0
BITMAP
FFF800
1C0600
1C0300
1C0180
1C0180
1C01C0
1C00C0
1C00C0
1C00C0
1C00E0
1C00E0
1C00E0
1C00C0
1C00C0
1C00C0
1C01C0
1C0180
1C0100
1C0300
1C0600
FFF800
ENDCHAR
STARTCHAR 0045
ENCODING 69
SWIDTH 689 0
DWIDTH 20 0
BBX 17 21 2 0
BITMAP
FFFF80
1C0380
1C0380
1C0180
1C0180
1C0080
1C2080
1C2000
1C2000
1C6000
1FE000
1C6000
1C2000
1C2080
1C2080
1C0080
1C0180
1C0180
1C0380
1C0780
FFFF80
ENDCHAR
STARTCHAR 0046
ENCODING 70
SWIDTH 689 0
DWIDTH 20 0
BBX 17 21 2 0
BITMAP
FFFF80
1C0380
1C0380
1C0180
1C0180
1C0080
1C2080
1C2000
1C2000
1C6000
1FE000
1C6000
1C2000
1C2000
1C2000
1C0000
1C0000
1C0000
1C0000
1C0000
FF8000
ENDCHAR
STARTCHAR 0047
ENCODING 71
SWIDTH 724 0
DWIDTH 21 0
BBX 18 21 2 1
BITMAP
0FE200
181A00
300E00
200E00
600600
600600
E00200
E00200
E00000
E00000
E07FC0
E00E00
E00E00
E00E00
E00E00
600E00
600E00
200E00
301A00
103200
0FE200
ENDCHAR
STARTCHAR 0048
ENCODING 72
SWIDTH 793 0
DWIDTH 23 0
BBX 20 21 2 0
BITMAP
FF0FF0
1C0380
1C0380
1C0380
1C0380
1C0380
1C0380
1C0380
1C0380
1FFF80
1C0380
1C0380
1C0380
1C0380
1C0380
1C0380
1C0380
1C0380
1C0380
1C0380
FF0FF0
ENDCHAR
STARTCHAR 0049
ENCODING 73
SWIDTH 413 0
DWIDTH 12 0
BBX 8 21 2 0
BITMAP
FF
1C
1C
1C
1C
1C
1C
1C
1C
1C
1C
1C
1C
1C
1C
1C
1C
1C
1C
1C
FF
ENDCHAR
STARTCHAR 004A
ENCODING 74
SWIDTH 517 0
DWIDTH 15 0
BBX 13 21 1 0
BITMAP
07F8
00E0
00E0
00E0
00E0
00E0
00E0
00E0
00E0
00E0
00E0
00E0
00E0
00E0
00E0
70E0
F0C0
F0C0
C0C0
4180
7F00
ENDCHAR
STARTCHAR 004B
ENCODING 75
SWIDTH 758 0
DWIDTH 22 0
BBX 19 21 2 0
BITMAP
FF1FE0
1C0700
1C0600
1C0C00
1C0800
1C1000
1C2000
1C4000
1CC000
1DE000
1EE000
1C7000
1C7000
1C3800
1C1C00
1C1C00
1C0E00
1C0E00
1C0700
1C0700
FF3FE0
ENDCHAR
STARTCHAR 004C
ENCODING 76
SWIDTH 689 0
DWIDTH 20 0
BBX 16 21 2 0
BITMAP
FF80
1C00
1C00
1C00
1C00
1C00
1C00
1C00
1C00
1C00
1C00
1C00
1C00
1C01
1C01
1C01
1C01
1C03
1C03
1C0F
FFFF
ENDCHAR
STARTCHAR 004D
ENCODING 77
SWIDTH 862 0
DWIDTH 25 0
BBX 21 21 2 0
BITMAP
FC01F8
1E01E0
1E01E0
1E02E0
1602E0
1702E0
1702E0
1304E0
1384E0
1384E0
1184E0
11C8E0
11C8E0
10C8E0
10D0E0
10F0E0
10F0E0
1070E0
1060E0
1060E0
FE27F8
ENDCHAR
STARTCHAR 004E
ENCODING 78
SWIDTH 793 0
DWIDTH 23 0
BBX 20 21 2 0
BITMAP
FC07F0
1C0080
1E0080
1F0080
170080
138080
13C080
11C080
10E080
10F080
107080
103880
103880
101C80
101E80
100E80
100780
100780
100380
100180
FE0180
ENDCHAR
STARTCHAR 004F
ENCODING 79
SWIDTH 689 0
DWIDTH 20 0
BBX 17 22 2 0
BITMAP
008000
077000
180800
100C00
300600
600600
600300
600300
E00300
E00300
E00300
E00380
E00380
E00300
E00300
600300
600300
600600
300600
100C00
180800
07F000
ENDCHAR
STARTCHAR 0050
ENCODING 80
SWIDTH 689 0
DWIDTH 20 0
BBX 17 21 2 0
BITMAP
FFF800
1C0E00
1C0700
1C0300
1C0300
1C0380
1C0300
1C0300
1C0600
1C0C00
1FF000
1C0000
1C0000
1C0000
1C0000
1C0000
1C0000
1C0000
1C0000
1C0000
FF8000
ENDCHAR
STARTCHAR 0051
ENCODING 81
SWIDTH 689 0
DWIDTH 20 0
BBX 17 27 2 -5
BITMAP
008000
077000
180800
100C00
300600
600600
600300
600300
E00300
E00300
E00300
E00380
E00380
E00300
E00300
600300
600300
61C600
332600
1A3C00
0E3C00
073080
00F100
003100
003900
001F00
000E00
ENDCHAR
STARTCHAR 0052
ENCODING 82
SWIDTH 724 0
DWIDTH 21 0
BBX 18 21 2 0
BITMAP
FFF800
1C0E00
1C0600
1C0700
1C0700
1C0700
1C0700
1C0600
1C0C00
1FF000
1C1800
1C1800
1C0C00
1C0C00
1C0C00
1C0E00
1C0E40
1C0E40
1C0E40
1C0780
FF8380
ENDCHAR
STARTCHAR 0053
ENCODING 83
SWIDTH 620 0
DWIDTH 18 0
BBX 14 21 3 1
BITMAP
3F90
60D0
C070
C030
C010
C010
E010
F010
7C00
3F80
1FE0
07F0
80F8
8038
801C
800C
C00C
E00C
E008
9010
8EE0
ENDCHAR
STARTCHAR 0054
ENCODING 84
SWIDTH 724 0
DWIDTH 21 0
BBX 17 21 2 0
BITMAP
FFFF80
E1C380
C1C180
C1C180
C1C080
81C080
81C080
81C080
01C000
01C000
01C000
01C000
01C000
01C000
01C000
01C000
01C000
01C000
01C000
01C000
0FF800
ENDCHAR
STARTCHAR 0055
ENCODING 85
SWIDTH 793 0
DWIDTH 23 0
BBX 20 21 2 0
BITMAP
FF07F0
1C0080
1C0080
1C0080
1C0080
1C0080
1C0080
1C0080
1C0080
1C0080
1C0080
1C0080
1C0080
1C0080
1C0080
1C0080
1C0080
0C0080
0C0100
060200
03FC00
ENDCHAR
STARTCHAR 0056
ENCODING 86
SWIDTH 793 0
DWIDTH 23 0
BBX 20 22 2 -1
BITMAP
FF8FF0
1C01C0
1C0180
0E0180
0E0100
0E0100
070300
070200
070200
038600
038400
038400
01C400
01C800
01C800
00E800
00F000
007000
007000
007000
002000
002000
ENDCHAR
STARTCHAR 0057
ENCODING 87
SWIDTH 1103 0
DWIDTH 32 0
BBX 29 22 2 -1
BITMAP
FF3FE7F8
1C0700C0
1C070080
1C070080
0C078080
0E0F8180
0E0B8100
06098100
0709C300
0719C200
0711C200
0310E600
0390E400
03B0E400
01A06C00
01E07800
01E07800
01C07800
00C03000
00C03000
00C03000
00801000
ENDCHAR
STARTCHAR 0058
ENCODING 88
SWIDTH 758 0
DWIDTH 22 0
BBX 19 21 2 0
BITMAP
FF9FE0
0E0700
0E0600
070400
070C00
038800
03D000
01D000
01E000
00E000
007000
00F000
01B800
013800
021C00
061C00
040E00
080E00
180700
180700
FF1FE0
ENDCHAR
STARTCHAR 0059
ENCODING 89
SWIDTH 724 0
DWIDTH 21 0
BBX 19 21 1 0
BITMAP
FF8FE0
1E0380
0E0300
0E0200
070200
070400
038400
01C800
01C800
00F000
00F000
007000
007000
007000
007000
007000
007000
007000
007000
007000
07FE00
ENDCHAR
STARTCHAR 005A
ENCODING 90
SWIDTH 655 0
DWIDTH 19 0
BBX 15 21 2 0
BITMAP
3FFE
380E
701C
6038
4038
4070
40F0
00E0
01C0
01C0
0380
0780
0700
0E02
0E02
1C02
3C02
3806
7006
F00E
FFFE
ENDCHAR
STARTCHAR 005B
ENCODING 91
SWIDTH 379 0
DWIDTH 11 0
BBX 6 27 3 -6
BITMAP
FC
E0
E0
E0
E0
E0
E0
E0
E0
E0
E0
E0
E0
E0
E0
E0
E0
E0
E0
E0
E0
E0
E0
E0
E0
E0
FC
ENDCHAR
STARTCHAR 005C
ENCODING 92
SWIDTH 448 0
DWIDTH 13 0
BBX 9 28 2 -6
BITMAP
8000
8000
C000
4000
4000
4000
2000
2000
2000
1000
1000
1000
1800
0800
0800
0C00
0400
0400
0400
0200
0200
0200
0100
0100
0100
0180
0080
0080
ENDCHAR
STARTCHAR 005D
ENCODING 93
SWIDTH 379 0
DWIDTH 11 0
BBX 6 27 2 -6
BITMAP
FC
1C
1C
1C
1C
1C
1C
1C
1C
1C
1C
1C
1C
1C
1C
1C
1C
1C
1C
1C
1C
1C
1C
1C
1C
1C
FC
ENDCHAR
STARTCHAR 005E
ENCODING 94
SWIDTH 586 0
DWIDTH 17 0
BBX 13 11 2 10
BITMAP
0200
0200
0500
0D80
0880
18C0
1040
2020
6030
4010
C018
ENDCHAR
STARTCHAR 005F
ENCODING 95
SWIDTH 517 0
DWIDTH 15 0
BBX 15 1 0 -5
BITMAP
FFFE
ENDCHAR
STARTCHAR 0060
ENCODING 96
SWIDTH 448 0
DWIDTH 13 0
BBX 5 5 2 16
BITMAP
C0
E0
60
30
08
ENDCHAR
STARTCHAR 0061
ENCODING 97
SWIDTH 517 0
DWIDTH 15 0
BBX 13 14 1 0
BITMAP
1F00
2180
61C0
71C0
71C0
01C0
0FC0
31C0
61C0
E1C0
E1C8
E1C8
E2D8
3CF0
ENDCHAR
STARTCHAR 0062
ENCODING 98
SWIDTH 517 0
DWIDTH 15 0
BBX 13 21 1 0
BITMAP
F800
3800
3800
3800
3800
3800
3800
3BC0
3C60
3830
3830
3830
3830
3838
3838
3830
3830
3830
3830
2460
23C0
ENDCHAR
STARTCHAR 0063
ENCODING 99
SWIDTH 413 0
DWIDTH 12 0
BBX 10 14 1 0
BITMAP
1F00
3080
6040
60C0
E1C0
E080
E000
E000
E000
E000
6040
6080
3080
1F00
ENDCHAR
STARTCHAR 0064
ENCODING 100
SWIDTH 517 0
DWIDTH 15 0
BBX 13 21 1 0
BITMAP
03E0
00E0
00E0
00E0
00E0
00E0
00E0
1EE0
31E0
61E0
60E0
E0E0
E0E0
E0E0
E0E0
E0E0
E0E0
60E0
60E0
31E0
1EF8
ENDCHAR
STARTCHAR 0065
ENCODING 101
SWIDTH 448 0
DWIDTH 13 0
BBX 10 14 1 0
BITMAP
1E00
3180
6180
60C0
E0C0
E0C0
FFC0
E000
E000
E040
6040
6040
3080
1F00
ENDCHAR
STARTCHAR 0066
ENCODING 102
SWIDTH 344 0
DWIDTH 10 0
BBX 10 21 1 0
BITMAP
0F00
1880
39C0
3980
3800
3800
3800
FE00
3800
3800
3800
3800
3800
3800
3800
3800
3800
3800
3800
3800
FE00
ENDCHAR
STARTCHAR 0067
ENCODING 103
SWIDTH 551 0
DWIDTH 16 0
BBX 14 21 2 -7
BITMAP
1F38
71C8
60DC
E0F8
E0E0
E0E0
E0E0
60C0
3180
1F00
6000
8000
E000
7FE0
3870
4010
8010
8010
8030
4060
3F80
ENDCHAR
STARTCHAR 0068
ENCODING 104
SWIDTH 551 0
DWIDTH 16 0
BBX 14 21 1 0
BITMAP
F800
3800
3800
3800
3800
3800
3800
39C0
3E60
3C70
3870
3870
3870
3870
3870
3870
3870
3870
3870
3870
FCFC
ENDCHAR
STARTCHAR 0069
ENCODING 105
SWIDTH 241 0
DWIDTH 7 0
BBX 6 21 1 0
BITMAP
70
70
70
00
00
00
00
F0
70
70
70
70
70
70
70
70
70
70
70
70
FC
ENDCHAR
STARTCHAR 006A
ENCODING 106
SWIDTH 310 0
DWIDTH 9 0
BBX 8 28 -1 -7
BITMAP
06
07
06
00
00
00
00
1F
07
07
07
07
07
07
07
07
07
07
07
07
07
07
07
46
E6
C6
CC
78
ENDCHAR
STARTCHAR 006B
ENCODING 107
SWIDTH 517 0
DWIDTH 15 0
BBX 13 21 1 0
BITMAP
F800
3800
3800
3800
3800
3800
3800
39F8
38C0
3880
3900
3900
3A00
3F00
3F00
3B80
39C0
38C0
38E0
38E0
FDF8
ENDCHAR
STARTCHAR 006C
ENCODING 108
SWIDTH 275 0
DWIDTH 8 0
BBX 7 21 1 0
BITMAP
F8
38
38
38
38
38
38
38
38
38
38
38
38
38
38
38
38
38
38
38
FE
ENDCHAR
STARTCHAR 006D
ENCODING 109
SWIDTH 793 0
DWIDTH 23 0
BBX 21 14 1 0
BITMAP
F9C3C0
3E64E0
3C7860
387860
387060
387060
387060
387060
387060
387060
387060
387060
387060
FCFDF8
ENDCHAR
STARTCHAR 006E
ENCODING 110
SWIDTH 551 0
DWIDTH 16 0
BBX 14 14 1 0
BITMAP
F9C0
3E60
3C70
3870
3870
3870
3870
3870
3870
3870
3870
3870
3870
FCFC
ENDCHAR
STARTCHAR 006F
ENCODING 111
SWIDTH 482 0
DWIDTH 14 0
BBX 12 14 1 0
BITMAP
0F00
3080
60C0
6060
E060
E060
E070
E070
E060
E060
6060
60C0
3080
0F00
ENDCHAR
STARTCHAR 0070
ENCODING 112
SWIDTH 517 0
DWIDTH 15 0
BBX 13 21 1 -7
BITMAP
FBC0
3C60
3830
3830
3830
3830
3838
3838
3830
3830
3830
3830
3C60
3BC0
3800
3800
3800
3800
3800
3800
FC00
ENDCHAR
STARTCHAR 0071
ENCODING 113
SWIDTH 517 0
DWIDTH 15 0
BBX 13 21 1 -7
BITMAP
1E20
3120
60E0
60E0
E0E0
E0E0
E0E0
E0E0
E0E0
E0E0
60E0
60E0
31E0
1EE0
00E0
00E0
00E0
00E0
00E0
00E0
03F8
ENDCHAR
STARTCHAR 0072
ENCODING 114
SWIDTH 413 0
DWIDTH 12 0
BBX 10 14 1 0
BITMAP
F980
3A40
3CC0
3CC0
3800
3800
3800
3800
3800
3800
3800
3800
3800
FC00
ENDCHAR
STARTCHAR 0073
ENCODING 115
SWIDTH 448 0
DWIDTH 13 0
BBX 10 14 2 0
BITMAP
3C80
C380
8180
8080
C080
F000
3E00
0F80
83C0
80C0
C040
C040
A080
9F00
ENDCHAR
STARTCHAR 0074
ENCODING 116
SWIDTH 344 0
DWIDTH 10 0
BBX 8 20 1 0
BITMAP
10
10
10
10
30
30
FE
30
30
30
30
30
30
30
30
31
31
31
3B
1E
ENDCHAR
STARTCHAR 0075
ENCODING 117
SWIDTH 551 0
DWIDTH 16 0
BBX 14 14 1 0
BITMAP
F8F0
3870
3870
3870
3870
3870
3870
3870
3870
3870
3870
38F0
1970
0E7C
ENDCHAR
STARTCHAR 0076
ENCODING 118
SWIDTH 517 0
DWIDTH 15 0
BBX 15 14 0 0
BITMAP
FE7E
3810
1810
1C10
0C20
0C20
0620
0640
0740
0340
0380
0180
0180
0100
ENDCHAR
STARTCHAR 0077
ENCODING 119
SWIDTH 758 0
DWIDTH 22 0
BBX 22 14 0 0
BITMAP
FEFCFC
383820
183820
1C3820
0C3840
0C3C40
064C40
064C80
074680
038680
038700
018300
018300
010200
ENDCHAR
STARTCHAR 0078
ENCODING 120
SWIDTH 551 0
DWIDTH 16 0
BBX 14 14 1 0
BITMAP
7CF8
3860
1840
0C80
0E80
0700
0700
0380
0580
05C0
08C0
10E0
1060
F9FC
ENDCHAR
STARTCHAR 0079
ENCODING 121
SWIDTH 517 0
DWIDTH 15 0
BBX 15 21 0 -7
BITMAP
FE7E
1810
1810
1C10
0C20
0C20
0E20
0640
0640
0640
0380
0380
0380
0180
0100
0100
0100
6200
7200
6400
3800
ENDCHAR
STARTCHAR 007A
ENCODING 122
SWIDTH 448 0
DWIDTH 13 0
BBX 10 14 1 0
BITMAP
FFC0
C1C0
8180
8300
8700
0600
0E00
1C00
1800
3840
3040
7040
E0C0
FFC0
ENDCHAR
STARTCHAR 007B
ENCODING 123
SWIDTH 413 0
DWIDTH 12 0
BBX 6 27 3 -6
BITMAP
0C
18
30
30
30
30
30
38
18
18
18
10
30
C0
30
10
18
18
18
38
30
30
30
30
30
10
0C
ENDCHAR
STARTCHAR 007C
ENCODING 124
SWIDTH 275 0
DWIDTH 8 0
BBX 1 28 4 -6
BITMAP
80
80
80
80
80
80
80
80
80
80
80
80
80
80
80
80
80
80
80
80
80
80
80
80
80
80
80
80
ENDCHAR
STARTCHAR 007D
ENCODING 125
SWIDTH 413 0
DWIDTH 12 0
BBX 6 27 3 -6
BITMAP
80
60
20
30
30
30
70
60
60
60
60
60
20
1C
30
60
60
60
60
60
70
30
30
30
20
60
C0
ENDCHAR
STARTCHAR 007E
ENCODING 126
SWIDTH 620 0
DWIDTH 18 0
BBX 16 6 1 5
BITMAP
3802
7E01
8FC1
83F1
80FF
403E
ENDCHAR
STARTCHAR 00A0
ENCODING 160
SWIDTH 275 0
DWIDTH 8 0
BBX 0 0 0 0
BITMAP
ENDCHAR
STARTCHAR 00A1
ENCODING 161
SWIDTH 275 0
DWIDTH 8 0
BBX 4 21 2 -7
BITMAP
60
F0
F0
60
00
40
40
60
60
60
60
60
60
60
60
F0
F0
F0
F0
F0
60
ENDCHAR
STARTCHAR 00A2
ENCODING 162
SWIDTH 586 0
DWIDTH 17 0
BBX 10 21 3 -3
BITMAP
0400
0400
0400
0400
1F00
3480
6440
64C0
E5C0
E480
E400
E400
E400
E400
6440
6440
3480
1F00
0400
0400
0400
ENDCHAR
STARTCHAR 00A3
ENCODING 163
SWIDTH 724 0
DWIDTH 21 0
BBX 16 21 2 0
BITMAP
003C
00C2
0083
0187
0187
0382
0380
0380
0380
3F80
03F0
0380
0380
0380
0300
0300
7B01
8E01
8703
87FE
78FC
ENDCHAR
STARTCHAR 00A4
ENCODING 164
SWIDTH 586 0
DWIDTH 17 0
BBX 13 13 2 4
BITMAP
8F88
7070
6030
4010
8008
8008
8008
8008
8008
4010
6030
7070
8F88
ENDCHAR
STARTCHAR 00A5
ENCODING 165
SWIDTH 586 0
DWIDTH 17 0
BBX 16 21 1 0
BITMAP
FC3F
3808
3808
1810
1C10
1C20
0E20
0E40
0640
0780
0380
3FF8
0380
0380
3FF8
0380
0380
0380
0380
0380
1FF0
ENDCHAR
STARTCHAR 00A6
ENCODING 166
SWIDTH 275 0
DWIDTH 8 0
BBX 1 27 4 -5
BITMAP
80
80
80
80
80
80
80
80
80
80
80
00
00
00
00
00
80
80
80
80
80
80
80
80
80
80
80
ENDCHAR
STARTCHAR 00A7
ENCODING 167
SWIDTH 655 0
DWIDTH 19 0
BBX 11 27 3 -6
BITMAP
1E00
3100
6180
6380
6100
7000
3800
3C00
3E00
4F00
8380
81C0
80E0
C060
E020
7020
3840
1C80
0F00
0700
0300
0180
2180
7180
6180
2300
1C00
ENDCHAR
STARTCHAR 00A8
ENCODING 168
SWIDTH 413 0
DWIDTH 12 0
BBX 8 3 2 16
BITMAP
C3
E7
C3
ENDCHAR
STARTCHAR 00A9
ENCODING 169
SWIDTH 793 0
DWIDTH 23 0
BBX 21 22 1 0
BITMAP
002000
03DE00
0C0180
1800C0
307260
218E20
430610
430210
870208
870008
870008
870008
870008
870008
870208
430210
430410
218420
307860
1800C0
0C0180
03DE00
ENDCHAR
STARTCHAR 00AA
ENCODING 170
SWIDTH 413 0
DWIDTH 12 0
BBX 8 9 2 12
BITMAP
78
C4
0C
34
44
C5
CD
76
FE
ENDCHAR
STARTCHAR 00AB
ENCODING 171
SWIDTH 482 0
DWIDTH 14 0
BBX 7 12 3 1
BITMAP
10
22
62
44
C4
C4
C4
C4
C4
42
22
10
ENDCHAR
STARTCHAR 00AC
ENCODING 172
SWIDTH 551 0
DWIDTH 16 0
BBX 14 6 1 5
BITMAP
FFFC
0004
0004
0004
0004
0004
ENDCHAR
STARTCHAR 00AD
ENCODING 173
SWIDTH 379 0
DWIDTH 11 0
BBX 7 2 2 7
BITMAP
FE
FE
ENDCHAR
STARTCHAR 00AE
ENCODING 174
SWIDTH 793 0
DWIDTH 23 0
BBX 21 22 1 0
BITMAP
002000
03DE00
0C0180
1800C0
3FF860
238C20
438E10
438E10
838E08
838C08
83F008
838C08
838C08
838E08
838E48
438E50
438650
2FC3A0
300060
1800C0
0C0180
03DE00
ENDCHAR
STARTCHAR 00AF
ENCODING 175
SWIDTH 482 0
DWIDTH 14 0
BBX 8 1 3 17
BITMAP
FF
ENDCHAR
STARTCHAR 00B0
ENCODING 176
SWIDTH 551 0
DWIDTH 16 0
BBX 8 8 4 13
BITMAP
3C
42
81
81
81
81
42
3C
ENDCHAR
STARTCHAR 00B1
ENCODING 177
SWIDTH 896 0
DWIDTH 26 0
BBX 24 21 1 -1
BITMAP
000800
000800
000800
000800
000800
000800
000800
000800
FFFFFF
000800
000800
000800
000800
000800
000800
000800
000800
000800
000000
000000
FFFFFF
ENDCHAR
STARTCHAR 00B2
ENCODING 178
SWIDTH 448 0
DWIDTH 13 0
BBX 8 13 3 8
BITMAP
3C
C6
87
C7
E7
06
0C
18
30
41
C1
FF
FF
ENDCHAR
STARTCHAR 00B3
ENCODING 179
SWIDTH 448 0
DWIDTH 13 0
BBX 9 13 3 8
BITMAP
3C00
4600
4300
6300
0300
0600
7800
0700
0300
E380
E300
8700
7C00
ENDCHAR
STARTCHAR 00B4
ENCODING 180
SWIDTH 448 0
DWIDTH 13 0
BBX 5 5 6 16
BITMAP
18
38
30
60
80
ENDCHAR
STARTCHAR 00B5
ENCODING 181
SWIDTH 620 0
DWIDTH 18 0
BBX 15 22 2 -8
BITMAP
C040
C060
E0E0
C0E0
C0E0
C060
C060
C060
4060
4040
4042
C0C2
B1BE
8F1C
8000
8000
C000
C000
C000
E000
E000
6000
ENDCHAR
STARTCHAR 00B6
ENCODING 182
SWIDTH 551 0
DWIDTH 16 0
BBX 12 26 2 -5
BITMAP
1FF0
7C40
FC40
FC40
FC40
FC40
FC40
7C40
3C40
0440
0440
0440
0440
0440
0440
0440
0440
0440
0440
0440
0440
0440
0440
0440
0440
0440
ENDCHAR
STARTCHAR 00B7
ENCODING 183
SWIDTH 275 0
DWIDTH 8 0
BBX 4 4 2 8
BITMAP
60
F0
F0
60
ENDCHAR
STARTCHAR 00B8
ENCODING 184
SWIDTH 448 0
DWIDTH 13 0
BBX 6 7 3 -6
BITMAP
20
20
30
08
0C
8C
78
ENDCHAR
STARTCHAR 00B9
ENCODING 185
SWIDTH 448 0
DWIDTH 13 0
BBX 6 12 4 9
BITMAP
10
30
F0
30
30
30
30
30
30
30
30
FC
ENDCHAR
STARTCHAR 00BA
ENCODING 186
SWIDTH 379 0
DWIDTH 11 0
BBX 7 10 2 11
BITMAP
38
44
C6
C6
C6
C6
C6
44
38
FE
ENDCHAR
STARTCHAR 00BB
ENCODING 187
SWIDTH 482 0
DWIDTH 14 0
BBX 8 12 3 1
BITMAP
08
84
46
42
23
23
23
23
22
46
44
08
ENDCHAR
STARTCHAR 00BC
ENCODING 188
SWIDTH 862 0
DWIDTH 25 0
BBX 19 21 4 0
BITMAP
100300
300200
F00400
300400
300800
300800
301000
303000
302000
304180
304380
308380
FC8580
010980
030980
021180
041FE0
040180
080180
080180
1007E0
ENDCHAR
STARTCHAR 00BD
ENCODING 189
SWIDTH 862 0
DWIDTH 25 0
BBX 19 21 4 0
BITMAP
100200
300200
F00400
300400
300800
301000
301000
302000
302780
3048C0
3050E0
3090E0
FC9CE0
010CC0
0200C0
020100
040600
040C20
080820
081FE0
101FE0
ENDCHAR
STARTCHAR 00BE
ENCODING 190
SWIDTH 862 0
DWIDTH 25 0
BBX 20 21 3 0
BITMAP
3C0100
460100
430200
630200
030400
060C00
780800
071000
031000
E3A0C0
E321C0
8741C0
7C82C0
0084C0
0104C0
0108C0
020FF0
0200C0
0400C0
0800C0
0803F0
ENDCHAR
STARTCHAR 00BF
ENCODING 191
SWIDTH 482 0
DWIDTH 14 0
BBX 11 21 1 -7
BITMAP
0C00
1E00
1E00
0C00
0000
0E00
1100
1100
1100
0200
0600
1C00
3800
7000
E0C0
E1E0
E1E0
E020
6020
7040
1F80
ENDCHAR
STARTCHAR 00C0
ENCODING 192
SWIDTH 758 0
DWIDTH 22 0
BBX 20 28 1 0
BITMAP
030000
038000
018000
00C000
004000
000000
000000
002000
006000
006000
007000
00F000
00F000
00B800
013800
013800
031C00
031C00
021C00
060E00
060E00
07FE00
0C0700
0C0700
080700
180380
180380
FF1FF0
ENDCHAR
STARTCHAR 00C1
ENCODING 193
SWIDTH 758 0
DWIDTH 22 0
BBX 20 28 1 0
BITMAP
000400
000C00
001800
003000
002000
000000
000000
002000
006000
006000
007000
00F000
00F000
01B800
013800
013800
031C00
031C00
021C00
060E00
060E00
07FE00
0C0700
0C0700
080700
180380
180380
FF1FF0
ENDCHAR
STARTCHAR 00C2
ENCODING 194
SWIDTH 758 0
DWIDTH 22 0
BBX 20 28 1 0
BITMAP
002000
006000
00F000
019800
030400
000000
000000
002000
006000
006000
007000
00F000
00F000
00B800
013800
013800
031C00
031C00
021C00
060E00
060E00
07FE00
0C0700
0C0700
080700
180380
180380
FF1FF0
ENDCHAR
STARTCHAR 00C3
ENCODING 195
SWIDTH 758 0
DWIDTH 22 0
BBX 20 27 1 0
BITMAP
01E400
03FC00
023800
000000
000000
000000
002000
006000
006000
007000
00F000
00F000
00B800
01B800
013800
031C00
031C00
021C00
060E00
060E00
07FE00
0C0700
0C0700
080700
180380
180380
FF1FF0
ENDCHAR
STARTCHAR 00C4
ENCODING 196
SWIDTH 758 0
DWIDTH 22 0
BBX 19 27 2 0
BITMAP
061800
071C00
061800
000000
000000
000000
004000
00C000
00E000
00E000
01E000
01E000
017000
037000
023000
023800
063800
041800
041C00
0C1C00
0FFC00
080E00
180E00
180600
180700
380700
FE1FE0
ENDCHAR
STARTCHAR 00C5
ENCODING 197
SWIDTH 793 0
DWIDTH 23 0
BBX 20 28 2 0
BITMAP
006000
019800
010800
010800
019800
006000
000000
006000
006000
006000
00F000
00F000
00F000
01B800
013800
013800
031C00
021C00
021C00
060E00
040E00
0FFE00
080700
080700
180700
180380
380380
FF1FF0
ENDCHAR
STARTCHAR 00C6
ENCODING 198
SWIDTH 1034 0
DWIDTH 30 0
BBX 27 21 1 0
BITMAP
003FFFE0
000F00E0
000F0060
001F0060
00170020
00370020
00270820
00670800
00470800
00C71800
0087F800
01071800
03070800
02070820
07FF0820
04070020
0C070020
08070060
18070060
380701E0
FF3FFFE0
ENDCHAR
STARTCHAR 00C7
ENCODING 199
SWIDTH 655 0
DWIDTH 19 0
BBX 15 28 2 -6
BITMAP
0FE2
1036
301E
200E
6006
6006
E006
E002
E000
E000
E000
E000
E000
E002
6002
6002
6004
2004
300C
1808
0670
0180
0100
01C0
0060
0070
0860
07C0
ENDCHAR
STARTCHAR 00C8
ENCODING 200
SWIDTH 689 0
DWIDTH 20 0
BBX 17 28 2 0
BITMAP
040000
060000
030000
010000
008000
000000
000000
FFFF80
1C0380
1C0380
1C0180
1C0180
1C0080
1C2080
1C2000
1C2000
1C6000
1FE000
1C6000
1C2000
1C2080
1C2080
1C0080
1C0180
1C0180
1C0380
1C0780
FFFF80
ENDCHAR
STARTCHAR 00C9
ENCODING 201
SWIDTH 689 0
DWIDTH 20 0
BBX 17 28 2 0
BITMAP
001800
003800
003000
006000
008000
000000
000000
FFFF80
1C0380
1C0380
1C0180
1C0180
1C0080
1C2080
1C2000
1C2000
1C6000
1FE000
1C6000
1C2000
1C2080
1C2080
1C0080
1C0180
1C0180
1C0380
1C0780
FFFF80
ENDCHAR
STARTCHAR 00CA
ENCODING 202
SWIDTH 689 0
DWIDTH 20 0
BBX 17 28 2 0
BITMAP
008000
00C000
01C000
022000
041800
000000
000000
FFFF80
1C0380
1C0380
1C0180
1C0180
1C0080
1C2080
1C2000
1C2000
1C6000
1FE000
1C6000
1C2000
1C2080
1C2080
1C0080
1C0180
1C0180
1C0380
1C0780
FFFF80
ENDCHAR
STARTCHAR 00CB
ENCODING 203
SWIDTH 689 0
DWIDTH 20 0
BBX 17 27 2 0
BITMAP
063000
073800
063000
000000
000000
000000
FFFF80
1C0780
1C0380
1C0180
1C0180
1C0180
1C2080
1C2000
1C2000
1C6000
1FE000
1C6000
1C2000
1C2080
1C2080
1C0100
1C0180
1C0180
1C0380
1C0780
FFFF80
ENDCHAR
STARTCHAR 00CC
ENCODING 204
SWIDTH 413 0
DWIDTH 12 0
BBX 8 28 2 0
BITMAP
C0
E0
60
30
18
00
00
FF
1C
1C
1C
1C
1C
1C
1C
1C
1C
1C
1C
1C
1C
1C
1C
1C
1C
1C
1C
FF
ENDCHAR
STARTCHAR 00CD
ENCODING 205
SWIDTH 413 0
DWIDTH 12 0
BBX 9 28 2 0
BITMAP
0100
0300
0600
0400
0800
0000
0000
FF80
1C00
1C00
1C00
1C00
1C00
1C00
1C00
1C00
1C00
1C00
1C00
1C00
1C00
1C00
1C00
1C00
1C00
1C00
1C00
FF80
ENDCHAR
STARTCHAR 00CE
ENCODING 206
SWIDTH 413 0
DWIDTH 12 0
BBX 8 28 2 0
BITMAP
08
18
1C
26
C1
00
00
FF
1C
1C
1C
1C
1C
1C
1C
1C
1C
1C
1C
1C
1C
1C
1C
1C
1C
1C
1C
FF
ENDCHAR
STARTCHAR 00CF
ENCODING 207
SWIDTH 379 0
DWIDTH 11 0
BBX 9 27 2 0
BITMAP
C300
E380
C300
0000
0000
0000
FF00
1C00
1C00
1C00
1C00
1C00
1C00
1C00
1C00
1C00
1C00
1C00
1C00
1C00
1C00
1C00
1C00
1C00
1C00
1C00
FF00
ENDCHAR
STARTCHAR 00D0
ENCODING 208
SWIDTH 758 0
DWIDTH 22 0
BBX 19 21 2 0
BITMAP
FFF800
1C0600
1C0300
1C0180
1C01C0
1C00C0
1C00C0
1C00E0
1C00E0
FF80E0
1C00E0
1C00E0
1C00E0
1C00E0
1C00C0
1C00C0
1C0180
1C0180
1C0300
1C0600
FFF800
ENDCHAR
STARTCHAR 00D1
ENCODING 209
SWIDTH 793 0
DWIDTH 23 0
BBX 20 27 2 0
BITMAP
01E200
03FE00
021C00
000000
000000
000000
FC07F0
1C0080
1E0080
1F0080
170080
138080
13C080
11C080
10E080
10F080
107080
103880
103880
101C80
101E80
100E80
100780
100780
100380
100180
FE0180
ENDCHAR
STARTCHAR 00D2
ENCODING 210
SWIDTH 689 0
DWIDTH 20 0
BBX 17 28 2 0
BITMAP
0C0000
0E0000
060000
030000
018000
000000
008000
077000
180800
100C00
300600
600600
600300
600300
E00300
E00300
E00300
E00380
E00380
E00300
E00300
600300
600300
600600
300600
100C00
180800
07F000
ENDCHAR
STARTCHAR 00D3
ENCODING 211
SWIDTH 689 0
DWIDTH 20 0
BBX 17 28 2 0
BITMAP
001800
003800
007000
004000
008000
000000
008000
077000
180800
100C00
300600
600600
600300
600300
E00300
E00300
E00300
E00380
E00380
E00300
E00300
600300
600300
600600
300600
100C00
180800
07F000
ENDCHAR
STARTCHAR 00D4
ENCODING 212
SWIDTH 689 0
DWIDTH 20 0
BBX 17 28 2 0
BITMAP
008000
018000
03C000
062000
0C1000
000800
008000
077000
180800
100C00
300600
600600
600300
600300
E00300
E00300
E00300
E00380
E00380
E00300
E00300
600300
600300
600600
300600
100C00
180800
07F000
ENDCHAR
STARTCHAR 00D5
ENCODING 213
SWIDTH 689 0
DWIDTH 20 0
BBX 17 27 2 0
BITMAP
078800
0FF800
087000
000000
000000
008000
077000
180800
100C00
300600
600600
600300
600300
E00300
E00300
E00300
E00380
E00380
E00300
E00300
600300
600300
600600
300600
100C00
180800
07F000
ENDCHAR
STARTCHAR 00D6
ENCODING 214
SWIDTH 689 0
DWIDTH 20 0
BBX 17 27 2 0
BITMAP
0C3000
0E3800
0C3000
000000
000000
008000
077000
180800
100C00
300600
600600
600300
600300
E00300
E00300
E00300
E00380
E00380
E00300
E00300
600300
600300
600600
300600
100C00
180800
07F000
ENDCHAR
STARTCHAR 00D7
ENCODING 215
SWIDTH 931 0
DWIDTH 27 0
BBX 18 18 5 -1
BITMAP
8000C0
C00180
600300
300600
180C00
0C1800
063000
036000
01C000
01C000
036000
063000
0C1800
180C00
300600
600300
400180
8000C0
ENDCHAR
STARTCHAR 00D8
ENCODING 216
SWIDTH 689 0
DWIDTH 20 0
BBX 17 21 2 1
BITMAP
07F100
080F00
100E00
300600
600E00
601B00
601300
E02300
E06300
E0C380
E18380
E10300
E20300
E60300
EC0300
680300
700600
700600
700C00
580800
8FF000
ENDCHAR
STARTCHAR 00D9
ENCODING 217
SWIDTH 793 0
DWIDTH 23 0
BBX 20 28 2 0
BITMAP
030000
038000
018000
00C000
002000
000000
000000
FF07F0
1C0080
1C0080
1C0080
1C0080
1C0080
1C0080
1C0080
1C0080
1C0080
1C0080
1C0080
1C0080
1C0080
1C0080
1C0080
1C0080
0C0080
0C0100
060200
03FC00
ENDCHAR
STARTCHAR 00DA
ENCODING 218
SWIDTH 793 0
DWIDTH 23 0
BBX 20 28 2 0
BITMAP
000400
000C00
001800
001000
002000
000000
000000
FF07F0
1C0080
1C0080
1C0080
1C0080
1C0080
1C0080
1C0080
1C0080
1C0080
1C0080
1C0080
1C0080
1C0080
1C0080
1C0080
1C0080
0C0080
0C0100
060200
03FC00
ENDCHAR
STARTCHAR 00DB
ENCODING 219
SWIDTH 793 0
DWIDTH 23 0
BBX 20 28 2 0
BITMAP
002000
006000
007000
008800
030400
000000
000000
FF07F0
1C0080
1C0080
1C0080
1C0080
1C0080
1C0080
1C0080
1C0080
1C0080
1C0080
1C0080
1C0080
1C0080
1C0080
1C0080
1C0080
0C0180
0C0100
060200
03FC00
ENDCHAR
STARTCHAR 00DC
ENCODING 220
SWIDTH 793 0
DWIDTH 23 0
BBX 20 27 2 0
BITMAP
018600
038E00
018600
000000
000000
000000
FF83F0
1C0080
1C0080
1C0080
1C0080
1C0080
1C0080
1C0080
1C0080
1C0080
1C0080
1C0080
1C0080
1C0080
1C0080
1C0080
1C0080
0C0080
0C0100
060200
03FC00
ENDCHAR
STARTCHAR 00DD
ENCODING 221
SWIDTH 724 0
DWIDTH 21 0
BBX 19 28 1 0
BITMAP
000400
000C00
001800
001000
002000
000000
000000
FF8FE0
1E0380
0E0300
0E0200
070200
070400
038400
01C800
01C800
00F000
00F000
007000
007000
007000
007000
007000
007000
007000
007000
007000
07FE00
ENDCHAR
STARTCHAR 00DE
ENCODING 222
SWIDTH 689 0
DWIDTH 20 0
BBX 17 21 2 0
BITMAP
FF8000
1C0000
1C0000
1FF000
1C0C00
1C0600
1C0300
1C0300
1C0380
1C0380
1C0300
1C0300
1C0600
1C0C00
1FF000
1C0000
1C0000
1C0000
1C0000
1C0000
FF8000
ENDCHAR
STARTCHAR 00DF
ENCODING 223
SWIDTH 517 0
DWIDTH 15 0
BBX 13 21 1 0
BITMAP
07C0
0C60
1870
3870
3870
3860
38C0
3B00
38C0
3860
3830
3830
3838
3838
3838
3838
3A38
3F38
3E30
3C30
FBC0
ENDCHAR
STARTCHAR 00E0
ENCODING 224
SWIDTH 517 0
DWIDTH 15 0
BBX 13 21 1 0
BITMAP
6000
6000
3000
1800
0800
0400
0000
1F00
6180
41C0
61C0
71C0
01C0
0FC0
31C0
61C0
C1C0
C1C8
C3C8
C4D8
38F0
ENDCHAR
STARTCHAR 00E1
ENCODING 225
SWIDTH 517 0
DWIDTH 15 0
BBX 13 21 1 0
BITMAP
00C0
01C0
0180
0300
0600
0400
0000
1F00
2180
60C0
70C0
70C0
00C0
07C0
38C0
60C0
E0C0
E0C8
E1C8
E2D8
3C70
ENDCHAR
STARTCHAR 00E2
ENCODING 226
SWIDTH 517 0
DWIDTH 15 0
BBX 13 21 1 0
BITMAP
0400
0C00
0E00
1A00
1100
2080
0000
1F00
2180
61C0
71C0
71C0
01C0
0FC0
31C0
61C0
E1C0
E1C8
E1C8
E2D8
3CF0
ENDCHAR
STARTCHAR 00E3
ENCODING 227
SWIDTH 517 0
DWIDTH 15 0
BBX 13 20 1 0
BITMAP
1800
3F80
4780
0000
0000
0000
1F00
2180
61C0
71C0
71C0
01C0
0FC0
31C0
61C0
E1C0
E1C8
E1C8
E2D8
3CF0
ENDCHAR
STARTCHAR 00E4
ENCODING 228
SWIDTH 517 0
DWIDTH 15 0
BBX 13 20 1 0
BITMAP
6180
61C0
6180
0000
0000
0000
1E00
6180
4080
6080
60C0
00C0
0FC0
30C0
60C0
C0C0
C1C8
C2C8
C2D8
3C70
ENDCHAR
STARTCHAR 00E5
ENCODING 229
SWIDTH 517 0
DWIDTH 15 0
BBX 13 21 1 0
BITMAP
0E00
3100
2100
2100
1300
0E00
0000
1E00
2180
6180
6180
71C0
01C0
0FC0
71C0
61C0
E1C0
E1C8
E3C8
E5D8
78F0
ENDCHAR
STARTCHAR 00E6
ENCODING 230
SWIDTH 689 0
DWIDTH 20 0
BBX 18 14 1 0
BITMAP
1F1E00
61E300
41E300
61C180
71C180
01C180
0FFFC0
71C000
41C000
C1C080
C1C080
C2E080
C26100
3C3E00
ENDCHAR
STARTCHAR 00E7
ENCODING 231
SWIDTH 413 0
DWIDTH 12 0
BBX 10 20 1 -6
BITMAP
1F00
3080
60C0
60C0
E1C0
E080
E000
E000
E000
E040
6040
6080
3080
1F00
0800
0C00
0300
0300
0300
1E00
ENDCHAR
STARTCHAR 00E8
ENCODING 232
SWIDTH 448 0
DWIDTH 13 0
BBX 10 21 1 0
BITMAP
6000
7000
3800
1800
0400
0000
0000
1E00
3180
6180
60C0
E0C0
E0C0
FFC0
E000
E000
E040
6040
6040
3080
1F00
ENDCHAR
STARTCHAR 00E9
ENCODING 233
SWIDTH 448 0
DWIDTH 13 0
BBX 10 21 1 0
BITMAP
00C0
01C0
0180
0300
0600
0000
0000
1E00
3180
6180
60C0
E0C0
E0C0
FFC0
E000
E000
E040
6040
6040
3080
1F00
ENDCHAR
STARTCHAR 00EA
ENCODING 234
SWIDTH 448 0
DWIDTH 13 0
BBX 10 21 1 0
BITMAP
0400
0400
0E00
0B00
1100
2080
0000
1E00
3180
6180
60C0
E0C0
E0C0
FFC0
E000
E000
E040
6040
6040
3080
1F00
ENDCHAR
STARTCHAR 00EB
ENCODING 235
SWIDTH 448 0
DWIDTH 13 0
BBX 10 20 1 0
BITMAP
3180
71C0
3180
0000
0000
0000
1E00
3180
6180
60C0
E0C0
E0C0
FFC0
E000
E000
E040
6040
6040
3080
1F00
ENDCHAR
STARTCHAR 00EC
ENCODING 236
SWIDTH 275 0
DWIDTH 8 0
BBX 7 21 0 0
BITMAP
C0
C0
60
30
18
00
00
7C
1C
1C
1C
1C
1C
1C
1C
1C
1C
1C
1C
1C
7E
ENDCHAR
STARTCHAR 00ED
ENCODING 237
SWIDTH 275 0
DWIDTH 8 0
BBX 7 21 1 0
BITMAP
06
0E
0C
18
10
00
00
F8
38
38
38
38
38
38
38
38
38
38
38
38
FC
ENDCHAR
STARTCHAR 00EE
ENCODING 238
SWIDTH 310 0
DWIDTH 9 0
BBX 7 20 1 0
BITMAP
30
30
68
84
02
00
F8
38
38
38
38
38
38
38
38
38
38
38
38
FC
ENDCHAR
STARTCHAR 00EF
ENCODING 239
SWIDTH 310 0
DWIDTH 9 0
BBX 8 19 1 0
BITMAP
C6
E7
C6
00
00
7C
1C
1C
1C
1C
1C
1C
1C
1C
1C
1C
1C
1C
7E
ENDCHAR
STARTCHAR 00F0
ENCODING 240
SWIDTH 482 0
DWIDTH 14 0
BBX 12 21 1 0
BITMAP
3840
1D80
0E00
0F00
1300
2180
01C0
0FC0
30E0
60E0
6060
E060
E070
E070
E060
E060
E060
6060
60C0
3080
0F00
ENDCHAR
STARTCHAR 00F1
ENCODING 241
SWIDTH 551 0
DWIDTH 16 0
BBX 14 20 1 0
BITMAP
0E20
0F20
13C0
10C0
0000
0000
F9C0
3E60
3C70
3870
3870
3870
3870
3870
3870
3870
3870
3870
3870
FCFC
ENDCHAR
STARTCHAR 00F2
ENCODING 242
SWIDTH 482 0
DWIDTH 14 0
BBX 12 21 1 0
BITMAP
2000
3000
1800
0800
0400
0000
0000
0F00
3080
60C0
6060
E060
E060
E070
E070
E060
E060
6060
60C0
3080
0F00
ENDCHAR
STARTCHAR 00F3
ENCODING 243
SWIDTH 482 0
DWIDTH 14 0
BBX 12 21 1 0
BITMAP
00C0
01C0
0180
0300
0200
0400
0000
0F00
3080
60C0
6060
E060
E060
E070
E070
E060
E060
6060
60C0
3080
0F00
ENDCHAR
STARTCHAR 00F4
ENCODING 244
SWIDTH 482 0
DWIDTH 14 0
BBX 12 21 1 0
BITMAP
0400
0600
0E00
0B00
1080
2000
0000
0F00
3080
60C0
6060
E060
E060
E070
E070
E060
E060
6060
60C0
3080
0F00
ENDCHAR
STARTCHAR 00F5
ENCODING 245
SWIDTH 482 0
DWIDTH 14 0
BBX 12 20 1 0
BITMAP
1C40
3FC0
2780
0000
0000
0000
0F00
3080
60C0
6060
E060
E060
E070
E070
E060
E060
6060
60C0
3080
0F00
ENDCHAR
STARTCHAR 00F6
ENCODING 246
SWIDTH 482 0
DWIDTH 14 0
BBX 12 20 1 0
BITMAP
30C0
39C0
30C0
0000
0000
0000
0F00
3080
60C0
6060
E060
E060
E070
E070
E060
E060
6060
60C0
3080
0F00
ENDCHAR
STARTCHAR 00F7
ENCODING 247
SWIDTH 896 0
DWIDTH 26 0
BBX 24 19 1 -2
BITMAP
001800
003C00
003C00
001800
000000
000000
000000
000000
000000
FFFFFF
000000
000000
000000
000000
000000
001800
003C00
003C00
001800
ENDCHAR
STARTCHAR 00F8
ENCODING 248
SWIDTH 482 0
DWIDTH 14 0
BBX 12 14 1 0
BITMAP
0F20
30A0
60C0
60E0
E160
E360
E270
E470
E860
F060
6060
60C0
7080
8F00
ENDCHAR
STARTCHAR 00F9
ENCODING 249
SWIDTH 551 0
DWIDTH 16 0
BBX 14 21 1 0
BITMAP
1800
1800
0C00
0600
0200
0000
0000
F8F0
3870
3870
3870
3870
3870
3870
3870
3870
3870
3870
38F0
1970
0E7C
ENDCHAR
STARTCHAR 00FA
ENCODING 250
SWIDTH 551 0
DWIDTH 16 0
BBX 14 21 1 0
BITMAP
0060
00E0
00C0
0180
0100
0000
0000
F8F0
3870
3870
3870
3870
3870
3870
3870
3870
3870
3870
38F0
1970
0E7C
ENDCHAR
STARTCHAR 00FB
ENCODING 251
SWIDTH 551 0
DWIDTH 16 0
BBX 14 21 1 0
BITMAP
0200
0300
0700
0480
0840
0000
0000
F8F0
3870
3870
3870
3870
3870
3870
3870
3870
3870
3870
38F0
1970
0E7C
ENDCHAR
STARTCHAR 00FC
ENCODING 252
SWIDTH 551 0
DWIDTH 16 0
BBX 14 20 1 0
BITMAP
1860
1CE0
1860
0000
0000
0000
F8F0
3870
3870
3870
3870
3870
3870
3870
3870
3870
3870
38F0
1970
0E7C
ENDCHAR
STARTCHAR 00FD
ENCODING 253
SWIDTH 517 0
DWIDTH 15 0
BBX 14 28 0 -7
BITMAP
0030
0070
0060
00C0
0180
0000
0000
FE7C
1810
1810
1C10
0C20
0C20
0E20
0640
0640
0640
0380
0380
0380
0180
0100
0100
0100
6200
7200
6400
3800
ENDCHAR
STARTCHAR 00FE
ENCODING 254
SWIDTH 482 0
DWIDTH 14 0
BBX 12 28 1 -7
BITMAP
3800
F800
3800
3800
3800
3800
3800
39E0
3E70
3C70
3870
3870
3870
3860
3860
38C0
3880
3980
3A00
3C00
3800
3800
3800
3800
3800
3800
3000
C000
ENDCHAR
STARTCHAR 00FF
ENCODING 255
SWIDTH 517 0
DWIDTH 15 0
BBX 14 26 0 -7
BITMAP
0C30
0E70
0C30
0000
0000
FE3C
1810
1810
1C20
0C20
0C20
0E20
0640
0640
0740
0380
0380
0380
0100
0100
0100
0100
7200
7200
7400
3800
ENDCHAR
STARTCHAR 0100
ENCODING 256
SWIDTH 793 0
DWIDTH 23 0
BBX 20 26 2 0
BITMAP
03FC00
000000
000000
000000
000000
006000
006000
006000
00F000
00F000
00F000
01B800
013800
013800
031C00
021C00
021C00
060E00
040E00
0FFE00
0C0700
080700
180700
180380
380380
FF1FF0
ENDCHAR
STARTCHAR 0101
ENCODING 257
SWIDTH 517 0
DWIDTH 15 0
BBX 13 19 1 0
BITMAP
7F80
0000
0000
0000
0000
1F00
2180
61C0
71C0
71C0
01C0
0FC0
31C0
61C0
E1C0
E1C8
E1C8
E2D8
3CF0
ENDCHAR
STARTCHAR 0102
ENCODING 258
SWIDTH 758 0
DWIDTH 22 0
BBX 21 28 1 0
BITMAP
020200
020200
030600
018C00
00F800
000000
000000
002000
002000
007000
007000
007000
00B800
00B800
019800
011C00
011C00
030C00
020E00
020E00
060600
07FF00
040700
0C0300
080380
180380
1801C0
FF0FF8
ENDCHAR
STARTCHAR 0103
ENCODING 259
SWIDTH 517 0
DWIDTH 15 0
BBX 13 21 1 0
BITMAP
4080
4080
6100
2100
1E00
0000
0000
1F00
2180
61C0
71C0
71C0
01C0
0FC0
31C0
61C0
E1C0
E1C8
E1C8
E2D8
3CF0
ENDCHAR
STARTCHAR 0104
ENCODING 260
SWIDTH 758 0
DWIDTH 22 0
BBX 21 28 1 -7
BITMAP
002000
006000
007000
007000
00F000
00B800
00B800
011800
011C00
011C00
020C00
020E00
020E00
07FE00
040700
040300
080300
080380
180380
180180
FF1FF8
000100
000600
000600
000E00
000E00
000E40
000780
ENDCHAR
STARTCHAR 0105
ENCODING 261
SWIDTH 517 0
DWIDTH 15 0
BBX 13 21 1 -7
BITMAP
1F00
2180
41C0
61C0
71C0
01C0
07C0
39C0
61C0
C1C0
C1C8
C3C8
C2C8
3CF0
0060
0080
0100
0300
0300
03A0
01C0
ENDCHAR
STARTCHAR 0106
ENCODING 262
SWIDTH 655 0
DWIDTH 19 0
BBX 15 28 2 0
BITMAP
0030
0070
0060
00C0
0080
0000
0000
0FE2
1036
301E
200E
6006
6006
E006
E002
E000
E000
E000
E000
E000
E002
6002
6002
6004
2004
300C
1808
07F0
ENDCHAR
STARTCHAR 0107
ENCODING 263
SWIDTH 413 0
DWIDTH 12 0
BBX 10 21 1 0
BITMAP
00C0
00C0
0180
0300
0200
0400
0000
1F00
3080
6040
60C0
E0C0
E000
E000
E000
E000
E040
6040
6080
3080
1F00
ENDCHAR
STARTCHAR 0108
ENCODING 264
SWIDTH 655 0
DWIDTH 19 0
BBX 15 28 2 0
BITMAP
0100
0180
03C0
0660
0830
0000
0000
0FE2
1036
301E
200E
6006
6006
E006
E002
E000
E000
E000
E000
E000
E002
6002
6002
6004
2004
300C
1808
07F0
ENDCHAR
STARTCHAR 0109
ENCODING 265
SWIDTH 413 0
DWIDTH 12 0
BBX 10 21 1 0
BITMAP
0600
0600
0600
0900
1080
2040
0000
1F00
3080
6040
60C0
E1C0
E080
E000
E000
E000
E000
6040
6080
3080
1F00
ENDCHAR
STARTCHAR 010A
ENCODING 266
SWIDTH 655 0
DWIDTH 19 0
BBX 15 27 2 0
BITMAP
0180
01C0
0180
0000
0000
0000
0FE2
103E
301E
200E
6006
6006
E006
E002
E000
E000
E000
E000
E000
E002
6002
6002
6004
2004
300C
1808
07F0
ENDCHAR
STARTCHAR 010B
ENCODING 267
SWIDTH 413 0
DWIDTH 12 0
BBX 10 20 1 0
BITMAP
0600
0E00
0600
0000
0000
0000
1F00
3080
60C0
60C0
E1C0
E080
E000
E000
E000
E040
6040
6080
3080
1F00
ENDCHAR
STARTCHAR 010C
ENCODING 268
SWIDTH 655 0
DWIDTH 19 0
BBX 15 28 2 0
BITMAP
1000
0830
0660
03C0
0180
0000
0000
0FE2
1036
301E
200E
6006
6006
E006
E002
E000
E000
E000
E000
E000
E002
6002
6002
6004
2004
300C
1808
07F0
ENDCHAR
STARTCHAR 010D
ENCODING 269
SWIDTH 413 0
DWIDTH 12 0
BBX 10 20 1 0
BITMAP
2080
1980
0F00
0600
0600
0000
1F00
3080
6040
60C0
E1C0
E080
E000
E000
E000
E000
6040
6080
3080
1F00
ENDCHAR
STARTCHAR 010E
ENCODING 270
SWIDTH 758 0
DWIDTH 22 0
BBX 19 28 2 0
BITMAP
080000
041800
033000
01E000
00C000
000000
000000
FFF800
1C0600
1C0300
1C0180
1C0180
1C01C0
1C00C0
1C00C0
1C00C0
1C00E0
1C00E0
1C00E0
1C00C0
1C00C0
1C00C0
1C01C0
1C0180
1C0100
1C0300
1C0600
FFF800
ENDCHAR
STARTCHAR 010F
ENCODING 271
SWIDTH 586 0
DWIDTH 17 0
BBX 15 21 1 0
BITMAP
03EC
00EE
00E6
00E2
00E4
00E4
00E0
1EE0
31E0
61E0
60E0
E0E0
E0E0
E0E0
E0E0
E0E0
E0E0
60E0
60E0
31E0
1EF8
ENDCHAR
STARTCHAR 0110
ENCODING 272
SWIDTH 758 0
DWIDTH 22 0
BBX 19 21 2 0
BITMAP
FFF800
1C0600
1C0300
1C0180
1C01C0
1C00C0
1C00C0
1C00E0
1C00E0
FF80E0
1C00E0
1C00E0
1C00E0
1C00E0
1C00C0
1C00C0
1C0180
1C0180
1C0300
1C0600
FFF800
ENDCHAR
STARTCHAR 0111
ENCODING 273
SWIDTH 517 0
DWIDTH 15 0
BBX 13 21 1 0
BITMAP
03E0
00E0
00E0
1FF8
00E0
00E0
00E0
1EE0
31E0
61E0
60E0
E0E0
E0E0
E0E0
E0E0
E0E0
E0E0
60E0
60E0
31E0
1EF8
ENDCHAR
STARTCHAR 0112
ENCODING 274
SWIDTH 689 0
DWIDTH 20 0
BBX 17 26 2 0
BITMAP
07F800
000000
000000
000000
000000
FFFF80
1C0380
1C0180
1C0180
1C0180
1C0080
1C2080
1C2000
1C2000
1C6000
1FE000
1C6000
1C2000
1C2080
1C2080
1C0080
1C0180
1C0180
1C0380
1C0780
FFFF80
ENDCHAR
STARTCHAR 0113
ENCODING 275
SWIDTH 448 0
DWIDTH 13 0
BBX 10 19 1 0
BITMAP
3FC0
0000
0000
0000
0000
1E00
3180
6080
60C0
E0C0
E040
FFC0
E000
E000
E000
6040
6040
3080
1F00
ENDCHAR
STARTCHAR 0114
ENCODING 276
SWIDTH 689 0
DWIDTH 20 0
BBX 17 28 2 0
BITMAP
080800
080800
0C1800
063000
03E000
000000
000000
FFFF80
1C0780
1C0380
1C0180
1C0180
1C0080
1C2080
1C2000
1C2000
1C6000
1FE000
1C6000
1C2000
1C2080
1C2080
1C0080
1C0180
1C0180
1C0380
1C0780
FFFF80
ENDCHAR
STARTCHAR 0115
ENCODING 277
SWIDTH 448 0
DWIDTH 13 0
BBX 10 21 1 0
BITMAP
0040
2040
2080
1080
0F00
0000
0000
1E00
3180
6080
60C0
E0C0
E0C0
FFC0
E000
E000
E000
6040
6040
3080
1F00
ENDCHAR
STARTCHAR 0116
ENCODING 278
SWIDTH 689 0
DWIDTH 20 0
BBX 17 27 2 0
BITMAP
006000
00E000
006000
000000
000000
000000
FFFF80
1C0380
1C0380
1C0180
1C0180
1C0080
1C0080
1C2000
1C2000
1C2000
1FE000
1C2000
1C2000
1C2080
1C0080
1C0080
1C0180
1C0180
1C0380
1C0780
FFFF80
ENDCHAR
STARTCHAR 0117
ENCODING 279
SWIDTH 448 0
DWIDTH 13 0
BBX 10 20 1 0
BITMAP
0600
0E00
0600
0000
0000
0000
1E00
3180
6080
6040
E040
E040
FFC0
E000
E000
E000
6040
6040
3080
1F00
ENDCHAR
STARTCHAR 0118
ENCODING 280
SWIDTH 689 0
DWIDTH 20 0
BBX 17 28 2 -7
BITMAP
FFFF80
1C0380
1C0380
1C0180
1C0180
1C0080
1C2080
1C2000
1C2000
1C6000
1FE000
1C6000
1C2000
1C2080
1C2080
1C0080
1C0180
1C0180
1C0380
1C0780
FFFF80
001800
003000
006000
006000
00E000
006000
003C00
ENDCHAR
STARTCHAR 0119
ENCODING 281
SWIDTH 448 0
DWIDTH 13 0
BBX 10 21 1 -7
BITMAP
1E00
3180
6180
60C0
E0C0
E0C0
E0C0
FFC0
E000
E000
6040
6040
3080
1F80
0300
0600
0C00
0C00
0C00
0D00
0700
ENDCHAR
STARTCHAR 011A
ENCODING 282
SWIDTH 689 0
DWIDTH 20 0
BBX 17 28 2 0
BITMAP
080000
041800
033000
01E000
00C000
000000
000000
FFFF80
1C0380
1C0380
1C0180
1C0180
1C0080
1C2080
1C2000
1C2000
1C6000
1FE000
1C6000
1C2000
1C2080
1C2080
1C0080
1C0180
1C0180
1C0380
1C0780
FFFF80
ENDCHAR
STARTCHAR 011B
ENCODING 283
SWIDTH 448 0
DWIDTH 13 0
BBX 10 20 1 0
BITMAP
2080
1100
0B00
0E00
0400
0000
1E00
3180
6180
60C0
E0C0
E0C0
FFC0
E000
E000
E040
6040
6040
3080
1F00
ENDCHAR
STARTCHAR 011C
ENCODING 284
SWIDTH 724 0
DWIDTH 21 0
BBX 18 28 2 0
BITMAP
018000
018000
03C000
066000
081000
000000
000000
0FE200
181A00
300E00
200E00
600600
600600
E00200
E00200
E00000
E00000
E07FC0
E00E00
E00E00
E00E00
E00E00
600E00
600E00
200E00
301A00
103200
0FE200
ENDCHAR
STARTCHAR 011D
ENCODING 285
SWIDTH 551 0
DWIDTH 16 0
BBX 14 27 2 -7
BITMAP
0600
0600
0F00
1180
2040
0000
1F38
71C8
60DC
E0F8
E0E0
E0E0
E0E0
60C0
3180
1F00
6000
8000
E000
7FE0
3870
4010
8010
8010
8030
4060
3F80
ENDCHAR
STARTCHAR 011E
ENCODING 286
SWIDTH 724 0
DWIDTH 21 0
BBX 18 28 2 0
BITMAP
080800
080800
0C1800
063000
03E000
000000
000000
0FE200
181A00
300E00
200E00
600600
600600
E00200
E00200
E00000
E00000
E03FC0
E00600
E00600
E00600
E00600
600600
600E00
200E00
300A00
181200
0FE200
ENDCHAR
STARTCHAR 011F
ENCODING 287
SWIDTH 551 0
DWIDTH 16 0
BBX 14 27 2 -7
BITMAP
2040
2040
1080
0F00
0000
0000
1F38
71C8
60DC
E0F8
E0E0
E0E0
E0E0
60C0
3180
1F00
6000
8000
E000
7FE0
3870
4010
8010
8010
8030
4060
3F80
ENDCHAR
STARTCHAR 0120
ENCODING 288
SWIDTH 724 0
DWIDTH 21 0
BBX 18 27 2 0
BITMAP
018000
01C000
018000
000000
000000
000000
0FE200
181A00
300E00
200E00
600600
600600
E00200
E00200
E00000
E00000
E07FC0
E00E00
E00E00
E00E00
E00E00
600E00
600E00
200E00
301A00
103200
0FE200
ENDCHAR
STARTCHAR 0121
ENCODING 289
SWIDTH 551 0
DWIDTH 16 0
BBX 14 26 2 -7
BITMAP
0600
0E00
0600
0000
0000
1F38
71C8
60DC
E0F8
E0E0
E0E0
E0E0
60C0
3180
1F00
6000
8000
E000
7FE0
3870
4010
8010
8010
8030
4060
3F80
ENDCHAR
STARTCHAR 0122
ENCODING 290
SWIDTH 724 0
DWIDTH 21 0
BBX 18 28 2 -6
BITMAP
0FE200
181A00
300E00
200E00
600600
600600
E00200
E00200
E00000
E00000
E07FC0
E00E00
E00E00
E00E00
E00E00
600E00
600E00
200E00
301A00
103200
0C6200
038000
018000
018000
01C000
008000
008000
010000
ENDCHAR
STARTCHAR 0123
ENCODING 291
SWIDTH 551 0
DWIDTH 16 0
BBX 14 29 2 -7
BITMAP
0200
0400
0800
0800
0E00
0E00
0600
0000
1F38
71C8
60DC
E0F8
E0E0
E0E0
E0E0
60C0
3180
1F00
6000
8000
E000
7FE0
3870
4010
8010
8010
8030
4060
3F80
ENDCHAR
STARTCHAR 0124
ENCODING 292
SWIDTH 793 0
DWIDTH 23 0
BBX 20 28 2 0
BITMAP
006000
006000
00F000
019800
020400
000000
000000
FF0FF0
1C0380
1C0380
1C0380
1C0380
1C0380
1C0380
1C0380
1C0380
1FFF80
1C0380
1C0380
1C0380
1C0380
1C0380
1C0380
1C0380
1C0380
1C0380
1C0380
FF0FF0
ENDCHAR
STARTCHAR 0125
ENCODING 293
SWIDTH 551 0
DWIDTH 16 0
BBX 14 28 1 0
BITMAP
0200
0300
0700
0C80
1040
0000
0000
F800
3800
3800
3800
3800
3800
3800
39C0
3E60
3C70
3870
3870
3870
3870
3870
3870
3870
3870
3870
3870
FCFC
ENDCHAR
STARTCHAR 0126
ENCODING 294
SWIDTH 827 0
DWIDTH 24 0
BBX 21 21 2 0
BITMAP
FF8FF8
1C01C0
1C01C0
1C01C0
1C01C0
FFFFF8
1C01C0
1C01C0
1C01C0
1FFFC0
1C01C0
1C01C0
1C01C0
1C01C0
1C01C0
1C01C0
1C01C0
1C01C0
1C01C0
1C01C0
FF8FF8
ENDCHAR
STARTCHAR 0127
ENCODING 295
SWIDTH 551 0
DWIDTH 16 0
BBX 14 21 1 0
BITMAP
F800
3800
3800
FF80
3800
3800
3800
39C0
3E60
3C70
3870
3870
3870
3870
3870
3870
3870
3870
3870
3870
FCFC
ENDCHAR
STARTCHAR 0128
ENCODING 296
SWIDTH 413 0
DWIDTH 12 0
BBX 9 27 2 0
BITMAP
7880
FF80
8700
0000
0000
0000
FF80
1C00
1C00
1C00
1C00
1C00
1C00
1C00
1C00
1C00
1C00
1C00
1C00
1C00
1C00
1C00
1C00
1C00
1C00
1C00
FF80
ENDCHAR
STARTCHAR 0129
ENCODING 297
SWIDTH 275 0
DWIDTH 8 0
BBX 8 20 0 0
BITMAP
71
F9
9F
8E
00
00
7C
1C
1C
1C
1C
1C
1C
1C
1C
1C
1C
1C
1C
7E
ENDCHAR
STARTCHAR 012A
ENCODING 298
SWIDTH 379 0
DWIDTH 11 0
BBX 8 26 2 0
BITMAP
FF
00
00
00
00
FF
38
38
38
38
38
38
38
38
38
38
38
38
38
38
38
38
38
38
38
FF
ENDCHAR
STARTCHAR 012B
ENCODING 299
SWIDTH 344 0
DWIDTH 10 0
BBX 8 18 1 0
BITMAP
FF
00
00
00
78
38
38
38
38
38
38
38
38
38
38
38
38
7E
ENDCHAR
STARTCHAR 012C
ENCODING 300
SWIDTH 413 0
DWIDTH 12 0
BBX 9 28 2 0
BITMAP
8080
8080
C180
6300
3E00
0000
0000
FF80
1C00
1C00
1C00
1C00
1C00
1C00
1C00
1C00
1C00
1C00
1C00
1C00
1C00
1C00
1C00
1C00
1C00
1C00
1C00
FF80
ENDCHAR
STARTCHAR 012D
ENCODING 301
SWIDTH 275 0
DWIDTH 8 0
BBX 8 20 0 0
BITMAP
81
81
42
3C
00
00
7C
1C
1C
1C
1C
1C
1C
1C
1C
1C
1C
1C
1C
7E
ENDCHAR
STARTCHAR 012E
ENCODING 302
SWIDTH 413 0
DWIDTH 12 0
BBX 9 28 2 -7
BITMAP
FF00
1C00
1C00
1C00
1C00
1C00
1C00
1C00
1C00
1C00
1C00
1C00
1C00
1C00
1C00
1C00
1C00
1C00
1C00
1C00
FF00
0200
0C00
0C00
1C00
1C00
1C80
0F00
ENDCHAR
STARTCHAR 012F
ENCODING 303
SWIDTH 241 0
DWIDTH 7 0
BBX 6 28 1 -7
BITMAP
30
70
30
00
00
00
00
F8
38
38
38
38
38
38
38
38
38
38
38
38
FC
10
10
20
60
60
64
38
ENDCHAR
STARTCHAR 0130
ENCODING 304
SWIDTH 379 0
DWIDTH 11 0
BBX 8 27 2 0
BITMAP
18
1C
18
00
00
00
FF
1C
1C
1C
1C
1C
1C
1C
1C
1C
1C
1C
1C
1C
1C
1C
1C
1C
1C
1C
FF
ENDCHAR
STARTCHAR 0131
ENCODING 305
SWIDTH 275 0
DWIDTH 8 0
BBX 6 14 1 0
BITMAP
F8
38
38
38
38
38
38
38
38
38
38
38
38
FC
ENDCHAR
STARTCHAR 0132
ENCODING 306
SWIDTH 896 0
DWIDTH 26 0
BBX 23 21 2 0
BITMAP
FF03FE
1C0070
1C0070
1C0070
1C0070
1C0070
1C0070
1C0070
1C0070
1C0070
1C0070
1C0070
1C0070
1C0070
1C0070
1C3870
1C7870
1C7870
1C6060
1C2060
FF1FC0
ENDCHAR
STARTCHAR 0133
ENCODING 307
SWIDTH 517 0
DWIDTH 15 0
BBX 12 28 1 -7
BITMAP
7060
7070
7060
0000
0000
0000
0000
F1F0
7070
7070
7070
7070
7070
7070
7070
7070
7070
7070
7070
7070
FC70
0070
0070
0460
0E60
0C60
0CC0
0780
ENDCHAR
STARTCHAR 0134
ENCODING 308
SWIDTH 517 0
DWIDTH 15 0
BBX 13 28 1 0
BITMAP
0040
00C0
01E0
0130
0608
0000
0000
07F8
00E0
00E0
00E0
00E0
00E0
00E0
00E0
00E0
00E0
00E0
00E0
00E0
00E0
00E0
70E0
F0C0
F0C0
C0C0
4180
7F00
ENDCHAR
STARTCHAR 0135
ENCODING 309
SWIDTH 344 0
DWIDTH 10 0
BBX 10 27 -1 -7
BITMAP
0600
0600
0D00
1080
0040
0000
1F00
0700
0700
0700
0700
0700
0700
0700
0700
0700
0700
0700
0700
0700
0700
0700
4600
E600
C600
CC00
7800
ENDCHAR
STARTCHAR 0136
ENCODING 310
SWIDTH 758 0
DWIDTH 22 0
BBX 19 28 2 -7
BITMAP
FF1FE0
1C0700
1C0600
1C0C00
1C0800
1C1000
1C2000
1C4000
1CC000
1DE000
1E6000
1C7000
1C3000
1C3800
1C1800
1C1C00
1C0C00
1C0E00
1C0700
1C0700
FF3FE0
000000
00C000
00C000
00E000
004000
004000
008000
ENDCHAR
STARTCHAR 0137
ENCODING 311
SWIDTH 517 0
DWIDTH 15 0
BBX 13 28 1 -7
BITMAP
F800
3800
3800
3800
3800
3800
3800
39F8
38C0
3880
3900
3900
3A00
3F00
3F00
3B80
39C0
38C0
38E0
38E0
FDF8
0000
0300
0700
0300
0100
0200
0200
ENDCHAR
STARTCHAR 0138
ENCODING 312
SWIDTH 517 0
DWIDTH 15 0
BBX 13 14 1 0
BITMAP
F9F8
38C0
3880
3900
3900
3A00
3F00
3F00
3B80
39C0
38C0
38E0
38E0
FDF8
ENDCHAR
STARTCHAR 0139
ENCODING 313
SWIDTH 689 0
DWIDTH 20 0
BBX 16 28 2 0
BITMAP
0180
0380
0300
0600
0800
0000
0000
FF80
1C00
1C00
1C00
1C00
1C00
1C00
1C00
1C00
1C00
1C00
1C00
1C00
1C01
1C01
1C01
1C01
1C03
1C03
1C07
FFFF
ENDCHAR
STARTCHAR 013A
ENCODING 314
SWIDTH 275 0
DWIDTH 8 0
BBX 7 28 1 0
BITMAP
06
0E
0C
18
10
00
00
F8
38
38
38
38
38
38
38
38
38
38
38
38
38
38
38
38
38
38
38
FC
ENDCHAR
STARTCHAR 013B
ENCODING 315
SWIDTH 689 0
DWIDTH 20 0
BBX 16 28 2 -7
BITMAP
FF80
1C00
1C00
1C00
1C00
1C00
1C00
1C00
1C00
1C00
1C00
1C00
1C00
1C01
1C01
1C01
1C01
1C03
1C03
1C0F
FFFF
0000
0180
0180
01C0
0080
0080
0100
ENDCHAR
STARTCHAR 013C
ENCODING 316
SWIDTH 241 0
DWIDTH 7 0
BBX 6 28 1 -7
BITMAP
F0
70
70
70
70
70
70
70
70
70
70
70
70
70
70
70
70
70
70
70
FC
00
60
70
70
10
20
40
ENDCHAR
STARTCHAR 013D
ENCODING 317
SWIDTH 689 0
DWIDTH 20 0
BBX 17 21 2 0
BITMAP
FF8300
1C0380
1C0380
1C0080
1C0100
1C0100
1C0200
1C0000
1C0000
1C0000
1C0000
1C0000
1C0000
1C0100
1C0100
1C0100
1C0300
1C0300
1C0700
1C0F00
FFFF00
ENDCHAR
STARTCHAR 013E
ENCODING 318
SWIDTH 379 0
DWIDTH 11 0
BBX 9 21 1 0
BITMAP
FB00
3B80
3B80
3880
3900
3900
3A00
3800
3800
3800
3800
3800
3800
3800
3800
3800
3800
3800
3800
3800
FE00
ENDCHAR
STARTCHAR 013F
ENCODING 319
SWIDTH 689 0
DWIDTH 20 0
BBX 16 21 2 0
BITMAP
FF80
1C00
1C00
1C00
1C00
1C00
1C00
1C06
1C0E
1C06
1C00
1C00
1C01
1C01
1C01
1C01
1C03
1C03
1C07
1C0F
FFFF
ENDCHAR
STARTCHAR 0140
ENCODING 320
SWIDTH 379 0
DWIDTH 11 0
BBX 10 21 1 0
BITMAP
F800
3800
3800
3800
3800
3800
3800
3800
3980
39C0
3980
3800
3800
3800
3800
3800
3800
3800
3800
3800
FC00
ENDCHAR
STARTCHAR 0141
ENCODING 321
SWIDTH 689 0
DWIDTH 20 0
BBX 16 21 2 0
BITMAP
FF80
1C00
1C00
1C00
1C00
1C00
1C00
1CC0
1F00
1E00
1C00
7C00
5C00
1C01
1C01
1C01
1C01
1C03
1C03
1C0F
FFFF
ENDCHAR
STARTCHAR 0142
ENCODING 322
SWIDTH 310 0
DWIDTH 9 0
BBX 7 21 1 0
BITMAP
F8
38
38
38
38
38
38
38
3E
38
78
B8
38
38
38
38
38
38
38
38
FE
ENDCHAR
STARTCHAR 0143
ENCODING 323
SWIDTH 793 0
DWIDTH 23 0
BBX 20 28 2 0
BITMAP
000600
000E00
001C00
001800
002000
000000
000000
FC07F0
1C0080
1E0080
1F0080
170080
138080
13C080
11C080
10E080
10F080
107080
103880
103880
101C80
101E80
100E80
100780
100780
100380
100180
FE0180
ENDCHAR
STARTCHAR 0144
ENCODING 324
SWIDTH 551 0
DWIDTH 16 0
BBX 14 21 1 0
BITMAP
0060
0060
00C0
0080
0100
0000
0000
F9C0
3E60
3C70
3870
3870
3870
3870
3870
3870
3870
3870
3870
3870
FCFC
ENDCHAR
STARTCHAR 0145
ENCODING 325
SWIDTH 793 0
DWIDTH 23 0
BBX 20 28 2 -7
BITMAP
FC07F0
1C0180
1E0080
1F0080
170080
138080
13C080
11C080
10E080
10F080
107080
103880
103880
101C80
100E80
100E80
100780
100780
100380
100180
FE0180
000000
006000
006000
007000
002000
002000
004000
ENDCHAR
STARTCHAR 0146
ENCODING 326
SWIDTH 551 0
DWIDTH 16 0
BBX 14 21 1 -7
BITMAP
F9C0
3E60
3C70
3870
3870
3870
3870
3870
3870
3870
3870
3870
3870
FCFC
0000
0300
0300
0380
0100
0100
0200
ENDCHAR
STARTCHAR 0147
ENCODING 327
SWIDTH 793 0
DWIDTH 23 0
BBX 20 27 2 1
BITMAP
030600
019C00
00F800
007000
000000
000000
FC07F0
1C0080
1E0080
1F0080
170080
138080
13C080
11C080
10E080
10F080
107080
103880
103880
101C80
101E80
100E80
100780
100780
100380
100180
FE0180
ENDCHAR
STARTCHAR 0148
ENCODING 328
SWIDTH 551 0
DWIDTH 16 0
BBX 14 20 1 0
BITMAP
0020
0840
0480
0380
0300
0000
F9C0
3E60
3C70
3870
3870
3870
3870
3870
3870
3870
3870
3870
3870
FCFC
ENDCHAR
STARTCHAR 0149
ENCODING 329
SWIDTH 689 0
DWIDTH 20 0
BBX 18 21 1 0
BITMAP
C00000
E00000
E00000
200000
400000
400000
000000
0F3C00
074600
078700
078700
070700
070700
070700
070700
070700
070700
070700
070700
070700
0FCFC0
ENDCHAR
STARTCHAR 014A
ENCODING 330
SWIDTH 793 0
DWIDTH 23 0
BBX 20 28 2 -7
BITMAP
FC07F0
1C0080
1E0080
1F0080
170080
138080
13C080
11C080
10E080
10F080
107080
103880
103880
101C80
101E80
100E80
100780
100780
100380
100180
FE0180
000080
000080
000080
002080
003080
003100
001E00
ENDCHAR
STARTCHAR 014B
ENCODING 331
SWIDTH 517 0
DWIDTH 15 0
BBX 12 21 1 -7
BITMAP
F9C0
3E60
3C70
3870
3870
3870
3870
3870
3870
3870
3870
3870
3870
FC70
0070
0070
0070
0870
0C60
0C40
0780
ENDCHAR
STARTCHAR 014C
ENCODING 332
SWIDTH 689 0
DWIDTH 20 0
BBX 17 26 2 0
BITMAP
0FF000
000000
000000
000000
008000
077000
180800
100C00
300600
600600
600300
600300
E00300
E00300
E00300
E00380
E00380
E00300
E00300
600300
600300
600600
300600
100C00
180800
07F000
ENDCHAR
STARTCHAR 014D
ENCODING 333
SWIDTH 482 0
DWIDTH 14 0
BBX 12 19 1 0
BITMAP
3FC0
0000
0000
0000
0000
0F00
3080
60C0
6060
E060
E060
E070
E070
E060
E060
6060
60C0
3080
0F00
ENDCHAR
STARTCHAR 014E
ENCODING 334
SWIDTH 689 0
DWIDTH 20 0
BBX 17 28 2 0
BITMAP
080800
080800
0C1800
063000
03E000
000000
008000
077000
180800
100C00
300600
600600
600300
600300
E00300
E00300
E00300
E00380
E00380
E00300
E00300
600300
600300
600600
300600
100C00
180800
07F000
ENDCHAR
STARTCHAR 014F
ENCODING 335
SWIDTH 482 0
DWIDTH 14 0
BBX 12 21 1 0
BITMAP
0040
2040
2080
1080
0F00
0000
0000
0F00
3080
60C0
6060
E060
E060
E070
E070
E060
E060
6060
60C0
3080
0F00
ENDCHAR
STARTCHAR 0150
ENCODING 336
SWIDTH 689 0
DWIDTH 20 0
BBX 17 28 2 0
BITMAP
006600
00CE00
01DC00
031000
022000
000000
008000
077000
180800
100C00
300600
600600
600300
600300
E00300
E00300
E00300
E00380
E00380
E00300
E00300
600300
600300
600600
300600
100C00
180800
07F000
ENDCHAR
STARTCHAR 0151
ENCODING 337
SWIDTH 482 0
DWIDTH 14 0
BBX 12 21 1 0
BITMAP
0330
0770
0660
0CC0
0980
1100
0000
0F00
3080
60C0
6060
E060
E060
E070
E070
E060
E060
6060
60C0
3080
0F00
ENDCHAR
STARTCHAR 0152
ENCODING 338
SWIDTH 1034 0
DWIDTH 30 0
BBX 27 22 2 0
BITMAP
00800000
077FFFE0
080F00E0
100F0060
30070060
60070020
60070020
60070420
E0070400
E0070400
E0070C00
E007FC00
E0070C00
E0070400
E0070420
60070420
60070020
60070060
30070060
100F00E0
080F01E0
07FFFFE0
ENDCHAR
STARTCHAR 0153
ENCODING 339
SWIDTH 724 0
DWIDTH 21 0
BBX 19 14 1 0
BITMAP
1F0F00
31B180
60F0C0
60E0C0
E0E0E0
E0E0E0
E0FFE0
E0E000
E0E000
E0E020
60E040
60F040
319080
1F0F00
ENDCHAR
STARTCHAR 0154
ENCODING 340
SWIDTH 724 0
DWIDTH 21 0
BBX 18 28 2 1
BITMAP
003800
003000
006000
00C000
008000
000000
000000
FFF800
1C0E00
1C0600
1C0700
1C0700
1C0700
1C0700
1C0600
1C0C00
1FF000
1C1800
1C1800
1C0C00
1C0C00
1C0C00
1C0E00
1C0E40
1C0E40
1C0E40
1C0780
FF8380
ENDCHAR
STARTCHAR 0155
ENCODING 341
SWIDTH 413 0
DWIDTH 12 0
BBX 10 21 1 0
BITMAP
00C0
00C0
0180
0300
0200
0000
0000
F980
3A40
3CC0
3CC0
3800
3800
3800
3800
3800
3800
3800
3800
3800
FC00
ENDCHAR
STARTCHAR 0156
ENCODING 342
SWIDTH 724 0
DWIDTH 21 0
BBX 18 28 2 -7
BITMAP
FFF800
1C0E00
1C0600
1C0700
1C0700
1C0700
1C0700
1C0600
1C0C00
1FF000
1C3000
1C1800
1C1C00
1C0C00
1C0C00
1C0C00
1C0C40
1C0E40
1C0E40
1C0F80
FF8780
000000
00C000
00C000
00E000
004000
004000
008000
ENDCHAR
STARTCHAR 0157
ENCODING 343
SWIDTH 413 0
DWIDTH 12 0
BBX 10 21 1 -7
BITMAP
F380
7440
74C0
78C0
7800
7000
7000
7000
7000
7000
7000
7000
7000
FC00
0000
6000
7000
7000
1000
2000
4000
ENDCHAR
STARTCHAR 0158
ENCODING 344
SWIDTH 724 0
DWIDTH 21 0
BBX 18 28 2 0
BITMAP
100800
0C1000
066000
03C000
018000
000000
000000
FFF800
1C0E00
1C0600
1C0700
1C0700
1C0700
1C0700
1C0600
1C0C00
1FF000
1C1800
1C1800
1C0C00
1C0C00
1C0C00
1C0E00
1C0E40
1C0E40
1C0E40
1C0780
FF8380
ENDCHAR
STARTCHAR 0159
ENCODING 345
SWIDTH 413 0
DWIDTH 12 0
BBX 10 20 1 0
BITMAP
2000
1080
0900
0F00
0600
0000
F980
3A40
3CC0
3CC0
3800
3800
3800
3800
3800
3800
3800
3800
3800
FC00
ENDCHAR
STARTCHAR 015A
ENCODING 346
SWIDTH 620 0
DWIDTH 18 0
BBX 14 28 3 0
BITMAP
00C0
01C0
0180
0300
0200
0000
0000
3F90
60D0
C070
C030
C010
C010
E010
F010
7C00
3F80
1FE0
03F0
80F8
8038
801C
C00C
C00C
E00C
E008
9810
8EE0
ENDCHAR
STARTCHAR 015B
ENCODING 347
SWIDTH 448 0
DWIDTH 13 0
BBX 10 21 2 0
BITMAP
0180
0380
0700
0600
0800
0000
0000
3C80
C380
8180
8080
C080
F000
3E00
0F80
83C0
80C0
C040
C040
A080
9F00
ENDCHAR
STARTCHAR 015C
ENCODING 348
SWIDTH 620 0
DWIDTH 18 0
BBX 14 28 3 0
BITMAP
0400
0600
0F00
1900
20C0
0000
0000
3F90
60D0
C070
C030
C010
C010
E010
F010
7C00
3F80
1FE0
07F0
80F8
8038
801C
800C
C00C
E00C
E008
9010
8EE0
ENDCHAR
STARTCHAR 015D
ENCODING 349
SWIDTH 448 0
DWIDTH 13 0
BBX 10 21 2 0
BITMAP
0800
1800
1C00
3600
6200
8100
0000
3C80
C380
8180
8080
C080
F000
3E00
0F80
83C0
80C0
C040
C040
A080
9F00
ENDCHAR
STARTCHAR 015E
ENCODING 350
SWIDTH 620 0
DWIDTH 18 0
BBX 14 28 3 -6
BITMAP
3F90
60D0
C070
C030
C010
C010
E010
F010
7C00
3F80
1FE0
07F0
80F8
8038
801C
800C
C00C
E00C
E008
9010
8C60
0380
0200
0180
00C0
00E0
08C0
0780
ENDCHAR
STARTCHAR 015F
ENCODING 351
SWIDTH 448 0
DWIDTH 13 0
BBX 10 20 2 -6
BITMAP
3C80
C380
8180
8180
C080
F000
3E00
0F80
83C0
80C0
C040
C040
A080
9F00
0800
0C00
0200
0300
0300
3C00
ENDCHAR
STARTCHAR 0160
ENCODING 352
SWIDTH 620 0
DWIDTH 18 0
BBX 14 28 3 0
BITMAP
4000
20C0
1980
0F00
0600
0000
0000
3F90
60D0
C070
C030
C010
C010
E010
F010
7C00
3F80
1FE0
07F0
80F8
8038
801C
800C
C00C
E00C
E008
9010
8EE0
ENDCHAR
STARTCHAR 0161
ENCODING 353
SWIDTH 448 0
DWIDTH 13 0
BBX 10 20 2 0
BITMAP
4100
2200
3E00
1C00
0800
0000
3C80
C380
8180
8080
C080
F000
3E00
0F80
83C0
80C0
C040
C040
A080
9F00
ENDCHAR
STARTCHAR 0162
ENCODING 354
SWIDTH 724 0
DWIDTH 21 0
BBX 17 28 2 -7
BITMAP
FFFF80
E1C380
C1C180
C1C180
C1C080
81C080
81C080
81C080
01C000
01C000
01C000
01C000
01C000
01C000
01C000
01C000
01C000
01C000
01C000
01C000
0FF800
008000
008000
00E000
007000
007000
007000
03E000
ENDCHAR
STARTCHAR 0163
ENCODING 355
SWIDTH 344 0
DWIDTH 10 0
BBX 8 26 1 -6
BITMAP
10
10
10
10
30
30
FE
30
30
30
30
30
30
30
30
31
31
31
33
1E
08
1C
02
03
03
3E
ENDCHAR
STARTCHAR 0164
ENCODING 356
SWIDTH 724 0
DWIDTH 21 0
BBX 17 28 2 0
BITMAP
080800
041000
033000
01E000
00C000
000000
000000
FFFF80
E1C380
C1C180
C1C180
C1C080
81C080
81C080
81C080
01C000
01C000
01C000
01C000
01C000
01C000
01C000
01C000
01C000
01C000
01C000
01C000
0FF800
ENDCHAR
STARTCHAR 0165
ENCODING 357
SWIDTH 379 0
DWIDTH 11 0
BBX 9 21 1 0
BITMAP
0300
0380
1380
1080
1100
3200
3000
FE00
3000
3000
3000
3000
3000
3000
3000
3000
3100
3100
3100
3B00
1E00
ENDCHAR
STARTCHAR 0166
ENCODING 358
SWIDTH 724 0
DWIDTH 21 0
BBX 17 21 2 0
BITMAP
FFFF80
E1C380
C1C180
C1C180
C1C080
81C080
81C080
81C080
01C000
1FFE00
01C000
01C000
01C000
01C000
01C000
01C000
01C000
01C000
01C000
01C000
0FFC00
ENDCHAR
STARTCHAR 0167
ENCODING 359
SWIDTH 344 0
DWIDTH 10 0
BBX 8 20 1 0
BITMAP
10
10
10
10
30
30
FE
30
30
FE
30
30
30
30
30
31
31
31
3B
1E
ENDCHAR
STARTCHAR 0168
ENCODING 360
SWIDTH 793 0
DWIDTH 23 0
BBX 20 27 2 0
BITMAP
01E200
03FC00
021C00
000000
000000
000000
FF07F0
1C0080
1C0080
1C0080
1C0080
1C0080
1C0080
1C0080
1C0080
1C0080
1C0080
1C0080
1C0080
1C0080
1C0080
1C0080
1C0080
0C0080
0C0100
060200
03FC00
ENDCHAR
STARTCHAR 0169
ENCODING 361
SWIDTH 551 0
DWIDTH 16 0
BBX 14 20 1 0
BITMAP
0E20
1FC0
13C0
0000
0000
0000
F8F0
3870
3870
3870
3870
3870
3870
3870
3870
3870
3870
38F0
1970
0E7C
ENDCHAR
STARTCHAR 016A
ENCODING 362
SWIDTH 793 0
DWIDTH 23 0
BBX 20 26 2 0
BITMAP
01FE00
000000
000000
000000
000000
FF83F0
1C0080
1C0080
1C0080
1C0080
1C0080
1C0080
1C0080
1C0080
1C0080
1C0080
1C0080
1C0080
1C0080
1C0080
1C0080
1C0080
0C0080
0C0100
060200
03FC00
ENDCHAR
STARTCHAR 016B
ENCODING 363
SWIDTH 551 0
DWIDTH 16 0
BBX 14 19 1 0
BITMAP
1FE0
0000
0000
0000
0000
F8F0
3870
3870
3870
3870
3870
3870
3870
3870
3870
3870
38F0
1970
0E7C
ENDCHAR
STARTCHAR 016C
ENCODING 364
SWIDTH 793 0
DWIDTH 23 0
BBX 20 28 2 0
BITMAP
020200
020200
030600
018C00
00F800
000000
000000
FF03F0
1C0080
1C0080
1C0080
1C0080
1C0080
1C0080
1C0080
1C0080
1C0080
1C0080
1C0080
1C0080
1C0080
1C0080
1C0080
1C0080
0C0080
0C0100
060200
03FC00
ENDCHAR
STARTCHAR 016D
ENCODING 365
SWIDTH 551 0
DWIDTH 16 0
BBX 14 21 1 0
BITMAP
1020
1020
1040
0840
0780
0000
0000
F8F0
3870
3870
3870
3870
3870
3870
3870
3870
3870
3870
38F0
1970
0E7C
ENDCHAR
STARTCHAR 016E
ENCODING 366
SWIDTH 793 0
DWIDTH 23 0
BBX 20 29 2 0
BITMAP
003000
004800
008400
008400
008400
004800
003000
000000
FF83F0
1C0080
1C0080
1C0080
1C0080
1C0080
1C0080
1C0080
1C0080
1C0080
1C0080
1C0080
1C0080
1C0080
1C0080
1C0080
1C0080
0C0080
0C0100
060200
03FC00
ENDCHAR
STARTCHAR 016F
ENCODING 367
SWIDTH 551 0
DWIDTH 16 0
BBX 14 21 1 0
BITMAP
0780
0840
0840
0840
0CC0
0300
0000
F8F0
3830
3830
3830
3830
3830
3830
3830
3830
3830
3870
3870
18B0
0F3C
ENDCHAR
STARTCHAR 0170
ENCODING 368
SWIDTH 793 0
DWIDTH 23 0
BBX 20 28 2 0
BITMAP
001300
003300
006600
004400
008800
000000
000000
FF07F0
1C0080
1C0080
1C0080
1C0080
1C0080
1C0080
1C0080
1C0080
1C0080
1C0080
1C0080
1C0080
1C0080
1C0080
1C0080
1C0080
0C0080
0C0100
060200
03FC00
ENDCHAR
STARTCHAR 0171
ENCODING 369
SWIDTH 551 0
DWIDTH 16 0
BBX 14 21 1 0
BITMAP
0198
01B8
0330
0660
0480
0000
0000
F8F0
3870
3870
3870
3870
3870
3870
3870
3870
3870
3870
38F0
1970
0E7C
ENDCHAR
STARTCHAR 0172
ENCODING 370
SWIDTH 793 0
DWIDTH 23 0
BBX 20 28 2 -7
BITMAP
FF07F0
1C0080
1C0080
1C0080
1C0080
1C0080
1C0080
1C0080
1C0080
1C0080
1C0080
1C0080
1C0080
1C0080
1C0080
1C0080
1C0080
0C0080
0C0100
060300
038E00
007800
003000
006000
006000
00E000
006000
003C00
ENDCHAR
STARTCHAR 0173
ENCODING 371
SWIDTH 551 0
DWIDTH 16 0
BBX 14 21 1 -7
BITMAP
F8F0
3870
3870
3870
3870
3870
3870
3870
3870
3870
3870
38F0
1970
0E7C
0018
0030
0020
0060
0060
0064
0038
ENDCHAR
STARTCHAR 0174
ENCODING 372
SWIDTH 1103 0
DWIDTH 32 0
BBX 29 28 2 -1
BITMAP
00060000
00070000
00098000
00304000
00000000
00000000
FF3FE7F8
1C0700C0
1C070080
1C070080
0C078080
0E0F8180
0E0B8100
06098100
0709C300
0719C200
0711C200
0310E600
0390E400
03B0E400
01A06C00
01E07800
01E07800
01C07800
00C03000
00C03000
00C03000
00801000
ENDCHAR
STARTCHAR 0175
ENCODING 373
SWIDTH 758 0
DWIDTH 22 0
BBX 22 21 0 0
BITMAP
001000
003000
003800
004800
008400
000000
000000
FEFCFC
383820
183820
1C3820
0C3840
0C3C40
064C40
064C80
074680
038680
038700
018300
018300
010200
ENDCHAR
STARTCHAR 0176
ENCODING 374
SWIDTH 724 0
DWIDTH 21 0
BBX 19 28 1 0
BITMAP
002000
006000
00F000
009800
030400
000000
000000
FF8FE0
1E0380
0E0300
0E0200
070200
070400
038400
01C800
01C800
00F000
00F000
007000
007000
007000
007000
007000
007000
007000
007000
007000
07FE00
ENDCHAR
STARTCHAR 0177
ENCODING 375
SWIDTH 517 0
DWIDTH 15 0
BBX 15 27 0 -7
BITMAP
0180
0380
02C0
0420
0800
0000
FE7E
1810
1810
1C10
0C20
0C20
0E20
0640
0640
0640
0380
0380
0380
0180
0100
0100
0100
6200
7200
6400
3800
ENDCHAR
STARTCHAR 0178
ENCODING 376
SWIDTH 724 0
DWIDTH 21 0
BBX 19 27 1 0
BITMAP
030C00
038E00
030C00
000000
000000
000000
FF8FE0
1E0380
0E0300
0E0200
070200
070400
038400
01C800
01C800
00F000
00F000
007000
007000
007000
007000
007000
007000
007000
007000
007000
03FE00
ENDCHAR
STARTCHAR 0179
ENCODING 377
SWIDTH 655 0
DWIDTH 19 0
BBX 15 28 2 0
BITMAP
0010
0030
0070
0040
0080
0000
0000
3FFE
381E
701C
6038
4038
4070
40F0
00E0
01C0
01C0
0380
0780
0700
0E02
1E02
1C02
3C02
3806
7006
F00E
FFFE
ENDCHAR
STARTCHAR 017A
ENCODING 378
SWIDTH 448 0
DWIDTH 13 0
BBX 10 21 1 0
BITMAP
0080
0180
0300
0200
0400
0000
0000
FFC0
C1C0
8180
8300
8700
0600
0E00
1C00
1800
3840
3040
7040
E0C0
FFC0
ENDCHAR
STARTCHAR 017B
ENCODING 379
SWIDTH 655 0
DWIDTH 19 0
BBX 15 27 2 0
BITMAP
0180
01C0
0180
0000
0000
0000
3FFE
701E
601C
6038
4078
4070
40F0
00E0
01C0
03C0
0380
0780
0700
0E02
1E02
1C02
3802
3806
7006
F00E
FFFE
ENDCHAR
STARTCHAR 017C
ENCODING 380
SWIDTH 448 0
DWIDTH 13 0
BBX 10 19 1 0
BITMAP
0C00
0E00
0C00
0000
0000
FFC0
C1C0
8380
8380
8700
0600
0E00
1C00
1800
3840
3040
7040
E0C0
FFC0
ENDCHAR
STARTCHAR 017D
ENCODING 381
SWIDTH 655 0
DWIDTH 19 0
BBX 15 28 2 0
BITMAP
0808
0410
0360
01C0
01C0
0000
0000
3FFE
380E
701C
6038
4038
4070
40F0
00E0
01C0
01C0
0380
0780
0700
0E02
0E02
1C02
3C02
3806
7006
F00E
FFFE
ENDCHAR
STARTCHAR 017E
ENCODING 382
SWIDTH 448 0
DWIDTH 13 0
BBX 10 20 1 0
BITMAP
4080
2100
1B00
0E00
0C00
0000
FFC0
C1C0
8180
8300
8700
0600
0E00
1C00
1800
3840
3040
7040
E0C0
FFC0
ENDCHAR
STARTCHAR 017F
ENCODING 383
SWIDTH 344 0
DWIDTH 10 0
BBX 10 21 1 0
BITMAP
0700
1880
19C0
39C0
3880
3800
3800
3800
3800
3800
3800
3800
3800
3800
3800
3800
3800
3800
3800
3800
FE00
ENDCHAR
STARTCHAR 0180
ENCODING 384
SWIDTH 517 0
DWIDTH 15 0
BBX 13 21 1 0
BITMAP
F800
3800
3800
FF80
3800
3800
3800
3BC0
3C60
3830
3830
3830
3830
3838
3838
3830
3830
3830
3830
2460
23C0
ENDCHAR
STARTCHAR 0186
ENCODING 390
SWIDTH 655 0
DWIDTH 19 0
BBX 15 21 3 1
BITMAP
1FC0
2030
4010
4018
8008
800C
800C
800C
000C
000E
000E
000E
000C
800C
800C
C00C
C018
C018
E010
B020
8FC0
ENDCHAR
STARTCHAR 018E
ENCODING 398
SWIDTH 689 0
DWIDTH 20 0
BBX 16 21 2 0
BITMAP
FFFF
E01C
C01C
C01C
801C
801C
841C
041C
041C
061C
07FC
061C
041C
841C
841C
801C
801C
C01C
C01C
E01C
FFFF
ENDCHAR
STARTCHAR 018F
ENCODING 399
SWIDTH 655 0
DWIDTH 19 0
BBX 16 22 2 0
BITMAP
0100
0EE0
1010
2008
400C
400C
4006
8006
0006
0006
0007
FFFF
E007
E006
E006
E006
6006
600C
700C
3008
1810
0EE0
ENDCHAR
STARTCHAR 0190
ENCODING 400
SWIDTH 620 0
DWIDTH 18 0
BBX 15 21 2 1
BITMAP
1FC4
303C
601C
600C
E00C
600C
6004
7004
3800
0F80
3800
7000
6000
E01C
E01E
E01E
E00E
E00E
700C
3018
1FF0
ENDCHAR
STARTCHAR 0192
ENCODING 402
SWIDTH 586 0
DWIDTH 17 0
BBX 19 28 -2 -7
BITMAP
0003C0
000440
000CE0
0018C0
001800
001000
003000
01FE00
003000
006000
006000
006000
006000
00C000
00C000
00C000
00C000
018000
018000
018000
010000
030000
030000
020000
C60000
C40000
CC0000
700000
ENDCHAR
STARTCHAR 0195
ENCODING 405
SWIDTH 724 0
DWIDTH 21 0
BBX 18 21 1 0
BITMAP
F80000
380000
380000
380000
380000
380000
380000
39C180
3E6180
3C71C0
3871C0
3870C0
387040
387040
387040
387040
387040
387040
383080
383900
FC1E00
ENDCHAR
STARTCHAR 01A6
ENCODING 422
SWIDTH 758 0
DWIDTH 22 0
BBX 19 26 2 -5
BITMAP
FF8000
1C0000
1C0000
1FF000
1C0C00
1C0600
1C0700
1C0700
1C0700
1C0700
1C0700
1C0600
1C1C00
1FE000
1C1800
1C1C00
1C0C00
1C0C00
1C0E00
1C0E00
FF8E00
000E20
000E20
000E60
0007C0
000380
ENDCHAR
STARTCHAR 01B7
ENCODING 439
SWIDTH 620 0
DWIDTH 18 0
BBX 15 21 2 0
BITMAP
7FFC
7FFC
7FF8
6010
6020
4040
4080
0180
0300
07E0
0438
001C
000C
000C
780E
F80E
F80C
E00C
E018
6030
3FE0
ENDCHAR
STARTCHAR 01BF
ENCODING 447
SWIDTH 482 0
DWIDTH 14 0
BBX 12 21 1 -7
BITMAP
39E0
FE70
3C70
3870
3870
3870
3860
3860
38C0
3880
3900
3A00
3C00
3800
3800
3800
3800
3800
3800
7000
8000
ENDCHAR
STARTCHAR 01C4
ENCODING 452
SWIDTH 655 0
DWIDTH 19 0
BBX 38 28 2 0
BITMAP
0000000010
0000001820
0000000CC0
0000000780
0000000300
0000000000
0000000000
FFF800FFFC
1C0600E03C
1C0300C038
1C01808070
1C01808070
1C01C080E0
1C00C101C0
1C00C001C0
1C00C00380
1C00E00380
1C00E00700
1C00E00E00
1C00C00E00
1C00C01C04
1C00C03804
1C01C03804
1C01807004
1C0100700C
1C0300E01C
1C0601C03C
FFF801FFFC
ENDCHAR
STARTCHAR 01C5
ENCODING 453
SWIDTH 1241 0
DWIDTH 36 0
BBX 32 21 2 0
BITMAP
FFF80000
1C060002
1C0300C4
1C018068
1C018038
1C01C010
1C00C000
1C00C3FF
1C00C307
1C00E206
1C00E20C
1C00E21C
1C00C218
1C00C038
1C00C070
1C01C060
1C0180E1
1C0100C1
1C0301C1
1C060383
FFF803FF
ENDCHAR
STARTCHAR 01C6
ENCODING 454
SWIDTH 965 0
DWIDTH 28 0
BBX 25 21 1 0
BITMAP
03E00000
00E08100
00E04200
00E03600
00E01C00
00E01800
00E00000
1EE1FF80
31E18380
61E10300
60E10600
E0E10E00
E0E00C00
E0E01C00
E0E03800
E0E03000
E0E07080
60E06080
60E0E080
31E1C180
1EF9FF80
ENDCHAR
STARTCHAR 01C7
ENCODING 455
SWIDTH 1206 0
DWIDTH 35 0
BBX 32 21 2 0
BITMAP
FF8000FF
1C00001C
1C00001C
1C00001C
1C00001C
1C00001C
1C00001C
1C00001C
1C00001C
1C00001C
1C00001C
1C00001C
1C00001C
1C01001C
1C01001C
1C010E1C
1C011E18
1C031E18
1C031818
1C0F0830
FFFF0FE0
ENDCHAR
STARTCHAR 01C8
ENCODING 456
SWIDTH 1000 0
DWIDTH 29 0
BBX 25 28 2 -7
BITMAP
FF800300
1C000700
1C000300
1C000000
1C000000
1C000000
1C000000
1C001F80
1C000380
1C000380
1C000380
1C000380
1C000380
1C010380
1C010380
1C010380
1C030380
1C030380
1C070380
1C0F0380
FFFF0380
00000380
00000380
00004300
0000E300
0000E300
00004600
00003C00
ENDCHAR
STARTCHAR 01C9
ENCODING 457
SWIDTH 586 0
DWIDTH 17 0
BBX 14 28 1 -7
BITMAP
F818
3838
3818
3800
3800
3800
3800
387C
381C
381C
381C
381C
381C
381C
381C
381C
381C
381C
381C
381C
FC1C
001C
001C
0118
0398
0318
0330
01E0
ENDCHAR
STARTCHAR 01CA
ENCODING 458
SWIDTH 1310 0
DWIDTH 38 0
BBX 35 21 2 0
BITMAP
FC07F01FE0
1C00800380
1E00800380
1F00800380
1700800380
1380800380
13C0800380
11C0800380
10E0800380
10E0800380
1070800380
1038800380
1038800380
101C800380
101E800380
100E81C380
100783C300
100783C300
1003830300
1001810600
FE0181FC00
ENDCHAR
STARTCHAR 01CB
ENCODING 459
SWIDTH 1103 0
DWIDTH 32 0
BBX 27 28 2 -7
BITMAP
FC07F060
1C0080E0
1E008060
17008000
17008000
13808000
11C08000
11C083E0
10E080E0
10F080E0
107080E0
103880E0
103880E0
101C80E0
100E80E0
100E80E0
100780E0
100780E0
100380E0
100180E0
FE0180E0
000080E0
000000E0
000008E0
00001CE0
00001CC0
000008C0
00000700
ENDCHAR
STARTCHAR 01CC
ENCODING 460
SWIDTH 827 0
DWIDTH 24 0
BBX 21 28 1 -7
BITMAP
000030
000038
000030
000000
000000
000000
000000
F9C0F8
3E6038
3C7038
387038
387038
387038
387038
387038
387038
387038
387038
387038
387038
FCFC38
000038
000038
000238
000738
000730
000230
0001C0
ENDCHAR
STARTCHAR 01DD
ENCODING 477
SWIDTH 448 0
DWIDTH 13 0
BBX 11 14 1 0
BITMAP
1E00
2100
4180
80C0
80C0
00C0
00E0
FFE0
E0C0
E0C0
60C0
6180
3180
1E00
ENDCHAR
STARTCHAR 01E2
ENCODING 482
SWIDTH 1034 0
DWIDTH 30 0
BBX 27 26 1 0
BITMAP
0003FC00
00000000
00000000
00000000
00000000
003FFFE0
000F00E0
000F0060
001F0060
00170020
00370020
00270820
00670800
00470800
00C71800
0087F800
01071800
03070800
02070820
07FF0820
04070020
0C070020
08070060
18070060
380701E0
FF3FFFE0
ENDCHAR
STARTCHAR 01E3
ENCODING 483
SWIDTH 689 0
DWIDTH 20 0
BBX 18 19 1 0
BITMAP
07F800
000000
000000
000000
000000
1F1E00
61E300
41E300
61C180
71C180
01C180
0FFFC0
71C000
41C000
C1C080
C1C080
C2E080
C26100
3C3E00
ENDCHAR
STARTCHAR 01EA
ENCODING 490
SWIDTH 689 0
DWIDTH 20 0
BBX 17 29 2 -7
BITMAP
008000
077000
180800
100C00
300600
600600
600300
600300
E00300
E00300
E00300
E00380
E00380
E00300
E00300
600300
600700
600600
300600
100C00
081800
07F000
008000
030000
060000
060000
0E0000
074000
038000
ENDCHAR
STARTCHAR 01EB
ENCODING 491
SWIDTH 482 0
DWIDTH 14 0
BBX 12 21 1 -7
BITMAP
0F00
3080
60C0
6060
E060
E060
E070
E070
E060
E060
6060
60E0
20C0
1180
0E00
0800
1000
3000
3000
3A00
1C00
ENDCHAR
STARTCHAR 01EC
ENCODING 492
SWIDTH 689 0
DWIDTH 20 0
BBX 17 33 2 -7
BITMAP
0FF000
000000
000000
000000
008000
077000
180800
100C00
300600
600600
600300
600300
E00300
E00300
E00300
E00380
E00380
E00300
E00300
600300
600700
600600
300600
100C00
081800
07F000
008000
030000
060000
060000
0E0000
074000
038000
ENDCHAR
STARTCHAR 01ED
ENCODING 493
SWIDTH 482 0
DWIDTH 14 0
BBX 12 25 1 -7
BITMAP
3FC0
0000
0000
0000
0F00
3080
60C0
6060
E060
E060
E070
E070
E060
E060
6060
60E0
20C0
1180
0E00
0800
1000
3000
3000
3A00
1C00
ENDCHAR
STARTCHAR 01F0
ENCODING 496
SWIDTH 344 0
DWIDTH 10 0
BBX 10 27 -1 -7
BITMAP
1040
1980
0F00
0700
0600
0000
1F00
0700
0700
0700
0700
0700
0700
0700
0700
0700
0700
0700
0700
0700
0700
0700
4600
E600
C600
CC00
7800
ENDCHAR
STARTCHAR 01F1
ENCODING 497
SWIDTH 1448 0
DWIDTH 42 0
BBX 38 21 2 0
BITMAP
FFF800FFFC
1C0600E03C
1C0300C038
1C01808070
1C01808070
1C01C080E0
1C00C101C0
1C00C001C0
1C00C00380
1C00E00380
1C00E00700
1C00E00E00
1C00C00E00
1C00C01C04
1C00C03804
1C01C03804
1C01807004
1C0100700C
1C0300E01C
1C0601C03C
FFF801FFFC
ENDCHAR
STARTCHAR 01F2
ENCODING 498
SWIDTH 1241 0
DWIDTH 36 0
BBX 32 21 2 0
BITMAP
FFF80000
1C060000
1C030000
1C018000
1C018000
1C01C000
1C00C000
1C00C3FF
1C00C307
1C00E206
1C00E20C
1C00E21C
1C00C218
1C00C038
1C00C070
1C01C060
1C0180E1
1C0100C1
1C0301C1
1C060383
FFF803FF
ENDCHAR
STARTCHAR 01F3
ENCODING 499
SWIDTH 965 0
DWIDTH 28 0
BBX 25 21 1 0
BITMAP
03E00000
00E00000
00E00000
00E00000
00E00000
00E00000
00E00000
1EE1FF80
31E18380
61E10300
60E10600
E0E10E00
E0E00C00
E0E01C00
E0E03800
E0E03000
E0E07080
60E06080
60E0E080
31E1C180
1EF9FF80
ENDCHAR
STARTCHAR 01F4
ENCODING 500
SWIDTH 724 0
DWIDTH 21 0
BBX 18 28 2 0
BITMAP
003000
003000
006000
00C000
008000
000000
000000
0FE200
181A00
300E00
200E00
600600
600600
E00200
E00200
E00000
E00000
E07FC0
E00E00
E00E00
E00E00
E00E00
600E00
600E00
200E00
301A00
103200
0FE200
ENDCHAR
STARTCHAR 01F5
ENCODING 501
SWIDTH 551 0
DWIDTH 16 0
BBX 14 28 2 -7
BITMAP
00C0
00C0
0180
0300
0200
0400
0000
1F38
71C8
60DC
E0F8
E0E0
E0E0
E0E0
60C0
3180
1F00
6000
8000
E000
7FE0
3870
4010
8010
8010
8030
4060
3F80
ENDCHAR
STARTCHAR 01F6
ENCODING 502
SWIDTH 965 0
DWIDTH 28 0
BBX 25 21 2 0
BITMAP
FF0FF000
1C038000
1C038000
1C038000
1C038000
1C038000
1C038000
1C038000
1C038000
1FFF8600
1C038700
1C038780
1C038380
1C038180
1C038080
1C038080
1C038080
1C018080
1C018100
1C01C200
FF00FC00
ENDCHAR
STARTCHAR 01F7
ENCODING 503
SWIDTH 655 0
DWIDTH 19 0
BBX 15 26 3 -4
BITMAP
38F0
F9F8
3F7C
381C
381C
380E
380E
380C
380C
380C
380C
3818
3818
3810
3830
3860
3880
3B00
3C00
3800
3800
3800
3800
3800
3000
C000
ENDCHAR
STARTCHAR 01FA
ENCODING 506
SWIDTH 758 0
DWIDTH 22 0
BBX 21 28 1 1
BITMAP
001800
002000
007000
008800
008800
007000
000000
002000
002000
007000
007000
007000
00F800
00B800
019800
019C00
011C00
031C00
020E00
020E00
060E00
07FF00
040700
0C0700
080380
080380
180380
FF1FF8
ENDCHAR
STARTCHAR 01FB
ENCODING 507
SWIDTH 517 0
DWIDTH 15 0
BBX 13 26 1 1
BITMAP
01C0
0380
0300
0400
0000
0E00
1300
2100
2100
1300
0E00
0000
1E00
2180
6180
6180
71C0
01C0
0FC0
71C0
61C0
E1C0
E1C8
E3C8
E5D8
78F0
ENDCHAR
STARTCHAR 01FC
ENCODING 508
SWIDTH 1034 0
DWIDTH 30 0
BBX 27 28 1 0
BITMAP
00000C00
00001C00
00001800
00003000
00006000
00000000
00000000
003FFFE0
000F00E0
000F0060
001F0060
00170020
00370020
00270820
00670800
00470800
00C71800
0087F800
01071800
03070800
02070820
07FF0820
04070020
0C070020
08070060
18070060
380701E0
FF3FFFE0
ENDCHAR
STARTCHAR 01FD
ENCODING 509
SWIDTH 689 0
DWIDTH 20 0
BBX 18 21 1 0
BITMAP
001800
001800
003000
006000
004000
008000
000000
1F1E00
61E300
41E300
61C180
71C180
01C180
0FFFC0
71C000
41C000
C1C080
C1C080
C2E080
C26100
3C3E00
ENDCHAR
STARTCHAR 01FE
ENCODING 510
SWIDTH 689 0
DWIDTH 20 0
BBX 17 28 2 0
BITMAP
001800
003800
003000
006000
008000
000000
000000
07F100
080F00
100E00
300600
600E00
601B00
601300
E02300
E06300
E0C380
E18380
E10300
E20300
E60300
EC0300
680300
700600
700600
700C00
580800
8FF000
ENDCHAR
STARTCHAR 01FF
ENCODING 511
SWIDTH 482 0
DWIDTH 14 0
BBX 12 21 1 0
BITMAP
00C0
01C0
0180
0300
0200
0400
0000
0F20
30A0
60C0
60E0
E160
E360
E270
E470
E860
F060
6060
60C0
7080
8F00
ENDCHAR
STARTCHAR 0200
ENCODING 512
SWIDTH 758 0
DWIDTH 22 0
BBX 20 28 1 0
BITMAP
0CC000
0EE000
066000
033000
019000
000000
000000
002000
006000
006000
007000
00F000
00B000
00B800
01B800
013800
031C00
031C00
021C00
060E00
060E00
07FE00
0C0700
0C0700
080700
180380
180380
FF1FF0
ENDCHAR
STARTCHAR 0201
ENCODING 513
SWIDTH 551 0
DWIDTH 16 0
BBX 14 21 1 0
BITMAP
CC00
E600
6600
3300
1900
0080
0000
0F80
10C0
30E0
38E0
38E0
00E0
07E0
18E0
30E0
70E0
70E4
70E4
716C
1E78
ENDCHAR
STARTCHAR 0202
ENCODING 514
SWIDTH 758 0
DWIDTH 22 0
BBX 20 28 1 0
BITMAP
006000
00F000
018800
030400
020400
000000
000000
002000
006000
006000
007000
00F000
00F000
00B800
013800
013800
031C00
031C00
021C00
060E00
060E00
07FE00
0C0700
0C0700
080700
180380
180380
FF1FF0
ENDCHAR
STARTCHAR 0203
ENCODING 515
SWIDTH 517 0
DWIDTH 15 0
BBX 13 21 1 0
BITMAP
0C00
1F00
1100
2080
2080
0000
0000
1F00
2180
61C0
71C0
71C0
01C0
0FC0
31C0
61C0
E1C0
E1C8
E1C8
E2D8
3CF0
ENDCHAR
STARTCHAR 0204
ENCODING 516
SWIDTH 689 0
DWIDTH 20 0
BBX 17 28 2 0
BITMAP
198000
1DC000
0CC000
066000
021000
000000
000000
FFFF80
1C0380
1C0180
1C0180
1C0100
1C0080
1C1080
1C1000
1C1000
1C3000
1FF000
1C3000
1C1000
1C1080
1C1080
1C0080
1C0180
1C0180
1C0380
1C0780
FFFF80
ENDCHAR
STARTCHAR 0205
ENCODING 517
SWIDTH 448 0
DWIDTH 13 0
BBX 10 21 1 0
BITMAP
8800
CC00
EE00
2600
1100
0000
0000
1E00
3180
6180
60C0
E0C0
E0C0
FFC0
E000
E000
E040
6040
6040
3080
1F00
ENDCHAR
STARTCHAR 0206
ENCODING 518
SWIDTH 689 0
DWIDTH 20 0
BBX 17 28 2 0
BITMAP
00C000
03E000
023000
041800
040800
000000
000000
FFFF80
1C0380
1C0380
1C0180
1C0180
1C0080
1C2080
1C2000
1C2000
1C6000
1FE000
1C6000
1C2000
1C2080
1C2080
1C0080
1C0180
1C0180
1C0380
1C0780
FFFF80
ENDCHAR
STARTCHAR 0207
ENCODING 519
SWIDTH 448 0
DWIDTH 13 0
BBX 10 21 1 0
BITMAP
0600
1F00
1100
2080
2080
0000
0000
1E00
3180
6180
60C0
E0C0
E0C0
FFC0
E000
E000
E040
6040
6040
3080
1F00
ENDCHAR
STARTCHAR 0208
ENCODING 520
SWIDTH 413 0
DWIDTH 12 0
BBX 10 28 0 0
BITMAP
CC00
EE00
6600
3300
0980
0000
0000
3FC0
0700
0700
0700
0700
0700
0700
0700
0700
0700
0700
0700
0700
0700
0700
0700
0700
0700
0700
0700
3FC0
ENDCHAR
STARTCHAR 0209
ENCODING 521
SWIDTH 275 0
DWIDTH 8 0
BBX 9 21 -2 0
BITMAP
CC00
EE00
6600
3300
1080
0000
0000
1F00
0700
0700
0700
0700
0700
0700
0700
0700
0700
0700
0700
0700
1F80
ENDCHAR
STARTCHAR 020A
ENCODING 522
SWIDTH 413 0
DWIDTH 12 0
BBX 8 28 2 0
BITMAP
18
3E
62
41
81
00
00
FF
1C
1C
1C
1C
1C
1C
1C
1C
1C
1C
1C
1C
1C
1C
1C
1C
1C
1C
1C
FF
ENDCHAR
STARTCHAR 020B
ENCODING 523
SWIDTH 275 0
DWIDTH 8 0
BBX 8 20 0 0
BITMAP
1C
3E
43
81
00
00
7C
1C
1C
1C
1C
1C
1C
1C
1C
1C
1C
1C
1C
7E
ENDCHAR
STARTCHAR 020C
ENCODING 524
SWIDTH 689 0
DWIDTH 20 0
BBX 17 28 2 0
BITMAP
330000
3B8000
198000
0CC000
062000
000000
008000
077000
180800
100C00
300600
600600
600300
600300
E00300
E00300
E00300
E00380
E00380
E00300
E00300
600300
600300
600600
300600
100C00
180800
07F000
ENDCHAR
STARTCHAR 020D
ENCODING 525
SWIDTH 517 0
DWIDTH 15 0
BBX 12 21 2 0
BITMAP
8800
CC00
EE00
2200
1100
0000
0000
0F00
3080
60C0
6060
E060
E060
E070
E070
E060
E060
6060
60C0
3080
0F00
ENDCHAR
STARTCHAR 020E
ENCODING 526
SWIDTH 689 0
DWIDTH 20 0
BBX 17 28 2 0
BITMAP
018000
03E000
063000
0C1000
080800
000000
008000
077000
180800
100C00
300600
600600
600300
600300
E00300
E00300
E00300
E00380
E00380
E00300
E00300
600300
600300
600600
300600
100C00
180800
07F000
ENDCHAR
STARTCHAR 020F
ENCODING 527
SWIDTH 482 0
DWIDTH 14 0
BBX 12 21 1 0
BITMAP
0600
0F00
1180
2080
2080
0000
0000
0F00
3080
60C0
6060
E060
E060
E070
E070
E060
E060
6060
60C0
3080
0F00
ENDCHAR
STARTCHAR 0210
ENCODING 528
SWIDTH 689 0
DWIDTH 20 0
BBX 18 29 1 0
BITMAP
020000
330000
3B8000
198000
0CC000
042000
000000
000000
FFF800
1C0E00
1C0600
1C0700
1C0700
1C0700
1C0700
1C0600
1C0C00
1FF000
1C1800
1C1800
1C0C00
1C0C00
1C0C00
1C0E00
1C0E40
1C0E40
1C0E40
1C0780
FF8380
ENDCHAR
STARTCHAR 0211
ENCODING 529
SWIDTH 413 0
DWIDTH 12 0
BBX 10 21 1 0
BITMAP
CC00
EC00
6600
3200
1100
0800
0000
F980
3A40
3CC0
3CC0
3800
3800
3800
3800
3800
3800
3800
3800
3800
FC00
ENDCHAR
STARTCHAR 0212
ENCODING 530
SWIDTH 724 0
DWIDTH 21 0
BBX 18 28 2 0
BITMAP
01C000
07E000
043000
081000
081000
000000
000000
FFF800
1C0E00
1C0600
1C0700
1C0700
1C0700
1C0700
1C0600
1C0C00
1FF000
1C1800
1C1800
1C0C00
1C0C00
1C0C00
1C0E00
1C0E40
1C0E40
1C0E40
1C0780
FF8380
ENDCHAR
STARTCHAR 0213
ENCODING 531
SWIDTH 413 0
DWIDTH 12 0
BBX 10 20 1 0
BITMAP
0E00
1F00
1080
2080
2000
0000
F980
3A40
3CC0
3CC0
3800
3800
3800
3800
3800
3800
3800
3800
3800
FC00
ENDCHAR
STARTCHAR 0214
ENCODING 532
SWIDTH 793 0
DWIDTH 23 0
BBX 20 28 2 0
BITMAP
0CC000
0EE000
066000
033000
009800
000000
000000
FF07F0
1C0080
1C0080
1C0080
1C0080
1C0080
1C0080
1C0080
1C0080
1C0080
1C0080
1C0080
1C0080
1C0080
1C0080
1C0080
1C0080
0C0080
0C0100
060200
03FC00
ENDCHAR
STARTCHAR 0215
ENCODING 533
SWIDTH 551 0
DWIDTH 16 0
BBX 14 21 1 0
BITMAP
4600
6600
3300
1900
0880
0000
0000
F8F0
3870
3870
3870
3870
3870
3870
3870
3870
3870
3870
38F0
1970
0E7C
ENDCHAR
STARTCHAR 0216
ENCODING 534
SWIDTH 793 0
DWIDTH 23 0
BBX 20 28 2 0
BITMAP
006000
00F800
018800
010400
020400
000000
000000
FF07F0
1C0080
1C0080
1C0080
1C0080
1C0080
1C0080
1C0080
1C0080
1C0080
1C0080
1C0080
1C0080
1C0080
1C0080
1C0080
1C0080
0C0080
0C0100
060200
03FC00
ENDCHAR
STARTCHAR 0217
ENCODING 535
SWIDTH 551 0
DWIDTH 16 0
BBX 14 21 1 0
BITMAP
0300
0780
08C0
0840
1040
0000
0000
F8F0
3870
3870
3870
3870
3870
3870
3870
3870
3870
3870
38F0
1970
0E7C
ENDCHAR
STARTCHAR 0218
ENCODING 536
SWIDTH 620 0
DWIDTH 18 0
BBX 14 28 3 -6
BITMAP
3F90
60D0
C070
C030
C010
C010
E010
F010
7C00
3F80
1FE0
07F0
80F8
8038
801C
800C
C00C
E00C
E008
9010
8C60
0380
0300
0300
0380
0100
0100
0200
ENDCHAR
STARTCHAR 0219
ENCODING 537
SWIDTH 448 0
DWIDTH 13 0
BBX 10 21 2 -7
BITMAP
3C80
C380
8180
8080
C080
F000
3E00
0F80
83C0
80C0
C040
C040
A080
9F00
0000
0C00
0C00
0E00
0400
0400
0800
ENDCHAR
STARTCHAR 021A
ENCODING 538
SWIDTH 724 0
DWIDTH 21 0
BBX 17 28 2 -7
BITMAP
FFFF80
E1C380
C1C180
C1C180
C1C080
81C080
81C080
81C080
01C000
01C000
01C000
01C000
01C000
01C000
01C000
01C000
01C000
01C000
01C000
01C000
0FF800
000000
00C000
01C000
00C000
004000
008000
008000
ENDCHAR
STARTCHAR 021B
ENCODING 539
SWIDTH 344 0
DWIDTH 10 0
BBX 8 27 1 -7
BITMAP
10
10
10
10
30
30
FE
30
30
30
30
30
30
30
30
31
31
31
3B
1E
00
18
18
1C
08
08
10
ENDCHAR
STARTCHAR 021C
ENCODING 540
SWIDTH 482 0
DWIDTH 14 0
BBX 12 27 1 -5
BITMAP
0FC0
1FE0
39E0
20E0
4070
0060
0060
00C0
0180
0300
0700
0FC0
3FE0
60E0
0070
0070
0060
0060
0060
00C0
00C0
0180
0300
0E00
1800
6000
8000
ENDCHAR
STARTCHAR 021D
ENCODING 541
SWIDTH 413 0
DWIDTH 12 0
BBX 10 21 1 -7
BITMAP
0F00
3F80
6380
41C0
0180
0180
0300
0600
0E00
1F80
6380
41C0
0180
0180
0180
0300
0700
0600
1C00
3000
C000
ENDCHAR
STARTCHAR 0224
ENCODING 548
SWIDTH 586 0
DWIDTH 17 0
BBX 15 28 2 -7
BITMAP
7FFC
701C
6038
4030
C070
80E0
80E0
01C0
01C0
0380
0700
0700
0E00
0E00
1C00
3800
3800
7000
7000
E000
FFF8
003C
000C
000E
000C
001C
0030
00C0
ENDCHAR
STARTCHAR 0225
ENCODING 549
SWIDTH 413 0
DWIDTH 12 0
BBX 11 19 1 -5
BITMAP
FFC0
C1C0
8380
8300
8700
0600
0E00
1C00
1800
3800
3000
6000
E000
FF80
01C0
00E0
00C0
0180
0700
ENDCHAR
STARTCHAR 0228
ENCODING 552
SWIDTH 689 0
DWIDTH 20 0
BBX 17 28 2 -7
BITMAP
FFFF80
1C0380
1C0380
1C0180
1C0180
1C0080
1C2080
1C2000
1C2000
1C6000
1FE000
1C6000
1C2000
1C2080
1C2080
1C0080
1C0180
1C0180
1C0380
1C0780
FFFF80
008000
008000
006000
003000
003800
023000
01E000
ENDCHAR
STARTCHAR 0229
ENCODING 553
SWIDTH 448 0
DWIDTH 13 0
BBX 10 20 1 -6
BITMAP
1E00
3180
6180
61C0
E0C0
E0C0
FFC0
E000
E000
E040
6040
6080
3080
1F00
0800
0C00
0300
0300
0300
1E00
ENDCHAR
STARTCHAR 0232
ENCODING 562
SWIDTH 689 0
DWIDTH 20 0
BBX 19 26 1 0
BITMAP
03FC00
000000
000000
000000
000000
FF9FE0
1C0300
1C0200
0E0200
0E0400
070400
078800
038800
01D000
01D000
00E000
00E000
00E000
00E000
00E000
00E000
00E000
00E000
00E000
00E000
07FE00
ENDCHAR
STARTCHAR 0233
ENCODING 563
SWIDTH 551 0
DWIDTH 16 0
BBX 15 25 0 -7
BITMAP
0FF0
0000
0000
0000
FE7E
1818
1810
1C10
0C10
0C20
0E20
0620
0640
0740
0340
0380
0380
0180
0100
0100
0100
6300
7200
6600
3C00
ENDCHAR
STARTCHAR 0237
ENCODING 567
SWIDTH 344 0
DWIDTH 10 0
BBX 8 21 -1 -7
BITMAP
1F
07
07
07
07
07
07
07
07
07
07
07
07
07
07
07
46
E6
C6
CC
78
ENDCHAR
STARTCHAR 0243
ENCODING 579
SWIDTH 689 0
DWIDTH 20 0
BBX 16 21 2 0
BITMAP
FFF0
1C0C
1C06
1C07
1C07
1C07
1C07
1C06
1C0C
1FF0
1C0C
1C06
1C07
1C07
FF87
1C07
1C07
1C07
1C06
1C0C
FFF8
ENDCHAR
STARTCHAR 0254
ENCODING 596
SWIDTH 413 0
DWIDTH 12 0
BBX 10 14 1 0
BITMAP
1E00
6300
4180
8180
81C0
01C0
01C0
01C0
41C0
E1C0
E180
C180
4300
3E00
ENDCHAR
STARTCHAR 0259
ENCODING 601
SWIDTH 448 0
DWIDTH 13 0
BBX 11 14 1 0
BITMAP
1E00
2100
4180
80C0
80C0
00C0
00E0
FFE0
E0C0
E0C0
60C0
6180
3180
1E00
ENDCHAR
STARTCHAR 025B
ENCODING 603
SWIDTH 448 0
DWIDTH 13 0
BBX 11 14 1 0
BITMAP
1F00
60C0
E0C0
E0E0
E000
6000
1E00
6000
E0C0
E0C0
E060
E040
7040
3F80
ENDCHAR
STARTCHAR 0280
ENCODING 640
SWIDTH 551 0
DWIDTH 16 0
BBX 14 14 1 0
BITMAP
FF80
38C0
38E0
38E0
38E0
38C0
3F00
38C0
38C0
38E0
38E4
38E4
3864
FC38
ENDCHAR
STARTCHAR 0292
ENCODING 658
SWIDTH 482 0
DWIDTH 14 0
BBX 12 21 1 -7
BITMAP
7FE0
7FC0
6080
4080
8100
0200
0400
0400
0800
1F00
31C0
00E0
0060
0060
0070
E070
E060
C060
C0C0
41C0
3F00
ENDCHAR
STARTCHAR 02BB
ENCODING 699
SWIDTH 172 0
DWIDTH 5 0
BBX 3 7 1 15
BITMAP
20
40
80
80
E0
E0
60
ENDCHAR
STARTCHAR 02BC
ENCODING 700
SWIDTH 172 0
DWIDTH 5 0
BBX 3 7 1 14
BITMAP
C0
E0
E0
20
20
40
80
ENDCHAR
STARTCHAR 02BD
ENCODING 701
SWIDTH 172 0
DWIDTH 5 0
BBX 3 7 1 14
BITMAP
60
E0
E0
80
80
40
20
ENDCHAR
STARTCHAR 02BE
ENCODING 702
SWIDTH 206 0
DWIDTH 6 0
BBX 3 7 2 14
BITMAP
80
40
20
20
20
40
80
ENDCHAR
STARTCHAR 02BF
ENCODING 703
SWIDTH 206 0
DWIDTH 6 0
BBX 3 7 1 14
BITMAP
20
40
80
80
80
40
20
ENDCHAR
STARTCHAR 02C6
ENCODING 710
SWIDTH 448 0
DWIDTH 13 0
BBX 7 5 3 15
BITMAP
10
38
28
44
82
ENDCHAR
STARTCHAR 02C7
ENCODING 711
SWIDTH 448 0
DWIDTH 13 0
BBX 7 5 3 15
BITMAP
02
C4
6C
38
30
ENDCHAR
STARTCHAR 02C9
ENCODING 713
SWIDTH 482 0
DWIDTH 14 0
BBX 8 1 3 17
BITMAP
FF
ENDCHAR
STARTCHAR 02CA
ENCODING 714
SWIDTH 448 0
DWIDTH 13 0
BBX 5 5 6 16
BITMAP
18
38
30
60
80
ENDCHAR
STARTCHAR 02CB
ENCODING 715
SWIDTH 448 0
DWIDTH 13 0
BBX 5 5 2 16
BITMAP
C0
E0
60
30
08
ENDCHAR
STARTCHAR 02D8
ENCODING 728
SWIDTH 413 0
DWIDTH 12 0
BBX 8 4 2 16
BITMAP
81
81
42
3C
ENDCHAR
STARTCHAR 02D9
ENCODING 729
SWIDTH 413 0
DWIDTH 12 0
BBX 3 3 5 16
BITMAP
C0
E0
C0
ENDCHAR
STARTCHAR 02DA
ENCODING 730
SWIDTH 482 0
DWIDTH 14 0
BBX 6 6 4 15
BITMAP
78
84
84
84
CC
30
ENDCHAR
STARTCHAR 02DB
ENCODING 731
SWIDTH 448 0
DWIDTH 13 0
BBX 5 6 3 -7
BITMAP
10
60
C0
C0
C0
78
ENDCHAR
STARTCHAR 02DC
ENCODING 732
SWIDTH 413 0
DWIDTH 12 0
BBX 8 3 2 17
BITMAP
71
FF
8E
ENDCHAR
STARTCHAR 02DD
ENCODING 733
SWIDTH 482 0
DWIDTH 14 0
BBX 9 5 4 16
BITMAP
1980
3B80
3300
6600
8800
ENDCHAR
STARTCHAR 0300
ENCODING 768
SWIDTH 0 0
DWIDTH 0 0
BBX 5 5 -12 16
BITMAP
C0
E0
60
30
08
ENDCHAR
STARTCHAR 0301
ENCODING 769
SWIDTH 0 0
DWIDTH 0 0
BBX 5 5 -8 16
BITMAP
18
38
30
60
80
ENDCHAR
STARTCHAR 0302
ENCODING 770
SWIDTH 0 0
DWIDTH 0 0
BBX 7 5 -11 15
BITMAP
10
38
28
44
82
ENDCHAR
STARTCHAR 0303
ENCODING 771
SWIDTH 0 0
DWIDTH 0 0
BBX 8 3 -11 17
BITMAP
71
FF
8E
ENDCHAR
STARTCHAR 0304
ENCODING 772
SWIDTH 0 0
DWIDTH 0 0
BBX 8 1 -11 17
BITMAP
FF
ENDCHAR
STARTCHAR 0305
ENCODING 773
SWIDTH 0 0
DWIDTH 0 0
BBX 15 1 -15 25
BITMAP
FFFE
ENDCHAR
STARTCHAR 0306
ENCODING 774
SWIDTH 0 0
DWIDTH 0 0
BBX 8 4 -11 16
BITMAP
81
81
42
3C
ENDCHAR
STARTCHAR 0307
ENCODING 775
SWIDTH 0 0
DWIDTH 0 0
BBX 3 3 -9 16
BITMAP
C0
E0
C0
ENDCHAR
STARTCHAR 0308
ENCODING 776
SWIDTH 0 0
DWIDTH 0 0
BBX 8 3 -12 16
BITMAP
C3
E7
C3
ENDCHAR
STARTCHAR 030A
ENCODING 778
SWIDTH 0 0
DWIDTH 0 0
BBX 6 6 -10 15
BITMAP
78
84
84
84
CC
30
ENDCHAR
STARTCHAR 030B
ENCODING 779
SWIDTH 0 0
DWIDTH 0 0
BBX 9 5 -10 16
BITMAP
1980
3B80
3300
6600
8800
ENDCHAR
STARTCHAR 030C
ENCODING 780
SWIDTH 0 0
DWIDTH 0 0
BBX 7 5 -11 15
BITMAP
02
C4
6C
38
30
ENDCHAR
STARTCHAR 030F
ENCODING 783
SWIDTH 0 0
DWIDTH 0 0
BBX 9 5 -14 16
BITMAP
CC00
EE00
6600
3300
0880
ENDCHAR
STARTCHAR 0311
ENCODING 785
SWIDTH 0 0
DWIDTH 0 0
BBX 7 4 -11 15
BITMAP
38
7C
C4
82
ENDCHAR
STARTCHAR 0312
ENCODING 786
SWIDTH 0 0
DWIDTH 0 0
BBX 3 7 -9 15
BITMAP
20
40
80
80
E0
E0
60
ENDCHAR
STARTCHAR 0313
ENCODING 787
SWIDTH 0 0
DWIDTH 0 0
BBX 3 7 -9 14
BITMAP
C0
E0
E0
20
20
40
80
ENDCHAR
STARTCHAR 0314
ENCODING 788
SWIDTH 0 0
DWIDTH 0 0
BBX 3 7 -9 14
BITMAP
60
E0
E0
80
80
40
20
ENDCHAR
STARTCHAR 0316
ENCODING 790
SWIDTH 0 0
DWIDTH 0 0
BBX 5 5 -12 -7
BITMAP
C0
E0
60
30
08
ENDCHAR
STARTCHAR 0317
ENCODING 791
SWIDTH 0 0
DWIDTH 0 0
BBX 5 5 -8 -7
BITMAP
18
38
30
60
80
ENDCHAR
STARTCHAR 0323
ENCODING 803
SWIDTH 0 0
DWIDTH 0 0
BBX 3 3 -9 -6
BITMAP
C0
E0
C0
ENDCHAR
STARTCHAR 0324
ENCODING 804
SWIDTH 0 0
DWIDTH 0 0
BBX 8 3 -12 -6
BITMAP
C3
E7
C3
ENDCHAR
STARTCHAR 0325
ENCODING 805
SWIDTH 0 0
DWIDTH 0 0
BBX 6 6 -10 -7
BITMAP
30
CC
84
84
8C
78
ENDCHAR
STARTCHAR 0326
ENCODING 806
SWIDTH 0 0
DWIDTH 0 0
BBX 3 6 -9 -7
BITMAP
C0
C0
E0
40
40
80
ENDCHAR
STARTCHAR 0327
ENCODING 807
SWIDTH 0 0
DWIDTH 0 0
BBX 6 7 -11 -6
BITMAP
20
20
30
08
0C
8C
78
ENDCHAR
STARTCHAR 0328
ENCODING 808
SWIDTH 0 0
DWIDTH 0 0
BBX 5 6 -11 -7
BITMAP
10
60
C0
C0
C0
78
ENDCHAR
STARTCHAR 032C
ENCODING 812
SWIDTH 0 0
DWIDTH 0 0
BBX 7 5 -11 -7
BITMAP
02
C4
6C
38
30
ENDCHAR
STARTCHAR 032D
ENCODING 813
SWIDTH 0 0
DWIDTH 0 0
BBX 7 5 -11 -7
BITMAP
10
38
28
44
82
ENDCHAR
STARTCHAR 032E
ENCODING 814
SWIDTH 0 0
DWIDTH 0 0
BBX 8 4 -11 -7
BITMAP
81
81
42
3C
ENDCHAR
STARTCHAR 032F
ENCODING 815
SWIDTH 0 0
DWIDTH 0 0
BBX 7 4 -11 -7
BITMAP
30
7C
C4
82
ENDCHAR
STARTCHAR 0330
ENCODING 816
SWIDTH 0 0
DWIDTH 0 0
BBX 8 3 -11 -6
BITMAP
71
FF
8E
ENDCHAR
STARTCHAR 0331
ENCODING 817
SWIDTH 0 0
DWIDTH 0 0
BBX 8 1 -11 -5
BITMAP
FF
ENDCHAR
STARTCHAR 0332
ENCODING 818
SWIDTH 0 0
DWIDTH 0 0
BBX 15 1 -15 -5
BITMAP
FFFE
ENDCHAR
STARTCHAR 0333
ENCODING 819
SWIDTH 0 0
DWIDTH 0 0
BBX 15 5 -15 -8
BITMAP
FFFE
0000
0000
0000
FFFE
ENDCHAR
STARTCHAR 033E
ENCODING 830
SWIDTH 0 0
DWIDTH 0 0
BBX 2 6 -8 16
BITMAP
C0
40
C0
80
80
80
ENDCHAR
STARTCHAR 0342
ENCODING 834
SWIDTH 0 0
DWIDTH 0 0
BBX 10 4 -12 16
BITMAP
70C0
DCC0
C6C0
4380
ENDCHAR
STARTCHAR 0343
ENCODING 835
SWIDTH 0 0
DWIDTH 0 0
BBX 4 6 -9 16
BITMAP
E0
F0
10
10
20
60
ENDCHAR
STARTCHAR 0344
ENCODING 836
SWIDTH 0 0
DWIDTH 0 0
BBX 9 7 -12 16
BITMAP
0700
0600
0600
0C00
C980
EB80
C180
ENDCHAR
STARTCHAR 0345
ENCODING 837
SWIDTH 0 0
DWIDTH 0 0
BBX 3 6 -9 -8
BITMAP
40
40
C0
C0
E0
C0
ENDCHAR
STARTCHAR 0351
ENCODING 849
SWIDTH 0 0
DWIDTH 0 0
BBX 3 7 -9 14
BITMAP
20
40
80
80
80
40
20
ENDCHAR
STARTCHAR 0357
ENCODING 855
SWIDTH 0 0
DWIDTH 0 0
BBX 3 7 -9 14
BITMAP
80
40
20
20
20
40
80
ENDCHAR
STARTCHAR 0359
ENCODING 857
SWIDTH 0 0
DWIDTH 0 0
BBX 6 7 -11 -8
BITMAP
10
10
D4
78
58
D4
10
ENDCHAR
STARTCHAR 035C
ENCODING 860
SWIDTH 0 0
DWIDTH 0 0
BBX 16 4 -8 -7
BITMAP
8001
6006
1FF8
07E0
ENDCHAR
STARTCHAR 035D
ENCODING 861
SWIDTH 0 0
DWIDTH 0 0
BBX 18 4 -9 20
BITMAP
800040
600180
1FFE00
07F800
ENDCHAR
STARTCHAR 0361
ENCODING 865
SWIDTH 0 0
DWIDTH 0 0
BBX 16 4 -8 21
BITMAP
03C0
1FF8
700E
8001
ENDCHAR
STARTCHAR 0363
ENCODING 867
SWIDTH 0 0
DWIDTH 0 0
BBX 8 9 -11 16
BITMAP
38
44
64
64
1C
64
C5
CD
76
ENDCHAR
STARTCHAR 0364
ENCODING 868
SWIDTH 0 0
DWIDTH 0 0
BBX 7 9 -11 16
BITMAP
38
4C
C4
C6
FE
C0
C4
44
38
ENDCHAR
STARTCHAR 0365
ENCODING 869
SWIDTH 0 0
DWIDTH 0 0
BBX 4 11 -10 16
BITMAP
60
60
00
E0
60
60
60
60
60
60
F0
ENDCHAR
STARTCHAR 0366
ENCODING 870
SWIDTH 0 0
DWIDTH 0 0
BBX 7 9 -11 16
BITMAP
38
44
C6
C6
C6
C6
C6
44
38
ENDCHAR
STARTCHAR 0367
ENCODING 871
SWIDTH 0 0
DWIDTH 0 0
BBX 8 8 -12 16
BITMAP
CE
42
42
42
42
46
4A
33
ENDCHAR
STARTCHAR 0368
ENCODING 872
SWIDTH 0 0
DWIDTH 0 0
BBX 6 9 -11 16
BITMAP
38
44
C4
CC
C0
C0
C4
44
38
ENDCHAR
STARTCHAR 0369
ENCODING 873
SWIDTH 0 0
DWIDTH 0 0
BBX 7 12 -12 16
BITMAP
1C
04
04
04
34
4C
C4
C4
C4
C4
4C
36
ENDCHAR
STARTCHAR 036A
ENCODING 874
SWIDTH 0 0
DWIDTH 0 0
BBX 8 12 -11 16
BITMAP
C0
40
40
40
5C
62
42
42
42
42
42
E7
ENDCHAR
STARTCHAR 036B
ENCODING 875
SWIDTH 0 0
DWIDTH 0 0
BBX 13 8 -14 16
BITMAP
DCE0
6310
4210
4210
4210
4210
4210
EF78
ENDCHAR
STARTCHAR 036C
ENCODING 876
SWIDTH 0 0
DWIDTH 0 0
BBX 6 8 -10 16
BITMAP
D8
64
60
40
40
40
40
E0
ENDCHAR
STARTCHAR 036D
ENCODING 877
SWIDTH 0 0
DWIDTH 0 0
BBX 5 10 -10 16
BITMAP
40
40
F0
40
40
40
40
48
48
30
ENDCHAR
STARTCHAR 036E
ENCODING 878
SWIDTH 0 0
DWIDTH 0 0
BBX 8 8 -12 16
BITMAP
E7
62
64
24
34
18
18
08
ENDCHAR
STARTCHAR 036F
ENCODING 879
SWIDTH 0 0
DWIDTH 0 0
BBX 7 8 -11 16
BITMAP
EE
64
28
30
18
28
4C
CE
ENDCHAR
STARTCHAR 0374
ENCODING 884
SWIDTH 241 0
DWIDTH 7 0
BBX 5 6 1 16
BITMAP
18
38
30
60
40
80
ENDCHAR
STARTCHAR 0375
ENCODING 885
SWIDTH 241 0
DWIDTH 7 0
BBX 4 6 1 -7
BITMAP
10
30
20
60
E0
C0
ENDCHAR
STARTCHAR 037A
ENCODING 890
SWIDTH 448 0
DWIDTH 13 0
BBX 3 6 5 -8
BITMAP
40
40
C0
E0
E0
C0
ENDCHAR
STARTCHAR 037E
ENCODING 894
SWIDTH 275 0
DWIDTH 8 0
BBX 4 18 2 -5
BITMAP
60
F0
F0
60
00
00
00
00
00
00
E0
F0
F0
10
10
30
20
40
ENDCHAR
STARTCHAR 0384
ENCODING 900
SWIDTH 241 0
DWIDTH 7 0
BBX 4 6 2 16
BITMAP
30
30
60
40
40
80
ENDCHAR
STARTCHAR 0385
ENCODING 901
SWIDTH 448 0
DWIDTH 13 0
BBX 9 7 2 16
BITMAP
0600
0600
0600
0C00
EB80
EB80
E380
ENDCHAR
STARTCHAR 0386
ENCODING 902
SWIDTH 793 0
DWIDTH 23 0
BBX 20 21 2 1
BITMAP
304000
306000
606000
40E000
40F000
80F000
01B000
013800
013800
031C00
021C00
061C00
060E00
040E00
0FFE00
080700
080700
180700
180380
380380
FF1FF0
ENDCHAR
STARTCHAR 0387
ENCODING 903
SWIDTH 275 0
DWIDTH 8 0
BBX 4 4 2 11
BITMAP
60
F0
F0
60
ENDCHAR
STARTCHAR 0388
ENCODING 904
SWIDTH 896 0
DWIDTH 26 0
BBX 23 21 2 1
BITMAP
33FFFE
30703E
60700E
607006
407006
807002
007042
007040
0070C0
0070C0
007FC0
0071C0
0070C0
007042
007042
007002
007006
007006
007006
00701E
03FFFE
ENDCHAR
STARTCHAR 0389
ENCODING 905
SWIDTH 1000 0
DWIDTH 29 0
BBX 26 21 2 1
BITMAP
33FE7FC0
30700E00
60700E00
40700E00
40700E00
80700E00
00700E00
00700E00
00700E00
007FFE00
00700E00
00700E00
00700E00
00700E00
00700E00
00700E00
00700E00
00700E00
00700E00
00700E00
03FE7FC0
ENDCHAR
STARTCHAR 038A
ENCODING 906
SWIDTH 655 0
DWIDTH 19 0
BBX 15 21 3 1
BITMAP
73FE
6070
6070
C070
8070
8070
0070
0070
0070
0070
0070
0070
0070
0070
0070
0070
0070
0070
0070
0070
03FE
ENDCHAR
STARTCHAR 038C
ENCODING 908
SWIDTH 827 0
DWIDTH 24 0
BBX 21 21 2 1
BITMAP
307F00
30C180
6180C0
430060
470070
870070
060030
0E0038
0E0038
0E0038
0E0038
0E0038
0E0038
0E0038
060030
060070
070070
030060
0180C0
00C180
007F00
ENDCHAR
STARTCHAR 038E
ENCODING 910
SWIDTH 896 0
DWIDTH 26 0
BBX 22 21 3 1
BITMAP
7700F8
61C19C
60613C
C0723C
803218
803C00
001C00
001C00
001C00
001C00
001C00
001C00
001C00
001C00
001C00
001C00
001C00
001C00
001C00
001C00
01FF80
ENDCHAR
STARTCHAR 038F
ENCODING 911
SWIDTH 896 0
DWIDTH 26 0
BBX 21 21 3 1
BITMAP
70FF80
61C1C0
6380E0
C70070
870070
8E0038
0E0038
0E0038
0E0038
0E0038
060030
070070
030060
0180C0
00C180
083608
081408
041410
07F7F0
07F7F0
07F7F0
ENDCHAR
STARTCHAR 0390
ENCODING 912
SWIDTH 310 0
DWIDTH 9 0
BBX 9 23 0 0
BITMAP
0200
0600
0600
0400
E780
EB80
E380
0000
0000
1800
1C00
1800
1800
1800
1800
1800
1000
1000
1000
1200
1200
1E00
0E00
ENDCHAR
STARTCHAR 0391
ENCODING 913
SWIDTH 758 0
DWIDTH 22 0
BBX 20 21 1 0
BITMAP
002000
006000
006000
00F000
00F000
00F000
01B800
013800
013800
031C00
031C00
021C00
060E00
060E00
07FE00
0C0700
0C0700
080300
180380
3C07C0
FF1FF0
ENDCHAR
STARTCHAR 0392
ENCODING 914
SWIDTH 689 0
DWIDTH 20 0
BBX 17 21 2 0
BITMAP
FFF000
1C1C00
1C0600
1C0300
1C0300
1C0300
1C0300
1C0600
1C0C00
1FF000
1C1C00
1C0600
1C0700
1C0380
1C0380
1C0380
1C0380
1C0700
1C0700
1C1E00
FFF800
ENDCHAR
STARTCHAR 0393
ENCODING 915
SWIDTH 655 0
DWIDTH 19 0
BBX 16 21 2 0
BITMAP
FFFF
1C1F
1C07
1C03
1C03
1C02
1C01
1C01
1C00
1C00
1C00
1C00
1C00
1C00
1C00
1C00
1C00
1C00
1C00
1C00
FF80
ENDCHAR
STARTCHAR 0394
ENCODING 916
SWIDTH 655 0
DWIDTH 19 0
BBX 16 21 2 0
BITMAP
0100
0180
0180
03C0
03C0
06C0
04E0
04E0
0860
0870
0870
1038
1038
3018
201C
201C
400C
400E
7FFE
FFFF
FFFF
ENDCHAR
STARTCHAR 0395
ENCODING 917
SWIDTH 689 0
DWIDTH 20 0
BBX 17 21 2 0
BITMAP
FFFF80
1C0F80
1C0380
1C0180
1C0180
1C0080
1C1080
1C1000
1C3000
1C3000
1FF000
1C7000
1C3000
1C1080
1C1080
1C0080
1C0180
1C0180
1C0180
1C0780
FFFF80
ENDCHAR
STARTCHAR 0396
ENCODING 918
SWIDTH 655 0
DWIDTH 19 0
BBX 15 21 2 0
BITMAP
3FFE
3C0E
701C
601C
6038
4070
4070
40E0
01C0
01C0
0380
0780
0700
0E02
1E02
1C02
3802
7806
700E
E03E
FFFE
ENDCHAR
STARTCHAR 0397
ENCODING 919
SWIDTH 793 0
DWIDTH 23 0
BBX 20 21 2 0
BITMAP
FF9FF0
1C0380
1C0380
1C0380
1C0380
1C0380
1C0380
1C0380
1C0380
1FFF80
1C0380
1C0380
1C0380
1C0380
1C0380
1C0380
1C0380
1C0380
1C0380
1C0380
FF9FF0
ENDCHAR
STARTCHAR 0398
ENCODING 920
SWIDTH 689 0
DWIDTH 20 0
BBX 17 22 2 0
BITMAP
008000
07F000
0C1800
180C00
300600
700700
700700
680B00
E80B80
E80B80
EFFB80
EFFB80
E80B80
E80B80
E00380
600300
600700
700700
300600
180C00
0C1800
07F000
ENDCHAR
STARTCHAR 0399
ENCODING 921
SWIDTH 413 0
DWIDTH 12 0
BBX 9 21 2 0
BITMAP
FF80
1C00
1C00
1C00
1C00
1C00
1C00
1C00
1C00
1C00
1C00
1C00
1C00
1C00
1C00
1C00
1C00
1C00
1C00
1C00
FF80
ENDCHAR
STARTCHAR 039A
ENCODING 922
SWIDTH 758 0
DWIDTH 22 0
BBX 19 21 2 0
BITMAP
FF1FE0
1C0F80
1C0600
1C0400
1C0800
1C1000
1C2000
1C4000
1CC000
1DE000
1E7000
1C7000
1C3800
1C3800
1C1C00
1C1C00
1C0E00
1C0E00
1C0700
1C0780
FF3FE0
ENDCHAR
STARTCHAR 039B
ENCODING 923
SWIDTH 758 0
DWIDTH 22 0
BBX 20 21 1 0
BITMAP
002000
006000
006000
007000
00F000
00B000
00B800
013800
011C00
031C00
021C00
020E00
060E00
040E00
040700
0C0700
080700
080380
180380
3C03C0
FF1FF0
ENDCHAR
STARTCHAR 039C
ENCODING 924
SWIDTH 827 0
DWIDTH 24 0
BBX 21 21 2 0
BITMAP
FC01F8
3E03C0
1E03C0
1E03C0
1603C0
1705C0
1705C0
1305C0
1309C0
1389C0
1389C0
1189C0
11D1C0
11D1C0
10D1C0
10D1C0
10E1C0
1061C0
3061C0
7861C0
FE4FF8
ENDCHAR
STARTCHAR 039D
ENCODING 925
SWIDTH 793 0
DWIDTH 23 0
BBX 20 21 2 0
BITMAP
FC07F0
3E03C0
1E0180
1F0080
170080
138080
13C080
11C080
10E080
10F080
107080
107880
103880
101C80
101E80
100E80
100780
100780
300380
380180
FE0180
ENDCHAR
STARTCHAR 039E
ENCODING 926
SWIDTH 655 0
DWIDTH 19 0
BBX 15 21 2 0
BITMAP
FFFE
FFFE
FFFE
8002
8002
8002
1010
1010
1010
1FF0
1FF0
1010
1010
0000
8002
8002
8002
8002
FFFE
FFFE
FFFE
ENDCHAR
STARTCHAR 039F
ENCODING 927
SWIDTH 689 0
DWIDTH 20 0
BBX 17 22 2 0
BITMAP
008000
07F000
0C1800
180C00
300600
700700
700700
600300
E00380
E00380
E00380
E00380
E00380
E00380
E00380
600300
600700
700700
300600
180C00
0C1800
07F000
ENDCHAR
STARTCHAR 03A0
ENCODING 928
SWIDTH 793 0
DWIDTH 23 0
BBX 20 21 2 0
BITMAP
FFFFF0
1C0380
1C0380
1C0380
1C0380
1C0380
1C0380
1C0380
1C0380
1C0380
1C0380
1C0380
1C0380
1C0380
1C0380
1C0380
1C0380
1C0380
1C0380
1C0380
FF9FF0
ENDCHAR
STARTCHAR 03A1
ENCODING 929
SWIDTH 689 0
DWIDTH 20 0
BBX 17 21 2 0
BITMAP
FFF800
1C1E00
1C0700
1C0380
1C0380
1C0380
1C0380
1C0380
1C0700
1C0E00
1FFC00
1C0000
1C0000
1C0000
1C0000
1C0000
1C0000
1C0000
1C0000
1C0000
FF8000
ENDCHAR
STARTCHAR 03A3
ENCODING 931
SWIDTH 655 0
DWIDTH 19 0
BBX 15 21 2 0
BITMAP
7FFE
703E
780E
3806
1C06
1C02
0E02
0700
0700
0380
0180
0100
0300
0602
0402
0802
1002
2006
400E
FFFE
FFFE
ENDCHAR
STARTCHAR 03A4
ENCODING 932
SWIDTH 758 0
DWIDTH 22 0
BBX 17 21 3 0
BITMAP
FFFF80
F9CF80
E1C380
C1C180
C1C180
81C180
81C080
81C080
01C000
01C000
01C000
01C000
01C000
01C000
01C000
01C000
01C000
01C000
01C000
01C000
0FF800
ENDCHAR
STARTCHAR 03A5
ENCODING 933
SWIDTH 655 0
DWIDTH 19 0
BBX 17 21 1 1
BITMAP
E01F00
383380
0C2780
0E4780
064300
078000
038000
038000
038000
038000
038000
038000
038000
038000
038000
038000
038000
038000
038000
038000
3FF000
ENDCHAR
STARTCHAR 03A6
ENCODING 934
SWIDTH 862 0
DWIDTH 25 0
BBX 22 21 2 0
BITMAP
03FF00
007800
007000
0FFFC0
3C70E0
707030
707038
E0701C
E0701C
E0701C
E0701C
E0701C
E0701C
707038
707038
387070
0FFFC0
007000
007000
007000
03FF00
ENDCHAR
STARTCHAR 03A7
ENCODING 935
SWIDTH 758 0
DWIDTH 22 0
BBX 19 21 2 0
BITMAP
FF9FE0
3E0F80
0E0600
070600
070400
038800
039800
01D000
01E000
00E000
006000
00F000
01B800
013800
021C00
061C00
0C0E00
080E00
180700
7C0780
FF1FE0
ENDCHAR
STARTCHAR 03A8
ENCODING 936
SWIDTH 862 0
DWIDTH 25 0
BBX 23 21 1 1
BITMAP
F1FE3E
38387E
18386E
1C384E
1C3840
1C3840
1C3840
1C3840
1C3840
1C3840
1C38C0
0C38C0
0C3880
063980
073B00
01FE00
003800
003800
003800
003800
01FE00
ENDCHAR
STARTCHAR 03A9
ENCODING 937
SWIDTH 724 0
DWIDTH 21 0
BBX 17 21 2 1
BITMAP
0FF800
1C1C00
380E00
700700
700700
E00380
E00380
E00380
E00380
E00380
600300
700700
300600
180C00
0C1800
836080
814080
414100
7F7F00
7F7F00
7F7F00
ENDCHAR
STARTCHAR 03AA
ENCODING 938
SWIDTH 413 0
DWIDTH 12 0
BBX 9 27 2 0
BITMAP
E380
E380
E380
0000
0000
0000
FF80
1C00
1C00
1C00
1C00
1C00
1C00
1C00
1C00
1C00
1C00
1C00
1C00
1C00
1C00
1C00
1C00
1C00
1C00
1C00
FF80
ENDCHAR
STARTCHAR 03AB
ENCODING 939
SWIDTH 620 0
DWIDTH 18 0
BBX 16 27 1 0
BITMAP
1C70
1C70
1C70
0000
0000
0000
E03E
3027
184F
0C8F
0C86
0680
0700
0700
0700
0700
0700
0700
0700
0700
0700
0700
0700
0700
0700
0700
3FF0
ENDCHAR
STARTCHAR 03AC
ENCODING 940
SWIDTH 551 0
DWIDTH 16 0
BBX 13 21 2 1
BITMAP
00C0
0180
0180
0100
0200
0200
0000
1C30
3E30
7370
6160
C160
C0C0
C0C0
8180
8180
8380
8340
C668
6E78
3830
ENDCHAR
STARTCHAR 03AD
ENCODING 941
SWIDTH 448 0
DWIDTH 13 0
BBX 10 21 2 1
BITMAP
0300
0300
0600
0400
0400
0800
0000
3E00
7380
C000
8000
8000
4E00
3F00
4E00
8000
8000
C040
F180
7F80
3E00
ENDCHAR
STARTCHAR 03AE
ENCODING 942
SWIDTH 586 0
DWIDTH 17 0
BBX 14 29 1 -7
BITMAP
00C0
00C0
0180
0180
0100
0200
0000
E070
B1D8
130C
0A04
0E04
0E04
0C04
0C04
0C0C
0C0C
1C0C
1C0C
1C0C
181C
001C
0018
0018
0038
0038
0038
0038
0038
ENDCHAR
STARTCHAR 03AF
ENCODING 943
SWIDTH 310 0
DWIDTH 9 0
BBX 5 21 3 1
BITMAP
18
30
30
20
20
40
00
C0
E0
E0
C0
C0
C0
C0
80
80
80
90
98
F8
70
ENDCHAR
STARTCHAR 03B0
ENCODING 944
SWIDTH 448 0
DWIDTH 13 0
BBX 11 23 1 0
BITMAP
0600
0600
0C00
0C00
CB80
D380
C380
0000
0000
C100
C080
C0C0
4040
4060
8060
8060
8060
8060
80E0
80C0
41C0
7780
1F00
ENDCHAR
STARTCHAR 03B1
ENCODING 945
SWIDTH 551 0
DWIDTH 16 0
BBX 13 14 2 0
BITMAP
1C30
3E30
7360
6160
C0E0
C0C0
C0C0
8180
8180
8380
8340
C668
6E78
3830
ENDCHAR
STARTCHAR 03B2
ENCODING 946
SWIDTH 517 0
DWIDTH 15 0
BBX 11 31 2 -8
BITMAP
1F00
3D80
7040
E040
E020
C020
C020
C060
8060
9EC0
9FC0
8F80
8040
8040
8040
8020
8020
8020
C060
C060
A0E0
99C0
8F80
8000
C000
C000
C000
C000
C000
C000
C000
ENDCHAR
STARTCHAR 03B3
ENCODING 947
SWIDTH 517 0
DWIDTH 15 0
BBX 13 22 1 -8
BITMAP
7018
F818
FC38
8C30
0460
0640
0240
0280
0280
0280
0100
0100
0100
0100
0300
0300
0380
0380
0380
0380
0380
0300
ENDCHAR
STARTCHAR 03B4
ENCODING 948
SWIDTH 482 0
DWIDTH 14 0
BBX 10 23 2 0
BITMAP
7000
DC00
8E00
8700
C380
6180
3080
1800
0C00
0600
3E00
7900
7080
E080
C040
C040
80C0
80C0
80C0
81C0
4380
2F80
1E00
ENDCHAR
STARTCHAR 03B5
ENCODING 949
SWIDTH 448 0
DWIDTH 13 0
BBX 10 14 2 0
BITMAP
3E00
7380
C000
8000
8000
4E00
3F00
4E00
8000
8000
C040
E180
7F80
3E00
ENDCHAR
STARTCHAR 03B6
ENCODING 950
SWIDTH 517 0
DWIDTH 15 0
BBX 12 25 2 -3
BITMAP
39C0
33C0
2780
2E00
1000
2000
2000
4000
4000
C000
C000
8000
8000
8000
8000
8000
C000
C000
6180
3FE0
1FF0
0010
0030
01F0
01C0
ENDCHAR
STARTCHAR 03B7
ENCODING 951
SWIDTH 586 0
DWIDTH 17 0
BBX 14 22 1 -8
BITMAP
E070
B1D8
130C
0A04
0E04
0E04
0C04
0C04
0C0C
0C0C
1C0C
1C0C
1C0C
181C
001C
0018
0018
0038
0038
0038
0038
0038
ENDCHAR
STARTCHAR 03B8
ENCODING 952
SWIDTH 551 0
DWIDTH 16 0
BBX 15 23 1 0
BITMAP
0700
1BC0
10C0
1060
1060
1030
1830
0830
0430
0330
00F8
6034
F032
9030
9030
1030
1030
1030
1030
1030
1060
0DC0
0780
ENDCHAR
STARTCHAR 03B9
ENCODING 953
SWIDTH 310 0
DWIDTH 9 0
BBX 4 14 3 0
BITMAP
C0
E0
E0
C0
C0
C0
C0
80
80
80
90
90
F0
70
ENDCHAR
STARTCHAR 03BA
ENCODING 954
SWIDTH 517 0
DWIDTH 15 0
BBX 13 14 1 0
BITMAP
7030
B870
1870
08E0
09E0
0BC0
0B40
1E40
1E40
1C40
3860
7068
7078
6038
ENDCHAR
STARTCHAR 03BB
ENCODING 955
SWIDTH 517 0
DWIDTH 15 0
BBX 13 21 1 1
BITMAP
F000
F800
1C00
0400
0400
0200
0200
0200
0600
0700
0F00
0D00
0D00
1D00
1880
3880
30C0
7040
6070
E078
C038
ENDCHAR
STARTCHAR 03BC
ENCODING 956
SWIDTH 620 0
DWIDTH 18 0
BBX 15 22 2 -8
BITMAP
4040
E0E0
E0E0
E0E0
E0E0
E0E0
C0E0
C0E0
40C0
4040
40C0
40C2
B3A6
8F1C
8000
C000
C000
C000
C000
E000
E000
6000
ENDCHAR
STARTCHAR 03BD
ENCODING 957
SWIDTH 448 0
DWIDTH 13 0
BBX 10 14 1 0
BITMAP
E080
F040
7040
3840
1840
1CC0
0CC0
0CC0
0CC0
0D80
0780
0700
0600
0400
ENDCHAR
STARTCHAR 03BE
ENCODING 958
SWIDTH 448 0
DWIDTH 13 0
BBX 10 25 2 -3
BITMAP
8780
9F80
7F00
4000
C000
8000
8000
8000
8000
CF80
5F80
3E00
4000
C000
8000
8000
8000
C000
E000
7F80
3FC0
0040
00C0
0FC0
0F00
ENDCHAR
STARTCHAR 03BF
ENCODING 959
SWIDTH 482 0
DWIDTH 14 0
BBX 10 14 2 0
BITMAP
1E00
3D00
7080
E040
E040
C040
C0C0
80C0
80C0
81C0
8380
4380
6F00
1E00
ENDCHAR
STARTCHAR 03C0
ENCODING 960
SWIDTH 620 0
DWIDTH 18 0
BBX 16 14 1 0
BITMAP
7FFF
FFFF
8440
0440
0440
0440
0440
0C40
0C40
0C40
0C62
1C66
3C7C
383C
ENDCHAR
STARTCHAR 03C1
ENCODING 961
SWIDTH 517 0
DWIDTH 15 0
BBX 11 22 2 -8
BITMAP
0F00
1E80
3840
7020
7020
6020
6060
4060
4060
40E0
41C0
61C0
7780
4F00
4000
C000
C000
C000
E000
E000
E000
E000
ENDCHAR
STARTCHAR 03C2
ENCODING 962
SWIDTH 448 0
DWIDTH 13 0
BBX 10 19 2 -5
BITMAP
07C0
1FC0
3FC0
7000
6000
C000
8000
8000
8000
8000
C000
7800
3F00
0F80
00C0
0040
1C40
1F80
0F00
ENDCHAR
STARTCHAR 03C3
ENCODING 963
SWIDTH 517 0
DWIDTH 15 0
BBX 12 14 2 0
BITMAP
1FF0
3FF0
7100
E080
C0C0
8040
8060
8060
8060
C060
C0E0
71C0
3FC0
1F00
ENDCHAR
STARTCHAR 03C4
ENCODING 964
SWIDTH 482 0
DWIDTH 14 0
BBX 11 14 1 0
BITMAP
7FE0
FFE0
8400
0400
0400
0400
0400
0400
0400
0400
0600
0640
07C0
0380
ENDCHAR
STARTCHAR 03C5
ENCODING 965
SWIDTH 448 0
DWIDTH 13 0
BBX 10 14 2 0
BITMAP
C200
C100
C180
C080
40C0
80C0
80C0
80C0
80C0
81C0
8180
C380
6700
3E00
ENDCHAR
STARTCHAR 03C6
ENCODING 966
SWIDTH 655 0
DWIDTH 19 0
BBX 15 22 2 -8
BITMAP
30F8
79CC
F184
E302
C302
8202
8206
8206
8206
C20C
621C
7A78
3FF0
0FC0
0200
0200
0200
0200
0300
0700
0700
0300
ENDCHAR
STARTCHAR 03C7
ENCODING 967
SWIDTH 586 0
DWIDTH 17 0
BBX 15 22 1 -8
BITMAP
E018
F818
E830
0430
0470
0260
02E0
02C0
01C0
0180
0180
0300
0300
0680
0680
0E80
0C80
1C40
1840
3844
303E
301E
ENDCHAR
STARTCHAR 03C8
ENCODING 968
SWIDTH 620 0
DWIDTH 18 0
BBX 14 29 2 -7
BITMAP
0700
0700
0700
0700
0300
0300
0300
6308
6308
E304
C304
C104
8104
810C
810C
810C
811C
4118
7178
3FF0
0FC0
0100
0300
0300
0300
0300
0700
0700
0300
ENDCHAR
STARTCHAR 03C9
ENCODING 969
SWIDTH 655 0
DWIDTH 19 0
BBX 17 14 1 0
BITMAP
300800
380400
700200
608300
E1C100
C1C180
C1C180
C1C180
C18180
C18380
608300
608300
314E00
1E3C00
ENDCHAR
STARTCHAR 03CA
ENCODING 970
SWIDTH 275 0
DWIDTH 8 0
BBX 8 20 0 0
BITMAP
E7
E7
E7
00
00
00
38
38
38
30
30
30
30
20
20
20
24
26
3C
1C
ENDCHAR
STARTCHAR 03CB
ENCODING 971
SWIDTH 448 0
DWIDTH 13 0
BBX 10 20 2 0
BITMAP
C700
E700
C700
0000
0000
0000
C000
E100
C080
C080
40C0
C0C0
80C0
80C0
80C0
81C0
8180
C380
6700
3E00
ENDCHAR
STARTCHAR 03CC
ENCODING 972
SWIDTH 482 0
DWIDTH 14 0
BBX 10 21 2 1
BITMAP
0300
0600
0600
0400
0800
0800
0000
1E00
3D00
7080
E040
E040
C040
C0C0
80C0
80C0
81C0
8380
4380
6F00
1E00
ENDCHAR
STARTCHAR 03CD
ENCODING 973
SWIDTH 448 0
DWIDTH 13 0
BBX 10 21 2 1
BITMAP
0C00
0C00
0800
1800
1000
0000
0000
C200
C100
C180
C080
40C0
80C0
80C0
80C0
80C0
81C0
8180
C380
7F00
3E00
ENDCHAR
STARTCHAR 03CE
ENCODING 974
SWIDTH 655 0
DWIDTH 19 0
BBX 17 21 1 1
BITMAP
006000
006000
00C000
00C000
008000
000000
000000
300800
380400
700200
608300
E1C100
C1C180
C1C180
C1C180
C18180
C18380
608300
608300
314E00
1E3C00
ENDCHAR
STARTCHAR 03CF
ENCODING 975
SWIDTH 793 0
DWIDTH 23 0
BBX 19 30 2 -9
BITMAP
FF1FE0
1C0F80
1C0600
1C0400
1C0800
1C1000
1C2000
1C4000
1CC000
1DE000
1E7000
1C7000
1C3800
1C3C00
1C1C00
1C0E00
1C0E00
1C0700
1C0380
1C0380
FF01C0
0003C0
000780
000F00
001E00
007C00
003800
001000
000800
000800
ENDCHAR
STARTCHAR 03D0
ENCODING 976
SWIDTH 482 0
DWIDTH 14 0
BBX 11 21 2 1
BITMAP
07E0
0C20
1860
31C0
3F80
6000
4000
4000
8000
BE00
F900
F080
E040
C040
C0C0
80C0
80C0
81C0
4380
2F80
1E00
ENDCHAR
STARTCHAR 03D1
ENCODING 977
SWIDTH 551 0
DWIDTH 16 0
BBX 15 23 1 0
BITMAP
0700
1BC0
10C0
1060
1060
1030
1830
0830
0430
0330
00F8
6034
F032
9030
9030
1030
1030
1030
1030
1030
1060
0DC0
0780
ENDCHAR
STARTCHAR 03D2
ENCODING 978
SWIDTH 655 0
DWIDTH 19 0
BBX 17 21 1 1
BITMAP
E01F00
383380
0C2780
0E4780
064300
078000
038000
038000
038000
038000
038000
038000
038000
038000
038000
038000
038000
038000
038000
038000
3FF000
ENDCHAR
STARTCHAR 03D3
ENCODING 979
SWIDTH 896 0
DWIDTH 26 0
BBX 22 21 3 1
BITMAP
7700F8
61C19C
60613C
C0723C
803218
803C00
001C00
001C00
001C00
001C00
001C00
001C00
001C00
001C00
001C00
001C00
001C00
001C00
001C00
001C00
01FF80
ENDCHAR
STARTCHAR 03D4
ENCODING 980
SWIDTH 620 0
DWIDTH 18 0
BBX 16 27 1 0
BITMAP
1C70
1C70
1C70
0000
0000
0000
E03E
3027
184F
0C8F
0C86
0680
0700
0700
0700
0700
0700
0700
0700
0700
0700
0700
0700
0700
0700
0700
3FF0
ENDCHAR
STARTCHAR 03D5
ENCODING 981
SWIDTH 620 0
DWIDTH 18 0
BBX 14 29 2 -7
BITMAP
0700
0700
0700
0700
0200
0200
0200
1FC0
3FF0
7A38
E208
C20C
8204
8204
8204
820C
821C
C238
73F8
3FF0
1FC0
0200
0200
0200
0600
0700
0700
0700
0700
ENDCHAR
STARTCHAR 03D6
ENCODING 982
SWIDTH 724 0
DWIDTH 21 0
BBX 19 14 1 0
BITMAP
7FFFE0
FFFFE0
980100
300180
30E080
60E0C0
60E0C0
60E0C0
60C0C0
60C1C0
7041C0
304380
1DBF00
0F1E00
ENDCHAR
STARTCHAR 03D7
ENCODING 983
SWIDTH 517 0
DWIDTH 15 0
BBX 13 19 1 -5
BITMAP
7030
B870
1870
08E0
09E0
0BC0
0B40
1E40
1E40
1C40
3860
7068
7078
6038
0008
0008
0610
0FA0
07C0
ENDCHAR
STARTCHAR 03D8
ENCODING 984
SWIDTH 689 0
DWIDTH 20 0
BBX 17 21 2 1
BITMAP
0FF800
3C1E00
780700
700700
E00380
E00380
E00380
E00380
E00380
600300
700700
380E00
1E1800
03E000
01C000
01C000
01C000
01C000
01C000
01C000
0FF800
ENDCHAR
STARTCHAR 03D9
ENCODING 985
SWIDTH 482 0
DWIDTH 14 0
BBX 10 22 2 -8
BITMAP
1E00
3D00
7080
E080
E040
C040
C0C0
80C0
80C0
81C0
83C0
4380
6F80
1F00
0400
0400
0C00
0C00
0E00
0E00
0E00
0E00
ENDCHAR
STARTCHAR 03DA
ENCODING 986
SWIDTH 586 0
DWIDTH 17 0
BBX 15 21 2 1
BITMAP
1FF2
3FFE
603C
C000
8000
8000
8000
8000
8000
C000
6000
3000
0FC0
01C0
01C0
01C0
01C0
01C0
01C0
01C0
07F8
ENDCHAR
STARTCHAR 03DB
ENCODING 987
SWIDTH 517 0
DWIDTH 15 0
BBX 12 21 2 -4
BITMAP
0010
0010
07F0
1FE0
3FC0
6000
C000
8000
8000
8000
8000
8000
C000
7800
3F00
0F80
00C0
0040
1C40
1F80
0F00
ENDCHAR
STARTCHAR 03DC
ENCODING 988
SWIDTH 689 0
DWIDTH 20 0
BBX 17 21 2 0
BITMAP
FFFF80
1C0F80
1C0380
1C0180
1C0180
1C0080
1C0000
1C0000
1FF000
1C7000
1C1000
1C1000
1C1000
1C0000
1C0000
1C0000
1C0000
1C0000
1C0000
1C0000
FF8000
ENDCHAR
STARTCHAR 03DD
ENCODING 989
SWIDTH 482 0
DWIDTH 14 0
BBX 15 22 -2 -8
BITMAP
07FE
07FE
07FC
0400
0400
0400
0400
0400
07FC
07F8
0400
0400
0400
0400
0400
0400
0400
0400
0400
C400
EC00
7800
ENDCHAR
STARTCHAR 03DE
ENCODING 990
SWIDTH 620 0
DWIDTH 18 0
BBX 15 21 2 1
BITMAP
F000
F800
C800
0800
0804
1808
1818
1078
10F8
13F8
37D0
3F90
3E10
3C30
3030
6020
0020
0020
0026
003E
003E
ENDCHAR
STARTCHAR 03DF
ENCODING 991
SWIDTH 379 0
DWIDTH 11 0
BBX 9 26 1 -5
BITMAP
6000
B000
1000
1000
3000
2000
2000
4000
4000
4000
FF80
FF80
0100
0100
0300
0300
0200
0600
0600
0C00
0C00
1C00
1C00
3800
3800
1000
ENDCHAR
STARTCHAR 03E0
ENCODING 992
SWIDTH 758 0
DWIDTH 22 0
BBX 19 21 1 1
BITMAP
1FE000
3FF000
60F800
603C00
401E00
402F00
406780
404780
608BC0
2119C0
0330E0
0220E0
044060
08C060
188020
110020
223020
667060
C47040
006080
003F00
ENDCHAR
STARTCHAR 03E1
ENCODING 993
SWIDTH 551 0
DWIDTH 16 0
BBX 16 25 -2 -5
BITMAP
F000
1E00
0380
01C0
0060
0030
0038
0068
018C
0704
0406
000E
001B
0063
01C3
0101
0001
0001
0001
0003
0003
0002
0002
0006
0004
ENDCHAR
STARTCHAR 03F0
ENCODING 1008
SWIDTH 517 0
DWIDTH 15 0
BBX 13 14 1 0
BITMAP
7030
B870
1870
08E0
09E0
0BC0
0B40
1E40
1E40
1C40
3860
7068
7078
6038
ENDCHAR
STARTCHAR 03F1
ENCODING 1009
SWIDTH 517 0
DWIDTH 15 0
BBX 11 22 2 -8
BITMAP
0F00
1E80
3840
7020
7020
6020
6060
4060
4060
40E0
41C0
61C0
7780
4F00
4000
C000
C000
C000
E000
E000
E000
E000
ENDCHAR
STARTCHAR 03F2
ENCODING 1010
SWIDTH 448 0
DWIDTH 13 0
BBX 10 14 1 0
BITMAP
0F00
3980
7040
6040
E000
E000
E000
E000
E000
E000
6040
7040
3980
1F00
ENDCHAR
STARTCHAR 03F3
ENCODING 1011
SWIDTH 344 0
DWIDTH 10 0
BBX 8 27 -1 -8
BITMAP
07
07
07
00
00
1E
06
06
06
06
06
06
06
06
06
06
06
06
06
06
06
06
E6
E6
C4
CC
70
ENDCHAR
STARTCHAR 03F4
ENCODING 1012
SWIDTH 689 0
DWIDTH 20 0
BBX 17 22 2 0
BITMAP
008000
07F000
0C1800
180C00
300600
700700
600300
600300
E00380
E00380
E00380
FFFF80
E00380
E00380
E00380
600300
600300
700700
300600
180C00
0C1800
07F000
ENDCHAR
STARTCHAR 03F5
ENCODING 1013
SWIDTH 448 0
DWIDTH 13 0
BBX 10 14 1 0
BITMAP
0F00
3980
7040
6000
E000
E000
FF00
E000
E000
E000
6040
7040
3980
1F00
ENDCHAR
STARTCHAR 03F6
ENCODING 1014
SWIDTH 448 0
DWIDTH 13 0
BBX 10 14 2 0
BITMAP
3C00
6F00
8380
0180
0180
01C0
3FC0
01C0
01C0
01C0
0180
8380
6F00
3C00
ENDCHAR
STARTCHAR 03F9
ENCODING 1017
SWIDTH 620 0
DWIDTH 18 0
BBX 15 21 2 1
BITMAP
07F0
1C18
380C
3004
7002
6000
E000
E000
E000
E000
E000
E000
E000
E000
E000
6000
7002
3004
380C
1C18
07F0
ENDCHAR
STARTCHAR 0400
ENCODING 1024
SWIDTH 689 0
DWIDTH 20 0
BBX 17 28 2 0
BITMAP
040000
060000
030000
010000
008000
000000
000000
FFFF80
1C0380
1C0380
1C0180
1C0180
1C0080
1C2080
1C2000
1C2000
1C6000
1FE000
1C6000
1C2000
1C2080
1C2080
1C0080
1C0180
1C0180
1C0380
1C0780
FFFF80
ENDCHAR
STARTCHAR 0401
ENCODING 1025
SWIDTH 689 0
DWIDTH 20 0
BBX 17 27 2 0
BITMAP
063000
073800
063000
000000
000000
000000
FFFF80
1C0780
1C0380
1C0180
1C0180
1C0180
1C2080
1C2000
1C2000
1C6000
1FE000
1C6000
1C2000
1C2080
1C2080
1C0100
1C0180
1C0180
1C0380
1C0780
FFFF80
ENDCHAR
STARTCHAR 0402
ENCODING 1026
SWIDTH 827 0
DWIDTH 24 0
BBX 20 21 3 0
BITMAP
FFFF00
C38300
838300
838100
838100
038100
038100
038000
038000
039F00
03E1C0
0380E0
038060
038070
038070
038070
038870
03BC70
03BC60
03B8C0
1F9F80
ENDCHAR
STARTCHAR 0403
ENCODING 1027
SWIDTH 655 0
DWIDTH 19 0
BBX 16 28 2 0
BITMAP
0010
0030
0060
0040
0080
0000
0000
FFFF
1C0F
1C07
1C03
1C03
1C01
1C01
1C01
1C00
1C00
1C00
1C00
1C00
1C00
1C00
1C00
1C00
1C00
1C00
1C00
FF80
ENDCHAR
STARTCHAR 0404
ENCODING 1028
SWIDTH 655 0
DWIDTH 19 0
BBX 15 21 2 1
BITMAP
0FE4
181C
300C
600C
6004
6004
E004
E004
E000
FFE0
E000
E000
E000
E00C
601E
601E
600E
3006
3004
180C
0770
ENDCHAR
STARTCHAR 0405
ENCODING 1029
SWIDTH 620 0
DWIDTH 18 0
BBX 14 21 3 1
BITMAP
3F90
60D0
C070
C030
C010
C010
E010
F010
7C00
3F80
1FE0
07F0
80F8
8038
801C
800C
C00C
E00C
E008
9010
8EE0
ENDCHAR
STARTCHAR 0406
ENCODING 1030
SWIDTH 413 0
DWIDTH 12 0
BBX 8 21 2 0
BITMAP
FF
1C
1C
1C
1C
1C
1C
1C
1C
1C
1C
1C
1C
1C
1C
1C
1C
1C
1C
1C
FF
ENDCHAR
STARTCHAR 0407
ENCODING 1031
SWIDTH 379 0
DWIDTH 11 0
BBX 9 27 2 0
BITMAP
C300
E380
C300
0000
0000
0000
FF00
1C00
1C00
1C00
1C00
1C00
1C00
1C00
1C00
1C00
1C00
1C00
1C00
1C00
1C00
1C00
1C00
1C00
1C00
1C00
FF00
ENDCHAR
STARTCHAR 0408
ENCODING 1032
SWIDTH 517 0
DWIDTH 15 0
BBX 13 21 1 0
BITMAP
07F8
00E0
00E0
00E0
00E0
00E0
00E0
00E0
00E0
00E0
00E0
00E0
00E0
00E0
00E0
70E0
F0C0
F0C0
C0C0
4180
7F00
ENDCHAR
STARTCHAR 0409
ENCODING 1033
SWIDTH 1068 0
DWIDTH 31 0
BBX 29 21 1 0
BITMAP
0FFFF000
01838000
01038000
01038000
01038000
01038000
01038000
01038000
01038000
0103FF00
010380C0
01038060
01038070
03038030
03038038
22038038
F2038030
F2038030
E6038060
C40380C0
781FFF80
ENDCHAR
STARTCHAR 040A
ENCODING 1034
SWIDTH 1103 0
DWIDTH 32 0
BBX 28 21 2 0
BITMAP
FF0FF000
1C038000
1C038000
1C038000
1C038000
1C038000
1C038000
1C038000
1C038000
1FFFFF00
1C0380C0
1C038060
1C038070
1C038030
1C038030
1C038030
1C038030
1C038070
1C038060
1C0380C0
FF0FFF80
ENDCHAR
STARTCHAR 040B
ENCODING 1035
SWIDTH 896 0
DWIDTH 26 0
BBX 22 21 3 0
BITMAP
FFFF00
C38300
838100
838100
838100
038100
038100
038000
038000
038F00
03B1C0
03C0E0
0380E0
0380E0
0380E0
0380E0
0380E0
0380E0
0380E0
0380E0
1FF7FC
ENDCHAR
STARTCHAR 040C
ENCODING 1036
SWIDTH 758 0
DWIDTH 22 0
BBX 19 28 2 1
BITMAP
001800
003000
006000
004000
008000
000000
000000
FF8F00
1C1380
1C1780
1C1780
1C1700
1C1000
1C1000
1C1000
1C2000
1FC000
1C3000
1C1800
1C0C00
1C0C00
1C0C00
1C0C00
1C0E20
1C0E20
1C0E20
1C0640
FF8380
ENDCHAR
STARTCHAR 040D
ENCODING 1037
SWIDTH 793 0
DWIDTH 23 0
BBX 19 28 2 0
BITMAP
060000
030000
038000
008000
004000
000000
000000
FF9FE0
1C0380
1C0380
1C0780
1C0780
1C0B80
1C0B80
1C1380
1C2380
1C2380
1C4380
1C4380
1C8380
1D8380
1D0380
1E0380
1E0380
1C0380
1C0380
1C0380
FF9FE0
ENDCHAR
STARTCHAR 040E
ENCODING 1038
SWIDTH 758 0
DWIDTH 22 0
BBX 20 29 1 0
BITMAP
030600
078700
070700
060300
020200
010600
00F800
000000
FF8FF0
1C0180
1E0180
0E0100
0E0100
070300
070200
038200
038600
01C400
01CC00
00E800
00E800
007800
007000
0E3000
1E3000
1E2000
1C6000
184000
0F8000
ENDCHAR
STARTCHAR 040F
ENCODING 1039
SWIDTH 827 0
DWIDTH 24 0
BBX 20 27 2 -6
BITMAP
FF8FF0
1C01C0
1C01C0
1C01C0
1C01C0
1C01C0
1C01C0
1C01C0
1C01C0
1C01C0
1C01C0
1C01C0
1C01C0
1C01C0
1C01C0
1C01C0
1C01C0
1C01C0
1C01C0
1C01C0
FFFFF0
002000
006000
006000
006000
007000
006000
ENDCHAR
STARTCHAR 0410
ENCODING 1040
SWIDTH 758 0
DWIDTH 22 0
BBX 20 21 1 0
BITMAP
002000
006000
006000
007000
00F000
00F000
00B800
013800
013800
031C00
031C00
021C00
060E00
060E00
07FE00
0C0700
0C0700
080700
180380
180380
FF1FF0
ENDCHAR
STARTCHAR 0411
ENCODING 1041
SWIDTH 689 0
DWIDTH 20 0
BBX 17 21 2 0
BITMAP
FFFF00
1C0700
1C0300
1C0300
1C0100
1C0100
1C0100
1C0100
1C0000
1FF800
1C0600
1C0300
1C0300
1C0380
1C0380
1C0380
1C0380
1C0380
1C0300
1C0600
FFF800
ENDCHAR
STARTCHAR 0412
ENCODING 1042
SWIDTH 689 0
DWIDTH 20 0
BBX 16 21 2 0
BITMAP
FFF0
1C0C
1C06
1C07
1C07
1C07
1C07
1C06
1C0C
1FF0
1C1C
1C06
1C06
1C07
1C07
1C07
1C07
1C07
1C06
1C0C
FFF0
ENDCHAR
STARTCHAR 0413
ENCODING 1043
SWIDTH 655 0
DWIDTH 19 0
BBX 16 21 2 0
BITMAP
FFFF
1C0F
1C07
1C03
1C03
1C01
1C01
1C01
1C00
1C00
1C00
1C00
1C00
1C00
1C00
1C00
1C00
1C00
1C00
1C00
FF80
ENDCHAR
STARTCHAR 0414
ENCODING 1044
SWIDTH 758 0
DWIDTH 22 0
BBX 20 27 1 -6
BITMAP
1FFFE0
030700
020700
020700
020700
020700
020700
020700
020700
020700
060700
040700
040700
040700
040700
0C0700
0C0700
080700
180700
180700
FFFFF0
E00070
C00030
C00030
800010
800010
800010
ENDCHAR
STARTCHAR 0415
ENCODING 1045
SWIDTH 689 0
DWIDTH 20 0
BBX 17 21 2 0
BITMAP
FFFF80
1C0380
1C0380
1C0180
1C0180
1C0080
1C2080
1C2000
1C2000
1C6000
1FE000
1C6000
1C2000
1C2080
1C2080
1C0080
1C0180
1C0180
1C0380
1C0780
FFFF80
ENDCHAR
STARTCHAR 0416
ENCODING 1046
SWIDTH 1034 0
DWIDTH 30 0
BBX 27 22 2 0
BITMAP
08000000
367FCF00
710E1380
790E1780
790E1780
390E1700
010E1000
010E1000
010E1000
008E2000
007FC000
018E3000
060E0C00
060E0C00
0E0E0E00
0E0E0E00
0E0E0E00
8E0E0E20
8E0E0E20
8E0E0E20
8C0E0660
787FC3C0
ENDCHAR
STARTCHAR 0417
ENCODING 1047
SWIDTH 620 0
DWIDTH 18 0
BBX 15 21 2 1
BITMAP
47F0
7818
700C
600C
600E
600C
400C
4018
0030
07E0
0030
0018
000C
700C
F80E
F80E
F00C
E00C
6018
6038
1FE0
ENDCHAR
STARTCHAR 0418
ENCODING 1048
SWIDTH 793 0
DWIDTH 23 0
BBX 19 21 2 0
BITMAP
FF9FE0
1C0380
1C0380
1C0780
1C0780
1C0B80
1C0B80
1C1380
1C2380
1C2380
1C4380
1C4380
1C8380
1D8380
1D0380
1E0380
1E0380
1C0380
1C0380
1C0380
FF9FE0
ENDCHAR
STARTCHAR 0419
ENCODING 1049
SWIDTH 793 0
DWIDTH 23 0
BBX 19 29 2 0
BITMAP
060C00
0F1E00
0E0E00
0C0600
040400
020C00
01F000
000000
FF1FE0
1C0380
1C0380
1C0780
1C0780
1C0B80
1C0B80
1C1380
1C2380
1C2380
1C4380
1C4380
1C8380
1D8380
1D0380
1E0380
1E0380
1C0380
1C0380
1C0380
FF1FE0
ENDCHAR
STARTCHAR 041A
ENCODING 1050
SWIDTH 758 0
DWIDTH 22 0
BBX 19 21 2 1
BITMAP
FF8F00
1C1380
1C1780
1C1780
1C1700
1C1000
1C1000
1C1000
1C2000
1FC000
1C3000
1C1800
1C0C00
1C0C00
1C0C00
1C0C00
1C0E20
1C0E20
1C0E20
1C0640
FF8380
ENDCHAR
STARTCHAR 041B
ENCODING 1051
SWIDTH 758 0
DWIDTH 22 0
BBX 20 21 1 0
BITMAP
0FFFF0
018380
010380
010380
010380
010380
010380
010380
010380
010380
010380
010380
010380
030380
030380
220380
F20380
F20380
E60380
C40380
781FF0
ENDCHAR
STARTCHAR 041C
ENCODING 1052
SWIDTH 862 0
DWIDTH 25 0
BBX 21 21 2 0
BITMAP
FC01F8
1E01E0
1E01E0
1E02E0
1602E0
1702E0
1702E0
1304E0
1384E0
1384E0
1184E0
11C8E0
11C8E0
10C8E0
10D0E0
10F0E0
10F0E0
1070E0
1060E0
1060E0
FE27F8
ENDCHAR
STARTCHAR 041D
ENCODING 1053
SWIDTH 793 0
DWIDTH 23 0
BBX 20 21 2 0
BITMAP
FF0FF0
1C0380
1C0380
1C0380
1C0380
1C0380
1C0380
1C0380
1C0380
1FFF80
1C0380
1C0380
1C0380
1C0380
1C0380
1C0380
1C0380
1C0380
1C0380
1C0380
FF0FF0
ENDCHAR
STARTCHAR 041E
ENCODING 1054
SWIDTH 689 0
DWIDTH 20 0
BBX 17 22 2 0
BITMAP
008000
077000
180800
100C00
300600
600600
600300
600300
E00300
E00300
E00300
E00380
E00380
E00300
E00300
600300
600300
600600
300600
100C00
180800
07F000
ENDCHAR
STARTCHAR 041F
ENCODING 1055
SWIDTH 793 0
DWIDTH 23 0
BBX 20 21 2 0
BITMAP
FFFFF0
1C0380
1C0380
1C0380
1C0380
1C0380
1C0380
1C0380
1C0380
1C0380
1C0380
1C0380
1C0380
1C0380
1C0380
1C0380
1C0380
1C0380
1C0380
1C0380
FF0FF0
ENDCHAR
STARTCHAR 0420
ENCODING 1056
SWIDTH 689 0
DWIDTH 20 0
BBX 17 21 2 0
BITMAP
FFF800
1C0E00
1C0700
1C0300
1C0300
1C0380
1C0300
1C0300
1C0600
1C0C00
1FF000
1C0000
1C0000
1C0000
1C0000
1C0000
1C0000
1C0000
1C0000
1C0000
FF8000
ENDCHAR
STARTCHAR 0421
ENCODING 1057
SWIDTH 655 0
DWIDTH 19 0
BBX 15 21 2 1
BITMAP
0FE2
1036
301E
200E
6006
6006
E006
E002
E000
E000
E000
E000
E000
E002
6002
6002
6004
2004
300C
1808
07F0
ENDCHAR
STARTCHAR 0422
ENCODING 1058
SWIDTH 724 0
DWIDTH 21 0
BBX 17 21 2 0
BITMAP
FFFF80
E1C380
C1C180
C1C180
C1C080
81C080
81C080
81C080
01C000
01C000
01C000
01C000
01C000
01C000
01C000
01C000
01C000
01C000
01C000
01C000
0FF800
ENDCHAR
STARTCHAR 0423
ENCODING 1059
SWIDTH 758 0
DWIDTH 22 0
BBX 20 21 1 0
BITMAP
FF8FF0
1C0180
1C0180
0E0180
0E0100
070100
070200
038200
038600
01C400
01C400
00EC00
00E800
007800
007000
0E3000
1E3000
1E2000
1C6000
184000
0F8000
ENDCHAR
STARTCHAR 0424
ENCODING 1060
SWIDTH 862 0
DWIDTH 25 0
BBX 22 21 2 0
BITMAP
03FF00
007000
007000
007000
07FF80
187060
707030
607038
E07018
E07018
E0701C
E07018
E07018
607038
707030
307060
0FFF80
007000
007000
007000
03FF00
ENDCHAR
STARTCHAR 0425
ENCODING 1061
SWIDTH 758 0
DWIDTH 22 0
BBX 19 21 2 0
BITMAP
FF9FE0
0E0700
0E0600
070400
070C00
038800
03D000
01D000
01E000
00E000
007000
00F000
01B800
013800
021C00
061C00
040E00
080E00
180700
180700
FF1FE0
ENDCHAR
STARTCHAR 0426
ENCODING 1062
SWIDTH 827 0
DWIDTH 24 0
BBX 21 27 2 -6
BITMAP
FF0FF0
1C0380
1C0380
1C0380
1C0380
1C0380
1C0380
1C0380
1C0380
1C0380
1C0380
1C0380
1C0380
1C0380
1C0380
1C0380
1C0380
1C0380
1C0380
1C0380
FFFFC0
000038
000018
000018
000008
000008
000008
ENDCHAR
STARTCHAR 0427
ENCODING 1063
SWIDTH 724 0
DWIDTH 21 0
BBX 19 21 1 0
BITMAP
FF1FE0
1C0700
1C0700
1C0700
1C0700
1C0700
1C0700
1C0700
1C0700
1C0700
0C1F00
03E700
000700
000700
000700
000700
000700
000700
000700
000700
003FE0
ENDCHAR
STARTCHAR 0428
ENCODING 1064
SWIDTH 1137 0
DWIDTH 33 0
BBX 29 21 2 0
BITMAP
FFBFE7F8
1C0700C0
1C0700C0
1C0700C0
1C0700C0
1C0700C0
1C0700C0
1C0700C0
1C0700C0
1C0700C0
1C0700C0
1C0700C0
1C0700C0
1C0700C0
1C0700C0
1C0700C0
1C0700C0
1C0700C0
1C0700C0
1C0700C0
FFFFFFF8
ENDCHAR
STARTCHAR 0429
ENCODING 1065
SWIDTH 1137 0
DWIDTH 33 0
BBX 30 27 2 -6
BITMAP
FFBFE7F8
1C0701C0
1C0701C0
1C0701C0
1C0701C0
1C0701C0
1C0701C0
1C0701C0
1C0701C0
1C0701C0
1C0701C0
1C0701C0
1C0701C0
1C0701C0
1C0701C0
1C0701C0
1C0701C0
1C0701C0
1C0701C0
1C0701C0
FFFFFFE0
0000001C
0000000C
0000000C
00000004
00000004
00000004
ENDCHAR
STARTCHAR 042A
ENCODING 1066
SWIDTH 896 0
DWIDTH 26 0
BBX 22 21 3 0
BITMAP
FFFC00
C0E000
C0E000
80E000
80E000
00E000
00E000
00E000
00E000
00FFC0
00E070
00E038
00E018
00E01C
00E01C
00E01C
00E01C
00E018
00E038
00E030
07FFC0
ENDCHAR
STARTCHAR 042B
ENCODING 1067
SWIDTH 1000 0
DWIDTH 29 0
BBX 26 21 2 0
BITMAP
FF807FC0
1C000E00
1C000E00
1C000E00
1C000E00
1C000E00
1C000E00
1C000E00
1C000E00
1FF80E00
1C0E0E00
1C070E00
1C030E00
1C038E00
1C038E00
1C038E00
1C038E00
1C030E00
1C070E00
1C060E00
FFF87FC0
ENDCHAR
STARTCHAR 042C
ENCODING 1068
SWIDTH 689 0
DWIDTH 20 0
BBX 17 21 2 0
BITMAP
FF8000
1C0000
1C0000
1C0000
1C0000
1C0000
1C0000
1C0000
1C0000
1FF800
1C0E00
1C0700
1C0300
1C0380
1C0380
1C0380
1C0380
1C0300
1C0700
1C0600
FFF800
ENDCHAR
STARTCHAR 042D
ENCODING 1069
SWIDTH 620 0
DWIDTH 18 0
BBX 15 22 2 0
BITMAP
0100
8EE0
7030
6018
6018
400C
400C
400C
800C
000E
0FFE
000E
000C
000C
600C
F00C
F01C
E018
C018
4030
6020
1FC0
ENDCHAR
STARTCHAR 042E
ENCODING 1070
SWIDTH 1000 0
DWIDTH 29 0
BBX 26 22 2 0
BITMAP
00004000
FF83B800
1C040400
1C0C0600
1C180300
1C180300
1C300180
1C300180
1C300180
1C300180
1C7001C0
1FF001C0
1C7001C0
1C300180
1C300180
1C300180
1C300180
1C180300
1C180300
1C0C0600
1C040400
FF83F800
ENDCHAR
STARTCHAR 042F
ENCODING 1071
SWIDTH 758 0
DWIDTH 22 0
BBX 19 21 2 0
BITMAP
03FFE0
060700
0C0700
1C0700
1C0700
1C0700
1C0700
0C0700
060700
01FF00
030700
070700
060700
0E0700
0E0700
0E0700
8E0700
8C0700
DC0700
7C0700
783FE0
ENDCHAR
STARTCHAR 0430
ENCODING 1072
SWIDTH 517 0
DWIDTH 15 0
BBX 13 14 1 0
BITMAP
1F00
2180
61C0
71C0
71C0
01C0
0FC0
31C0
61C0
E1C0
E1C8
E1C8
E2D8
3CF0
ENDCHAR
STARTCHAR 0431
ENCODING 1073
SWIDTH 482 0
DWIDTH 14 0
BBX 12 21 1 0
BITMAP
0020
0060
01C0
0780
1E00
3000
2000
4F00
B080
E0C0
E060
E060
E060
E070
E070
E060
E060
6060
60C0
3080
0F00
ENDCHAR
STARTCHAR 0432
ENCODING 1074
SWIDTH 482 0
DWIDTH 14 0
BBX 12 14 1 0
BITMAP
FF80
38C0
38E0
38E0
38E0
38C0
3F00
38C0
3860
3870
3870
3860
38E0
FF80
ENDCHAR
STARTCHAR 0433
ENCODING 1075
SWIDTH 448 0
DWIDTH 13 0
BBX 11 14 1 0
BITMAP
FFE0
3860
3860
3820
3820
3800
3800
3800
3800
3800
3800
3800
3800
FC00
ENDCHAR
STARTCHAR 0434
ENCODING 1076
SWIDTH 517 0
DWIDTH 15 0
BBX 13 19 1 -5
BITMAP
3FF0
08E0
08E0
08E0
08E0
08E0
08E0
08E0
10E0
10E0
10E0
10E0
20E0
3FE0
C018
8008
8008
8008
8000
ENDCHAR
STARTCHAR 0435
ENCODING 1077
SWIDTH 448 0
DWIDTH 13 0
BBX 10 14 1 0
BITMAP
1E00
3180
6180
60C0
E0C0
E0C0
FFC0
E000
E000
E040
6040
6040
3080
1F00
ENDCHAR
STARTCHAR 0436
ENCODING 1078
SWIDTH 758 0
DWIDTH 22 0
BBX 20 14 1 0
BITMAP
39F9C0
64E2C0
74E2C0
04E280
04E200
04E200
07FE00
18E180
38E180
38E1C0
B8E1D0
B8E1D0
B0E1D0
71F8E0
ENDCHAR
STARTCHAR 0437
ENCODING 1079
SWIDTH 413 0
DWIDTH 12 0
BBX 10 14 1 0
BITMAP
9E00
E380
C180
81C0
8180
0300
1E00
0180
41C0
E1C0
C1C0
81C0
4180
3E00
ENDCHAR
STARTCHAR 0438
ENCODING 1080
SWIDTH 551 0
DWIDTH 16 0
BBX 14 14 1 0
BITMAP
FCFC
3870
3870
3870
38F0
3970
3970
3A70
3A70
3C70
3870
3870
3870
FCFC
ENDCHAR
STARTCHAR 0439
ENCODING 1081
SWIDTH 586 0
DWIDTH 17 0
BBX 14 19 1 0
BITMAP
1CE0
1CE0
1020
0FC0
0000
FCFC
3038
3038
3078
30B8
30B8
3138
3238
3438
3438
3838
3038
3038
FCFC
ENDCHAR
STARTCHAR 043A
ENCODING 1082
SWIDTH 517 0
DWIDTH 15 0
BBX 13 14 1 0
BITMAP
FC60
38B0
38F0
38A0
3880
3900
3E00
3980
38C0
38C0
38C8
38C8
38C8
FC70
ENDCHAR
STARTCHAR 043B
ENCODING 1083
SWIDTH 551 0
DWIDTH 16 0
BBX 13 14 1 0
BITMAP
1FF8
0470
0470
0470
0470
0470
0470
0470
0470
0470
C870
E870
C870
71F8
ENDCHAR
STARTCHAR 043C
ENCODING 1084
SWIDTH 586 0
DWIDTH 17 0
BBX 15 14 1 0
BITMAP
F83E
383C
383C
3C3C
2C5C
2C5C
2C5C
269C
269C
269C
231C
231C
231C
F97E
ENDCHAR
STARTCHAR 043D
ENCODING 1085
SWIDTH 551 0
DWIDTH 16 0
BBX 14 14 1 0
BITMAP
FCFC
3870
3870
3870
3870
3870
3FF0
3870
3870
3870
3870
3870
3870
FCFC
ENDCHAR
STARTCHAR 043E
ENCODING 1086
SWIDTH 482 0
DWIDTH 14 0
BBX 12 14 1 0
BITMAP
0F00
3080
60C0
6060
E060
E060
E070
E070
E060
E060
6060
60C0
3080
0F00
ENDCHAR
STARTCHAR 043F
ENCODING 1087
SWIDTH 551 0
DWIDTH 16 0
BBX 14 14 1 0
BITMAP
FFFC
3870
3870
3870
3870
3870
3870
3870
3870
3870
3870
3870
3870
FCFC
ENDCHAR
STARTCHAR 0440
ENCODING 1088
SWIDTH 517 0
DWIDTH 15 0
BBX 13 21 1 -7
BITMAP
FBC0
3C60
3830
3830
3830
3830
3838
3838
3830
3830
3830
3830
3C60
3BC0
3800
3800
3800
3800
3800
3800
FC00
ENDCHAR
STARTCHAR 0441
ENCODING 1089
SWIDTH 413 0
DWIDTH 12 0
BBX 10 14 1 0
BITMAP
1F00
3080
6040
60C0
E1C0
E080
E000
E000
E000
E000
6040
6080
3080
1F00
ENDCHAR
STARTCHAR 0442
ENCODING 1090
SWIDTH 482 0
DWIDTH 14 0
BBX 11 14 2 0
BITMAP
FFE0
8E60
8E60
0E20
0E20
0E00
0E00
0E00
0E00
0E00
0E00
0E00
0E00
3F00
ENDCHAR
STARTCHAR 0443
ENCODING 1091
SWIDTH 517 0
DWIDTH 15 0
BBX 15 21 0 -7
BITMAP
FE7E
1810
1810
1C10
0C20
0C20
0E20
0640
0640
0640
0380
0380
0380
0180
0100
0100
0100
6200
7200
6400
3800
ENDCHAR
STARTCHAR 0444
ENCODING 1092
SWIDTH 655 0
DWIDTH 19 0
BBX 17 27 1 -6
BITMAP
022000
024000
014000
01C000
01C000
01C000
1DDC00
23E600
63C300
61C300
E1C300
E1C300
E1C380
E1C380
E1C300
E1C300
61C300
63C300
23E600
1DDC00
01C000
01C000
01C000
014000
024000
022000
040000
ENDCHAR
STARTCHAR 0445
ENCODING 1093
SWIDTH 551 0
DWIDTH 16 0
BBX 14 14 1 0
BITMAP
7CF8
3860
1840
0C80
0E80
0700
0700
0380
0580
05C0
08C0
10E0
1060
F9FC
ENDCHAR
STARTCHAR 0446
ENCODING 1094
SWIDTH 551 0
DWIDTH 16 0
BBX 15 18 1 -4
BITMAP
FCFC
3870
3870
3870
3870
3870
3870
3870
3870
3870
3870
3870
3870
FFFE
000E
0006
0002
0002
ENDCHAR
STARTCHAR 0447
ENCODING 1095
SWIDTH 517 0
DWIDTH 15 0
BBX 13 14 1 0
BITMAP
FDF8
38E0
38E0
38E0
38E0
38E0
38E0
1FE0
00E0
00E0
00E0
00E0
00E0
01F8
ENDCHAR
STARTCHAR 0448
ENCODING 1096
SWIDTH 793 0
DWIDTH 23 0
BBX 20 14 1 0
BITMAP
FDFBF0
3870E0
3870E0
3870E0
3870E0
3870E0
3870E0
3870E0
3870E0
3870E0
3870E0
3870E0
3870E0
FFFFF0
ENDCHAR
STARTCHAR 0449
ENCODING 1097
SWIDTH 758 0
DWIDTH 22 0
BBX 21 18 1 -4
BITMAP
FDFBF0
3870E0
3870E0
3870E0
3870E0
3870E0
3870E0
3870E0
3870E0
3870E0
3870E0
3870E0
3870E0
FFFFF8
000038
000018
000008
000008
ENDCHAR
STARTCHAR 044A
ENCODING 1098
SWIDTH 551 0
DWIDTH 16 0
BBX 15 14 1 0
BITMAP
FF80
C700
8700
8700
8700
0700
07F0
071C
070C
070C
070E
070C
071C
1FF0
ENDCHAR
STARTCHAR 044B
ENCODING 1099
SWIDTH 689 0
DWIDTH 20 0
BBX 17 14 1 0
BITMAP
FC1F80
380700
380700
380700
380700
380700
3F8700
38E700
386700
386700
387700
386700
38E700
FF9F80
ENDCHAR
STARTCHAR 044C
ENCODING 1100
SWIDTH 448 0
DWIDTH 13 0
BBX 12 14 1 0
BITMAP
FC00
3800
3800
3800
3800
3800
3F80
38E0
3860
3860
3870
3860
38E0
FF80
ENDCHAR
STARTCHAR 044D
ENCODING 1101
SWIDTH 448 0
DWIDTH 13 0
BBX 10 14 2 0
BITMAP
9E00
E300
C180
8180
81C0
01C0
3FC0
01C0
01C0
C1C0
C180
8180
8300
7E00
ENDCHAR
STARTCHAR 044E
ENCODING 1102
SWIDTH 655 0
DWIDTH 19 0
BBX 17 14 1 0
BITMAP
FC3C00
38C600
39C300
398300
398380
3B8380
3F8380
3B8380
398380
398380
398300
38C300
384600
FC3C00
ENDCHAR
STARTCHAR 044F
ENCODING 1103
SWIDTH 551 0
DWIDTH 16 0
BBX 13 14 1 0
BITMAP
07F8
1C70
1870
3870
1870
1C70
07F0
0870
1870
1870
3870
B870
B870
71F8
ENDCHAR
STARTCHAR 0450
ENCODING 1104
SWIDTH 448 0
DWIDTH 13 0
BBX 10 21 1 0
BITMAP
6000
7000
3800
1800
0400
0000
0000
1E00
3180
6180
60C0
E0C0
E0C0
FFC0
E000
E000
E040
6040
6040
3080
1F00
ENDCHAR
STARTCHAR 0451
ENCODING 1105
SWIDTH 448 0
DWIDTH 13 0
BBX 10 20 1 0
BITMAP
3180
71C0
3180
0000
0000
0000
1E00
3180
6180
60C0
E0C0
E0C0
FFC0
E000
E000
E040
6040
6040
3080
1F00
ENDCHAR
STARTCHAR 0452
ENCODING 1106
SWIDTH 482 0
DWIDTH 14 0
BBX 12 28 1 -7
BITMAP
8400
4800
6800
3800
3800
3800
3800
FF00
3800
3800
3800
3B80
3CE0
3860
3860
3870
3870
3860
3860
3860
FC60
0060
00C0
00C0
0080
0100
0200
0400
ENDCHAR
STARTCHAR 0453
ENCODING 1107
SWIDTH 448 0
DWIDTH 13 0
BBX 11 20 1 1
BITMAP
0180
0180
0300
0200
0000
0000
FFE0
3860
3860
3840
3820
3800
3800
3800
3800
3800
3800
3800
3800
FC00
ENDCHAR
STARTCHAR 0454
ENCODING 1108
SWIDTH 448 0
DWIDTH 13 0
BBX 10 14 1 0
BITMAP
1E40
31C0
60C0
6040
E040
E000
FF00
E000
E000
E1C0
60C0
6040
3080
1F00
ENDCHAR
STARTCHAR 0455
ENCODING 1109
SWIDTH 448 0
DWIDTH 13 0
BBX 10 14 2 0
BITMAP
3C80
C380
8180
8080
C080
F000
3E00
0F80
83C0
80C0
C040
C040
A080
9F00
ENDCHAR
STARTCHAR 0456
ENCODING 1110
SWIDTH 241 0
DWIDTH 7 0
BBX 6 20 1 0
BITMAP
70
70
70
00
00
00
F0
70
70
70
70
70
70
70
70
70
70
70
70
FC
ENDCHAR
STARTCHAR 0457
ENCODING 1111
SWIDTH 310 0
DWIDTH 9 0
BBX 8 19 1 0
BITMAP
C6
E7
C6
00
00
7C
1C
1C
1C
1C
1C
1C
1C
1C
1C
1C
1C
1C
7E
ENDCHAR
STARTCHAR 0458
ENCODING 1112
SWIDTH 310 0
DWIDTH 9 0
BBX 8 28 -1 -7
BITMAP
06
07
06
00
00
00
00
1F
07
07
07
07
07
07
07
07
07
07
07
07
07
07
07
46
E6
C6
CC
78
ENDCHAR
STARTCHAR 0459
ENCODING 1113
SWIDTH 724 0
DWIDTH 21 0
BBX 19 14 1 0
BITMAP
1FF800
047000
047000
047000
047000
047000
047F80
0470C0
0470E0
0470E0
C870E0
E870E0
C870C0
71FF80
ENDCHAR
STARTCHAR 045A
ENCODING 1114
SWIDTH 689 0
DWIDTH 20 0
BBX 19 14 1 0
BITMAP
FDF800
387000
387000
387000
387000
387000
3FFF00
387180
3870C0
3870C0
3870E0
3870C0
3871C0
FDFF00
ENDCHAR
STARTCHAR 045B
ENCODING 1115
SWIDTH 517 0
DWIDTH 15 0
BBX 13 21 1 0
BITMAP
8400
4800
6800
3800
3800
3800
3800
FF00
3800
3800
3800
3BC0
3C60
3860
3870
3870
3870
3870
3870
3870
FDF8
ENDCHAR
STARTCHAR 045C
ENCODING 1116
SWIDTH 517 0
DWIDTH 15 0
BBX 13 21 1 0
BITMAP
0060
00E0
00C0
0180
0100
0200
0000
FC60
38B0
38F0
38A0
3880
3900
3E00
3980
38C0
38C0
38C8
38C8
38C8
FC70
ENDCHAR
STARTCHAR 045D
ENCODING 1117
SWIDTH 551 0
DWIDTH 16 0
BBX 14 20 1 1
BITMAP
1800
1C00
0400
0200
0000
0000
FCFC
3870
3870
3870
38F0
3970
3970
3A70
3A70
3C70
3870
3870
3870
FCFC
ENDCHAR
STARTCHAR 045E
ENCODING 1118
SWIDTH 517 0
DWIDTH 15 0
BBX 15 26 0 -7
BITMAP
0E70
0E70
0810
07E0
0000
FE7E
1818
1810
1C10
0C20
0C20
0E20
0620
0640
0740
0340
0380
0380
0180
0100
0100
0100
6200
7200
6600
3C00
ENDCHAR
STARTCHAR 045F
ENCODING 1119
SWIDTH 517 0
DWIDTH 15 0
BBX 13 19 1 -5
BITMAP
F8F8
3860
3860
3860
3860
3860
3860
3860
3860
3860
3860
3860
3860
FFF8
0300
0300
0300
0700
0300
ENDCHAR
STARTCHAR 0460
ENCODING 1120
SWIDTH 931 0
DWIDTH 27 0
BBX 24 21 2 0
BITMAP
E0381E
E0380E
E0380F
E0380F
E0380F
E03806
E03806
601C06
701C06
701C06
701C06
301E04
381E04
381F04
1C2708
1C2788
0E4388
0E43D0
0781E0
0380E0
030040
ENDCHAR
STARTCHAR 0461
ENCODING 1121
SWIDTH 689 0
DWIDTH 20 0
BBX 18 14 1 0
BITMAP
E1C380
E1C3C0
E1C3C0
E0C180
E0C180
60C180
60E180
70E180
30E100
393100
193200
1E1A00
0E1C00
040800
ENDCHAR
STARTCHAR 0462
ENCODING 1122
SWIDTH 793 0
DWIDTH 23 0
BBX 20 21 2 0
BITMAP
0FF800
01C000
FFFF80
E1C380
C1C180
81C080
81C080
81C080
01C000
01FF00
01C0C0
01C060
01C060
01C070
01C070
01C070
01C070
01C070
01C060
01C0C0
0FFF00
ENDCHAR
STARTCHAR 0463
ENCODING 1123
SWIDTH 551 0
DWIDTH 16 0
BBX 15 21 1 0
BITMAP
1080
0880
0D00
0700
0700
0700
0700
FFF0
C710
8710
8710
8710
0700
07F0
071C
070C
070C
070E
070C
071C
1FF0
ENDCHAR
STARTCHAR 0464
ENCODING 1124
SWIDTH 965 0
DWIDTH 28 0
BBX 24 21 2 1
BITMAP
FF87F2
1C0C0E
1C1806
1C1806
1C3002
1C3002
1C3002
1C3002
1C7000
1FFFF0
1C7000
1C7000
1C3000
1C3006
1C300F
1C300F
1C1807
1C1803
1C0C02
1C0406
FF83F8
ENDCHAR
STARTCHAR 0465
ENCODING 1125
SWIDTH 620 0
DWIDTH 18 0
BBX 16 14 1 0
BITMAP
FC7D
38C3
3981
3981
3981
3B80
3FFC
3B80
3980
3983
3983
3881
38C2
FC3C
ENDCHAR
STARTCHAR 0466
ENCODING 1126
SWIDTH 827 0
DWIDTH 24 0
BBX 23 21 1 0
BITMAP
001000
001800
001800
003C00
003C00
006E00
004E00
00CE00
008700
018700
018380
030380
0301C0
0201C0
07FFE0
0438E0
0C38E0
083870
183870
383878
FEFEFE
ENDCHAR
STARTCHAR 0467
ENCODING 1127
SWIDTH 586 0
DWIDTH 17 0
BBX 16 14 1 0
BITMAP
0080
0180
01C0
02C0
02C0
0460
0460
0870
0830
1838
16D8
229C
210C
F11F
ENDCHAR
STARTCHAR 0468
ENCODING 1128
SWIDTH 1206 0
DWIDTH 35 0
BBX 32 21 2 0
BITMAP
FF000400
1C000400
1C000E00
1C000E00
1C001F00
1C001700
1C003380
1C002380
1C006380
1C0041C0
1C0041C0
1C00C0E0
1C0080E0
1C0180F0
1FFFFFF0
1C031C70
1C021C38
1C061C38
1C041C1C
1C0E1C1C
FF3F7F7F
ENDCHAR
STARTCHAR 0469
ENCODING 1129
SWIDTH 827 0
DWIDTH 24 0
BBX 23 14 1 0
BITMAP
FC0100
380300
380380
380580
380580
3808C0
3808C0
381060
381060
3FF8F0
382530
382538
384218
FDF23E
ENDCHAR
STARTCHAR 046A
ENCODING 1130
SWIDTH 1034 0
DWIDTH 30 0
BBX 27 21 2 0
BITMAP
07FFFC00
01C01000
01E02000
00E06000
00704000
00708000
00398000
003D0000
001E0000
00FFE000
030E3800
070E1C00
060E1C00
0E0E0E00
0E0E0E00
0E0E0E00
8E0E0E20
8C0E0E20
9C0E0620
9C0E0760
787F83C0
ENDCHAR
STARTCHAR 046B
ENCODING 1131
SWIDTH 724 0
DWIDTH 21 0
BBX 20 14 0 0
BITMAP
0FFF80
070200
038200
018400
01C800
00F000
07FF00
1C7180
187180
1870C0
9870C0
9870D0
9870D0
71F860
ENDCHAR
STARTCHAR 046C
ENCODING 1132
SWIDTH 1344 0
DWIDTH 39 0
BBX 36 21 2 0
BITMAP
FF03FFFE00
1C00E00800
1C00701800
1C00781000
1C00382000
1C001C6000
1C001E4000
1C000E8000
1C000F8000
1FFFFFF000
1C01C70C00
1C03870E00
1C03870600
1C07070700
1C07070700
1C07070700
1C47070710
1C47070310
1C46070390
1C4E0703B0
FF3C1FE1E0
ENDCHAR
STARTCHAR 046D
ENCODING 1133
SWIDTH 965 0
DWIDTH 28 0
BBX 26 14 1 0
BITMAP
FC3FFE00
381C0800
380E0800
38061000
38072000
3803C000
3FFFFC00
3831C600
3861C600
3861C300
3861C300
3A61C340
3961C340
FCC7E180
ENDCHAR
STARTCHAR 046E
ENCODING 1134
SWIDTH 551 0
DWIDTH 16 0
BBX 13 34 2 -7
BITMAP
1860
18E0
0D40
0D00
0E00
1F80
70E0
6070
E030
F030
F038
6030
0030
0060
00C0
3F00
30C0
3060
2030
2030
0038
0038
0070
0070
01E0
0FC0
3F80
7C00
C000
8000
80E0
80E0
41C0
3F00
ENDCHAR
STARTCHAR 046F
ENCODING 1135
SWIDTH 413 0
DWIDTH 12 0
BBX 10 23 1 -5
BITMAP
2180
3380
1400
1800
7E00
8380
C180
C1C0
0180
0300
7C00
6300
4180
41C0
0180
0380
0780
3E00
F000
C000
8300
8600
7C00
ENDCHAR
STARTCHAR 0470
ENCODING 1136
SWIDTH 896 0
DWIDTH 26 0
BBX 25 21 1 0
BITMAP
00FF8000
001C0000
FE1C0F00
381C1380
381C1780
1C1C2780
1C1C2300
0E1C4000
061C4000
071CC000
039C8000
039C8000
01DD0000
01DD0000
00FE0000
00FE0000
001C0000
001C0000
001C0000
001C0000
00FF8000
ENDCHAR
STARTCHAR 0471
ENCODING 1137
SWIDTH 758 0
DWIDTH 22 0
BBX 21 26 1 -7
BITMAP
01FC00
007000
007000
007000
007000
FC7070
307090
3870B8
187130
187100
1C7300
0C7200
0C7200
067200
067400
077400
037400
037800
03F800
007000
007000
007000
007000
007000
007000
01FC00
ENDCHAR
STARTCHAR 0472
ENCODING 1138
SWIDTH 689 0
DWIDTH 20 0
BBX 17 22 2 0
BITMAP
008000
077000
180800
100C00
300600
600600
600300
600300
E00300
E00300
E00300
FFFF80
E00380
E00300
E00300
600300
600300
600600
300600
100C00
180800
07F000
ENDCHAR
STARTCHAR 0473
ENCODING 1139
SWIDTH 482 0
DWIDTH 14 0
BBX 12 14 1 0
BITMAP
0F00
3080
60C0
6060
E060
E060
FFF0
E070
E060
E060
6060
60C0
3080
0F00
ENDCHAR
STARTCHAR 0474
ENCODING 1140
SWIDTH 793 0
DWIDTH 23 0
BBX 22 22 1 0
BITMAP
FF8078
1C009C
1C00BC
0E013C
0E0138
060100
070200
070200
030200
038600
038400
018400
01CC00
01C800
00C800
00E800
00F000
007000
007000
007000
002000
002000
ENDCHAR
STARTCHAR 0475
ENCODING 1141
SWIDTH 517 0
DWIDTH 15 0
BBX 15 14 0 0
BITMAP
FC0C
3816
382C
1824
1C20
0C40
0C40
0E40
0680
0780
0380
0300
0100
0100
ENDCHAR
STARTCHAR 0476
ENCODING 1142
SWIDTH 793 0
DWIDTH 23 0
BBX 22 29 1 -1
BITMAP
033000
03B000
019800
00CC00
004400
000000
000000
FF8078
1C009C
0C00BC
0E013C
0E0138
060100
070200
070200
030200
038600
038400
018400
01C400
01C800
00C800
00E800
00F800
007000
007000
007000
002000
002000
ENDCHAR
STARTCHAR 0477
ENCODING 1143
SWIDTH 551 0
DWIDTH 16 0
BBX 15 21 1 0
BITMAP
3300
3B00
1980
0CC0
0440
0220
0000
FC1C
3016
382C
1824
1820
0C40
0C40
0E40
0680
0680
0380
0300
0300
0100
ENDCHAR
STARTCHAR 0478
ENCODING 1144
SWIDTH 1206 0
DWIDTH 35 0
BBX 32 28 2 -6
BITMAP
07E00000
18180000
10080000
300C0000
60060000
60060000
60060000
E0073E06
E0070C0B
E0070C0F
E0070C12
E0070610
E0070610
E0070620
60060320
60060320
60060340
300C01C0
300801C0
18180180
04200080
03C00080
00000100
00000100
00000100
00000180
000001C0
000000C0
ENDCHAR
STARTCHAR 0479
ENCODING 1145
SWIDTH 931 0
DWIDTH 27 0
BBX 26 20 1 -7
BITMAP
1F1F8180
318702C0
60C70580
60C30480
E0E38400
E0E18800
E0E18800
E0E0C800
E0E0D000
E0E0F000
60C07000
60C06000
31802000
1F002000
00002000
00004000
00004000
00004000
00007000
00007000
ENDCHAR
STARTCHAR 047A
ENCODING 1146
SWIDTH 827 0
DWIDTH 24 0
BBX 21 26 2 -2
BITMAP
007000
00F000
03FC00
047300
180080
1000C0
300060
600060
600030
600030
E00030
E00030
E00038
E00038
E00030
E00030
600030
600030
600060
300060
1000C0
180080
047300
03FC00
00F000
007000
ENDCHAR
STARTCHAR 047B
ENCODING 1147
SWIDTH 586 0
DWIDTH 17 0
BBX 15 17 1 -2
BITMAP
0300
0780
1B60
3018
6018
600C
E00C
E00C
E00E
E00C
E00C
600C
6018
3018
1B20
07C0
0300
ENDCHAR
STARTCHAR 047C
ENCODING 1148
SWIDTH 1034 0
DWIDTH 30 0
BBX 27 28 2 0
BITMAP
003F0000
00C0E000
018E7C00
00131E00
00110400
00110000
00012000
07F1DC00
18138300
303BC180
307BC180
607BC0C0
603180C0
E00000C0
E00000E0
E00000E0
E00000E0
E00000E0
E03FC0E0
E00E00E0
E00E00E0
600E00C0
600E00C0
600E00C0
300E0180
300E0180
180B0300
0771FC00
ENDCHAR
STARTCHAR 047D
ENCODING 1149
SWIDTH 724 0
DWIDTH 21 0
BBX 19 19 1 0
BITMAP
01E000
021800
04C700
012000
012000
0F1E00
31A180
61B0C0
61B0C0
E000E0
E000E0
E000E0
E1F0E0
E0E0E0
E0E0E0
60E0C0
60E0C0
30A180
0F1E00
ENDCHAR
STARTCHAR 047E
ENCODING 1150
SWIDTH 931 0
DWIDTH 27 0
BBX 24 28 2 0
BITMAP
3FFFF0
303830
303810
203810
20FE00
000000
000000
E0381E
E0380E
E0380F
E0380F
E0380F
E03806
603806
701C06
701C06
701C06
701C06
381E04
381E04
382F04
1C2708
1C2788
0E4388
0F43D0
0781E0
0380E0
030040
ENDCHAR
STARTCHAR 047F
ENCODING 1151
SWIDTH 689 0
DWIDTH 20 0
BBX 18 19 1 0
BITMAP
FFFF80
C1C180
81C080
03E000
000000
E1C380
E1C3C0
E1C1C0
E1C180
E0C180
60C180
60E180
70E180
70F100
393100
393A00
1E1A00
0E1C00
040800
ENDCHAR
STARTCHAR 0480
ENCODING 1152
SWIDTH 689 0
DWIDTH 20 0
BBX 18 21 1 0
BITMAP
FF8000
1C0000
1C0000
1C0000
1C0000
1C0000
1C0000
1C0000
1C0000
1C0000
0C0000
03FC00
000E00
000E00
000E00
000E00
000E00
000E00
000E00
000E00
00FFC0
ENDCHAR
STARTCHAR 0481
ENCODING 1153
SWIDTH 482 0
DWIDTH 14 0
BBX 12 14 1 0
BITMAP
FC00
3800
3800
3800
3800
3800
3800
0FC0
01C0
01C0
01C0
01C0
01C0
03F0
ENDCHAR
STARTCHAR 0482
ENCODING 1154
SWIDTH 413 0
DWIDTH 12 0
BBX 9 11 1 -5
BITMAP
0080
0980
0F00
0600
0700
4D80
3800
3800
6C00
4400
8000
ENDCHAR
STARTCHAR 0483
ENCODING 1155
SWIDTH 0 0
DWIDTH 0 0
BBX 11 3 -13 15
BITMAP
E0C0
FCE0
E3E0
ENDCHAR
STARTCHAR 0484
ENCODING 1156
SWIDTH 0 0
DWIDTH 0 0
BBX 11 4 -13 16
BITMAP
1E00
3F80
40C0
8020
ENDCHAR
STARTCHAR 0485
ENCODING 1157
SWIDTH 0 0
DWIDTH 0 0
BBX 4 5 -9 16
BITMAP
70
80
80
80
80
ENDCHAR
STARTCHAR 0486
ENCODING 1158
SWIDTH 0 0
DWIDTH 0 0
BBX 4 5 -10 16
BITMAP
E0
10
10
10
20
ENDCHAR
STARTCHAR 0487
ENCODING 1159
SWIDTH 0 0
DWIDTH 0 0
BBX 13 3 -14 24
BITMAP
1F80
6070
8008
ENDCHAR
STARTCHAR 0488
ENCODING 1160
SWIDTH 0 0
DWIDTH 0 0
BBX 32 30 -24 -7
BITMAP
0001C000
00022000
00041000
00041000
00000000
07000070
08800188
10400104
00000000
00000000
00000000
00000000
00000000
00000000
3800001C
44000022
82000041
00000000
00000000
00000000
00000000
00000000
00000000
0F8000F8
1040010C
10400104
00000000
0001C000
00022000
00041000
ENDCHAR
STARTCHAR 0489
ENCODING 1161
SWIDTH 0 0
DWIDTH 0 0
BBX 31 32 -23 -8
BITMAP
00010000
00020000
00020000
00030000
04038000
040100E0
04800300
03800300
03800380
00000100
00000000
00000000
00000000
00000000
00000000
00000038
9C000074
78000022
00000000
00000000
00000000
00000000
00000000
03000100
03800380
010003C0
1E010040
00038040
00018040
00008000
00010000
00010000
ENDCHAR
STARTCHAR 0490
ENCODING 1168
SWIDTH 620 0
DWIDTH 18 0
BBX 15 28 2 0
BITMAP
0002
0002
0006
0006
0006
000E
001E
FFFE
1C00
1C00
1C00
1C00
1C00
1C00
1C00
1C00
1C00
1C00
1C00
1C00
1C00
1C00
1C00
1C00
1C00
1C00
1C00
FF80
ENDCHAR
STARTCHAR 0491
ENCODING 1169
SWIDTH 448 0
DWIDTH 13 0
BBX 11 18 1 0
BITMAP
0020
0020
0060
00E0
FFE0
3800
3800
3800
3800
3800
3800
3800
3800
3800
3800
3800
3800
FC00
ENDCHAR
STARTCHAR 04A4
ENCODING 1188
SWIDTH 1034 0
DWIDTH 30 0
BBX 26 21 2 0
BITMAP
FF0FFFC0
1C0381C0
1C0380C0
1C0380C0
1C038040
1C038040
1C038040
1C038040
1C038000
1FFF8000
1C038000
1C038000
1C038000
1C038000
1C038000
1C038000
1C038000
1C038000
1C038000
1C038000
FF0FF000
ENDCHAR
STARTCHAR 04A5
ENCODING 1189
SWIDTH 689 0
DWIDTH 20 0
BBX 18 14 1 0
BITMAP
FCFFC0
3870C0
387040
387040
387040
387000
3FF000
387000
387000
387000
387000
387000
387000
FCFC00
ENDCHAR
STARTCHAR 04D8
ENCODING 1240
SWIDTH 655 0
DWIDTH 19 0
BBX 16 22 2 0
BITMAP
0100
0EE0
1010
2008
400C
400C
4006
8006
0006
0006
0007
FFFF
E007
E006
E006
E006
6006
600C
700C
3008
1810
0EE0
ENDCHAR
STARTCHAR 04D9
ENCODING 1241
SWIDTH 448 0
DWIDTH 13 0
BBX 11 14 1 0
BITMAP
1E00
2100
4180
80C0
80C0
00C0
00E0
FFE0
E0C0
E0C0
60C0
6180
3180
1E00
ENDCHAR
STARTCHAR 0510
ENCODING 1296
SWIDTH 620 0
DWIDTH 18 0
BBX 15 21 2 1
BITMAP
1FC4
303C
601C
600C
E00C
600C
6004
7004
3800
0F80
3800
7000
6000
E01C
E01E
E01E
E00E
E00E
700C
3018
1FF0
ENDCHAR
STARTCHAR 0511
ENCODING 1297
SWIDTH 448 0
DWIDTH 13 0
BBX 11 14 1 0
BITMAP
1F00
60C0
E0C0
E0E0
E000
6000
1E00
6000
E0C0
E0C0
E060
E040
7040
3F80
ENDCHAR
STARTCHAR 05D0
ENCODING 1488
SWIDTH 586 0
DWIDTH 17 0
BBX 13 16 2 0
BITMAP
4020
4060
C0F0
E0F8
F078
7838
7C30
9FC0
8F80
83C0
C1E0
E0F0
F070
F830
F830
F820
ENDCHAR
STARTCHAR 1D79
ENCODING 7545
SWIDTH 448 0
DWIDTH 13 0
BBX 11 19 1 -5
BITMAP
7FE0
7FC0
0180
0300
0400
0800
1800
1800
1C00
0E00
0F00
3380
41C0
C0E0
C060
C060
4040
6080
1F00
ENDCHAR
STARTCHAR 1E80
ENCODING 7808
SWIDTH 1068 0
DWIDTH 31 0
BBX 29 29 1 -1
BITMAP
00180000
00180000
000C0000
00060000
00030000
00000000
00000000
FF9FF3F8
0E0380E0
0E0380C0
0E0380C0
0603C080
0707C080
0705C080
0704C180
0384E100
038CE100
0388E300
01886200
01C87200
01D07600
01D07400
00D03400
00F03C00
00E03C00
00601800
00601800
00601800
00401000
ENDCHAR
STARTCHAR 1E81
ENCODING 7809
SWIDTH 758 0
DWIDTH 22 0
BBX 22 21 0 0
BITMAP
018000
01C000
00C000
006000
002000
000000
000000
FEFCFC
383820
183820
1C3820
0C3840
0C3C40
064C40
064C80
074680
038680
038700
018300
018300
010200
ENDCHAR
STARTCHAR 1E82
ENCODING 7810
SWIDTH 1103 0
DWIDTH 32 0
BBX 29 29 2 -1
BITMAP
00004000
0000C000
0001C000
00010000
00020000
00000000
00000000
FF3FE7F8
1C0700C0
1C070080
1C070080
0C078080
0E0F8180
0E0B8100
06098100
0709C300
0719C200
0711C200
0310E600
0390E400
03B0E400
01A06C00
01E07800
01E07800
01C07800
00C03000
00C03000
00C03000
00801000
ENDCHAR
STARTCHAR 1E83
ENCODING 7811
SWIDTH 758 0
DWIDTH 22 0
BBX 22 21 0 0
BITMAP
000200
000600
000C00
001800
001000
000000
000000
FEFEFC
383820
183820
1C3820
0C3840
0C2C40
064C40
064E80
074680
038680
038700
018300
018300
010200
ENDCHAR
STARTCHAR 1E84
ENCODING 7812
SWIDTH 1068 0
DWIDTH 31 0
BBX 29 28 1 -1
BITMAP
0030C000
0038E000
0030C000
00000000
00000000
00000000
FF3FC7F8
1C0700C0
1C070080
0C070080
0E078080
0E078100
0E0B8100
070B8100
0709C200
0709C200
0311C200
0390E400
0390E400
0390E400
01A0EC00
01E07800
01E07800
00E07800
00C03000
00C03000
00C03000
00402000
ENDCHAR
STARTCHAR 1E85
ENCODING 7813
SWIDTH 793 0
DWIDTH 23 0
BBX 22 20 0 0
BITMAP
018600
01CE00
018600
000000
000000
000000
FEFCFC
383830
183820
1C3820
0C3840
0C3C40
064C40
064C80
064E80
038700
038700
018700
010200
010200
ENDCHAR
STARTCHAR 1E9E
ENCODING 7838
SWIDTH 758 0
DWIDTH 22 0
BBX 20 21 1 1
BITMAP
01FFE0
03FFC0
060080
0C0100
0C0200
1C0400
1C0800
1C1000
1C3F00
1C61C0
1C00E0
1C0060
1C0070
1C0070
1C0070
1CE070
1DF070
1DE060
1DC060
1CC0C0
FC7F80
ENDCHAR
STARTCHAR 1F00
ENCODING 7936
SWIDTH 551 0
DWIDTH 16 0
BBX 13 21 2 1
BITMAP
0780
0780
0080
0080
0100
0200
0000
1E30
3F30
7330
61E0
C0E0
C0C0
C0C0
8180
8180
8380
83C0
C728
6E38
3C38
ENDCHAR
STARTCHAR 1F01
ENCODING 7937
SWIDTH 551 0
DWIDTH 16 0
BBX 13 21 2 1
BITMAP
0780
0780
0400
0400
0600
0200
0000
1C30
3E30
7360
6160
C160
C0C0
C0C0
8180
8180
8380
8340
C668
6E78
3830
ENDCHAR
STARTCHAR 1F02
ENCODING 7938
SWIDTH 551 0
DWIDTH 16 0
BBX 13 21 2 1
BITMAP
1D80
3C80
04C0
0440
0840
1020
0000
1C30
3E30
7360
6160
C0E0
C0C0
C0C0
8180
8180
8380
8340
C668
6E78
3830
ENDCHAR
STARTCHAR 1F03
ENCODING 7939
SWIDTH 551 0
DWIDTH 16 0
BBX 13 21 2 1
BITMAP
3D80
3C80
20C0
2040
1040
0820
0000
1C30
3E30
7360
6160
C0E0
C0C0
C0C0
8180
8180
8380
8340
C668
6E78
3830
ENDCHAR
STARTCHAR 1F04
ENCODING 7940
SWIDTH 551 0
DWIDTH 16 0
BBX 13 21 2 1
BITMAP
1E60
1E60
02C0
0280
0480
0900
0000
1C30
3E30
7370
6160
C160
C0C0
C0C0
8180
8180
8380
8340
C668
6E78
3830
ENDCHAR
STARTCHAR 1F05
ENCODING 7941
SWIDTH 551 0
DWIDTH 16 0
BBX 13 21 2 1
BITMAP
1E60
1EE0
10C0
1080
1980
0500
0000
1C30
3E30
7370
6160
C160
C0C0
C0C0
8180
8180
8380
8340
C668
6E78
3830
ENDCHAR
STARTCHAR 1F06
ENCODING 7942
SWIDTH 551 0
DWIDTH 16 0
BBX 13 26 2 0
BITMAP
1C30
2E30
2730
3390
31F0
37E0
0780
0080
0080
0180
0100
0000
1E38
3F30
7330
61E0
C0E0
C0C0
C0C0
8180
8180
8380
83C0
C728
6E38
3C38
ENDCHAR
STARTCHAR 1F07
ENCODING 7943
SWIDTH 551 0
DWIDTH 16 0
BBX 13 26 2 0
BITMAP
1C30
2E30
2730
3390
31F0
33E0
0780
0780
0400
0400
0200
0000
1E38
3F30
7930
6160
E0E0
C0C0
C0C0
8080
8180
8180
8340
C368
6E38
3C38
ENDCHAR
STARTCHAR 1F08
ENCODING 7944
SWIDTH 793 0
DWIDTH 23 0
BBX 21 21 2 1
BITMAP
F02000
F03000
103000
107000
207800
40F800
00B800
009C00
019C00
019C00
010E00
030E00
030E00
020700
07FF00
060700
0C0380
0C0380
0C0180
3E03E0
7F8FF8
ENDCHAR
STARTCHAR 1F09
ENCODING 7945
SWIDTH 793 0
DWIDTH 23 0
BBX 21 21 2 1
BITMAP
F02000
F02000
807000
807000
C07800
40F800
00B800
009C00
019C00
011C00
010E00
030E00
020E00
020700
07FF00
040700
0C0380
080380
080180
1C03E0
7F0FF8
ENDCHAR
STARTCHAR 1F0A
ENCODING 7946
SWIDTH 827 0
DWIDTH 24 0
BBX 24 21 -1 1
BITMAP
F60200
F60600
120700
130700
210F00
410B80
000B80
001B80
0011C0
0011C0
0031C0
0020E0
0020E0
0060E0
007FF0
004070
00C070
008038
008038
018038
0FF1FF
ENDCHAR
STARTCHAR 1F0B
ENCODING 7947
SWIDTH 862 0
DWIDTH 25 0
BBX 24 21 0 1
BITMAP
FC0200
FE0600
860600
820F00
C20F00
410F00
001B80
001380
001380
0031C0
0021C0
0021C0
0060E0
0040E0
007FE0
00C070
008070
008030
018038
038038
0FF1FF
ENDCHAR
STARTCHAR 1F0C
ENCODING 7948
SWIDTH 827 0
DWIDTH 24 0
BBX 23 21 0 1
BITMAP
F30400
F20C00
160C00
141E00
241E00
481E00
003700
002700
002700
006380
004380
004380
00C1C0
0081C0
00FFC0
0180E0
0100E0
010060
030070
070070
1FE3FE
ENDCHAR
STARTCHAR 1F0D
ENCODING 7949
SWIDTH 793 0
DWIDTH 23 0
BBX 23 21 0 1
BITMAP
F30800
F60C00
860C00
841C00
CC1E00
481E00
002E00
002700
002700
006700
004380
004380
00C380
0081C0
01FFC0
0181C0
0100E0
0300E0
0300E0
070070
1FE3FE
ENDCHAR
STARTCHAR 1F0E
ENCODING 7950
SWIDTH 827 0
DWIDTH 24 0
BBX 24 25 -1 0
BITMAP
78C000
BCC000
8E4000
C7C000
DF8200
1E0600
020600
020700
060F00
040B00
001B80
001380
001180
0031C0
0031C0
0021C0
0060E0
0060E0
007FE0
00C070
00C070
018030
018038
03C07C
0FF1FF
ENDCHAR
STARTCHAR 1F0F
ENCODING 7951
SWIDTH 827 0
DWIDTH 24 0
BBX 24 25 -1 0
BITMAP
78C000
BCC000
8E4000
C7C000
CF8200
1E0600
1E0600
100700
100F00
080B00
000B80
001B80
001180
0011C0
0031C0
0021C0
0020E0
0060E0
007FE0
004070
00C070
008030
018038
03C07C
0FF1FF
ENDCHAR
STARTCHAR 1F10
ENCODING 7952
SWIDTH 448 0
DWIDTH 13 0
BBX 10 21 2 1
BITMAP
1E00
1E00
0200
0200
0400
0800
0000
3E00
7380
C000
8000
8000
5E00
3F00
4E00
8000
8000
C040
E180
7F80
3E00
ENDCHAR
STARTCHAR 1F11
ENCODING 7953
SWIDTH 448 0
DWIDTH 13 0
BBX 10 21 2 1
BITMAP
1E00
1E00
1000
1000
0800
0400
0000
3E00
7380
C000
8000
8000
5E00
3F00
4E00
8000
8000
C040
E180
7F80
3E00
ENDCHAR
STARTCHAR 1F12
ENCODING 7954
SWIDTH 448 0
DWIDTH 13 0
BBX 10 21 2 1
BITMAP
F600
F300
1300
1100
3080
2080
0000
3E00
7380
C000
8000
8000
5E00
3F00
4E00
8000
8000
C040
E180
7F80
3E00
ENDCHAR
STARTCHAR 1F13
ENCODING 7955
SWIDTH 448 0
DWIDTH 13 0
BBX 10 21 2 1
BITMAP
7E00
7B00
4300
4100
6080
2080
0000
3E00
7380
C000
8000
8000
4E00
3F00
4E00
8000
8000
C040
E180
7F80
3E00
ENDCHAR
STARTCHAR 1F14
ENCODING 7956
SWIDTH 448 0
DWIDTH 13 0
BBX 10 21 2 1
BITMAP
7980
7980
0900
0B00
1200
2000
0000
3E00
7780
C180
8000
8000
5E00
3F00
4E00
8000
8000
C040
E180
7F80
3E00
ENDCHAR
STARTCHAR 1F15
ENCODING 7957
SWIDTH 448 0
DWIDTH 13 0
BBX 10 21 2 1
BITMAP
3980
7980
4300
4300
2200
1400
0000
3E00
7780
C180
8000
8000
5E00
3F00
4E00
8000
8000
C040
E180
7F80
3E00
ENDCHAR
STARTCHAR 1F18
ENCODING 7960
SWIDTH 931 0
DWIDTH 27 0
BBX 23 21 2 1
BITMAP
E3FFFE
F0703E
10700E
107006
307002
607002
007042
007040
0070C0
0070C0
007FC0
0071C0
0070C0
007042
007042
007002
007002
007006
007006
00701E
03FFFE
ENDCHAR
STARTCHAR 1F19
ENCODING 7961
SWIDTH 896 0
DWIDTH 26 0
BBX 22 21 2 1
BITMAP
F3FFFC
F0703C
80700C
807004
C07004
407004
007084
007080
007180
007180
007F80
007380
007180
007080
007084
007004
007004
007004
00700C
00701C
03FFFC
ENDCHAR
STARTCHAR 1F1A
ENCODING 7962
SWIDTH 931 0
DWIDTH 27 0
BBX 26 21 -1 1
BITMAP
E63FFFC0
F60703C0
130700C0
13070040
31070040
61070040
00070400
00070400
00070C00
00070C00
0007FC00
00071C00
00070C00
00070400
00070440
00070040
00070040
00070040
000700C0
000701C0
003FFFC0
ENDCHAR
STARTCHAR 1F1B
ENCODING 7963
SWIDTH 965 0
DWIDTH 28 0
BBX 26 21 0 1
BITMAP
F63FFFC0
F60703C0
820700C0
83070040
C1070040
41070040
00070840
00070800
00071800
00071800
0007F800
00073800
00071800
00070800
00070840
00070040
00070040
00070040
000700C0
000701C0
003FFFC0
ENDCHAR
STARTCHAR 1F1C
ENCODING 7964
SWIDTH 965 0
DWIDTH 28 0
BBX 26 21 0 1
BITMAP
E33FFFC0
F30703C0
120700C0
16070040
34070040
64070040
00070400
00070400
00070C00
00070C00
0007FC00
00071C00
00070C00
00070400
00070440
00070040
00070040
00070040
000700C0
000701C0
003FFFC0
ENDCHAR
STARTCHAR 1F1D
ENCODING 7965
SWIDTH 965 0
DWIDTH 28 0
BBX 26 21 0 1
BITMAP
F33FFFC0
F30703C0
860700C0
84070040
C4070040
48070040
00070840
00070800
00071800
00071800
0007F800
00073800
00071800
00070800
00070840
00070040
00070040
00070040
000700C0
000701C0
003FFFC0
ENDCHAR
STARTCHAR 1F20
ENCODING 7968
SWIDTH 586 0
DWIDTH 17 0
BBX 14 29 1 -7
BITMAP
03C0
03C0
0040
0040
0080
0100
0000
E070
B1D8
090C
0B04
0604
0604
0604
0C04
0C04
0C0C
0C0C
0C0C
1C0C
181C
001C
0018
0018
0038
0038
0038
0038
0038
ENDCHAR
STARTCHAR 1F21
ENCODING 7969
SWIDTH 586 0
DWIDTH 17 0
BBX 14 29 1 -7
BITMAP
0380
03C0
0200
0200
0300
0080
0000
E070
B1D8
090C
0B04
0E04
0E04
0E04
0C04
0C04
0C0C
0C0C
0C0C
1C0C
181C
001C
0018
0018
0038
0038
0038
0038
0038
ENDCHAR
STARTCHAR 1F22
ENCODING 7970
SWIDTH 586 0
DWIDTH 17 0
BBX 15 29 0 -7
BITMAP
0F60
0F60
0120
0130
0210
0410
0000
7078
D8EC
0986
0502
0702
0702
0602
0602
0606
0606
0E06
0C06
0C06
0C0E
000E
000C
000C
001C
001C
001C
001C
001C
ENDCHAR
STARTCHAR 1F23
ENCODING 7971
SWIDTH 551 0
DWIDTH 16 0
BBX 14 29 0 -7
BITMAP
0F60
0F60
0820
0830
0C10
0210
0000
7070
D0E8
0984
0B04
0704
0204
0604
0604
0604
0604
0C04
0C04
0C04
0C0C
000C
000C
000C
001C
001C
001C
001C
001C
ENDCHAR
STARTCHAR 1F24
ENCODING 7972
SWIDTH 586 0
DWIDTH 17 0
BBX 14 29 1 -7
BITMAP
0F30
0F20
0160
0140
0240
0400
0000
E070
B1D8
090C
0B04
0E04
0E04
0E04
0C04
0C04
0C0C
0C0C
0C0C
1C0C
181C
001C
0018
0018
0038
0038
0038
0038
0038
ENDCHAR
STARTCHAR 1F25
ENCODING 7973
SWIDTH 586 0
DWIDTH 17 0
BBX 14 29 1 -7
BITMAP
0F30
0F60
0860
0840
0C80
0280
0000
E070
B1D8
090C
0B04
0604
0604
0404
0C04
0C0C
0C0C
0C0C
1C0C
1C0C
181C
001C
0018
0018
0038
0038
0038
0038
0038
ENDCHAR
STARTCHAR 1F26
ENCODING 7974
SWIDTH 586 0
DWIDTH 17 0
BBX 14 34 1 -8
BITMAP
0E18
1B18
1998
19C8
18F8
0BF0
03C0
0040
0040
00C0
0080
0000
6070
D0E8
0984
0B04
0B04
0604
0604
0604
0604
0604
0E04
0C04
0C0C
0C0C
000C
000C
001C
001C
001C
001C
001C
0018
ENDCHAR
STARTCHAR 1F27
ENCODING 7975
SWIDTH 586 0
DWIDTH 17 0
BBX 14 34 1 -8
BITMAP
0E18
1B18
1998
19C8
18F8
09F0
03C0
03C0
0200
0200
0100
0000
6070
D0E8
0984
0B04
0B04
0604
0604
0604
0604
0604
0E04
0C04
0C0C
0C0C
000C
000C
001C
001C
001C
001C
001C
0018
ENDCHAR
STARTCHAR 1F28
ENCODING 7976
SWIDTH 1000 0
DWIDTH 29 0
BBX 26 21 2 1
BITMAP
F3FE7FC0
F0700E00
10700E00
10700E00
20700E00
40700E00
00700E00
00700E00
00700E00
007FFE00
00700E00
00700E00
00700E00
00700E00
00700E00
00700E00
00700E00
00700E00
00700E00
00700E00
03FE7FC0
ENDCHAR
STARTCHAR 1F29
ENCODING 7977
SWIDTH 1000 0
DWIDTH 29 0
BBX 26 21 2 1
BITMAP
F3FE7FC0
F0700E00
80700E00
80700E00
40700E00
20700E00
00700E00
00700E00
00700E00
007FFE00
00700E00
00700E00
00700E00
00700E00
00700E00
00700E00
00700E00
00700E00
00700E00
00700E00
03FE7FC0
ENDCHAR
STARTCHAR 1F2A
ENCODING 7978
SWIDTH 1034 0
DWIDTH 30 0
BBX 30 21 -1 1
BITMAP
F63FE7FC
F60700E0
130700E0
110700E0
210700E0
408700E0
000700E0
000700E0
000700E0
0007FFE0
000700E0
000700E0
000700E0
000700E0
000700E0
000700E0
000700E0
000700E0
000700E0
000700E0
003FE7FC
ENDCHAR
STARTCHAR 1F2B
ENCODING 7979
SWIDTH 1068 0
DWIDTH 31 0
BBX 30 21 0 1
BITMAP
F63FE7FC
F60700E0
820700E0
830700E0
410700E0
200700E0
000700E0
000700E0
000700E0
0007FFE0
000700E0
000700E0
000700E0
000700E0
000700E0
000700E0
000700E0
000700E0
000700E0
000700E0
003FE7FC
ENDCHAR
STARTCHAR 1F2C
ENCODING 7980
SWIDTH 1068 0
DWIDTH 31 0
BBX 30 21 0 1
BITMAP
F33FE7FC
F30700E0
160700E0
160700E0
240700E0
400700E0
000700E0
000700E0
000700E0
0007FFE0
000700E0
000700E0
000700E0
000700E0
000700E0
000700E0
000700E0
000700E0
000700E0
000700E0
003FE7FC
ENDCHAR
STARTCHAR 1F2D
ENCODING 7981
SWIDTH 1068 0
DWIDTH 31 0
BBX 30 21 0 1
BITMAP
F33FE7FC
F30700E0
860700E0
840700E0
440700E0
280700E0
000700E0
000700E0
000700E0
0007FFE0
000700E0
000700E0
000700E0
000700E0
000700E0
000700E0
000700E0
000700E0
000700E0
000700E0
003FE7FC
ENDCHAR
STARTCHAR 1F2E
ENCODING 7982
SWIDTH 1068 0
DWIDTH 31 0
BBX 31 25 -1 0
BITMAP
78C00000
BCC00000
8E400000
C7C00000
DFBFE3FE
1E070070
02070070
02070070
06070070
04070070
00070070
00070070
00070070
0007FFF0
00070070
00070070
00070070
00070070
00070070
00070070
00070070
00070070
00070070
00070070
003FE3FE
ENDCHAR
STARTCHAR 1F2F
ENCODING 7983
SWIDTH 1068 0
DWIDTH 31 0
BBX 31 25 -1 0
BITMAP
78C00000
BCC00000
8E400000
C7C00000
CFBFE3FE
1E070070
1E070070
10070070
10070070
08070070
00070070
00070070
00070070
0007FFF0
00070070
00070070
00070070
00070070
00070070
00070070
00070070
00070070
00070070
00070070
003FE3FE
ENDCHAR
STARTCHAR 1F30
ENCODING 7984
SWIDTH 275 0
DWIDTH 8 0
BBX 5 21 2 1
BITMAP
F0
F0
10
10
20
40
00
E0
E0
E0
C0
C0
C0
C0
80
80
80
80
C8
F8
70
ENDCHAR
STARTCHAR 1F31
ENCODING 7985
SWIDTH 310 0
DWIDTH 9 0
BBX 4 21 3 1
BITMAP
F0
F0
80
80
C0
40
00
C0
E0
E0
C0
C0
C0
C0
80
80
80
80
90
F0
70
ENDCHAR
STARTCHAR 1F32
ENCODING 7986
SWIDTH 275 0
DWIDTH 8 0
BBX 8 21 -1 1
BITMAP
F6
F6
12
13
21
40
00
18
1C
1C
18
18
18
18
10
10
10
12
12
1E
0E
ENDCHAR
STARTCHAR 1F33
ENCODING 7987
SWIDTH 275 0
DWIDTH 8 0
BBX 8 21 0 1
BITMAP
FC
F6
86
82
83
41
00
38
38
38
38
30
30
30
20
20
20
20
26
3E
1C
ENDCHAR
STARTCHAR 1F34
ENCODING 7988
SWIDTH 310 0
DWIDTH 9 0
BBX 8 21 1 1
BITMAP
F3
F2
16
14
24
48
00
30
38
38
30
30
30
30
20
20
20
24
24
3C
1C
ENDCHAR
STARTCHAR 1F35
ENCODING 7989
SWIDTH 310 0
DWIDTH 9 0
BBX 8 21 1 1
BITMAP
F3
F6
86
84
C8
40
00
70
70
70
70
60
60
60
40
40
40
44
64
3C
38
ENDCHAR
STARTCHAR 1F36
ENCODING 7990
SWIDTH 310 0
DWIDTH 9 0
BBX 9 26 0 0
BITMAP
7080
B880
9C80
9C80
8F80
BF00
3C00
0400
0400
0C00
0800
0000
3800
3800
3800
3000
3000
3000
3000
2000
2000
2000
2200
3300
3E00
1E00
ENDCHAR
STARTCHAR 1F37
ENCODING 7991
SWIDTH 310 0
DWIDTH 9 0
BBX 9 26 0 0
BITMAP
7080
B880
9C80
9C80
8F80
9F00
3C00
3C00
2000
2000
1000
0000
3800
3C00
3800
3800
3800
3000
3000
3000
2000
2000
2200
3300
3E00
1E00
ENDCHAR
STARTCHAR 1F38
ENCODING 7992
SWIDTH 620 0
DWIDTH 18 0
BBX 15 21 2 1
BITMAP
F3FE
F070
1070
1070
2070
4070
0070
0070
0070
0070
0070
0070
0070
0070
0070
0070
0070
0070
0070
0070
03FE
ENDCHAR
STARTCHAR 1F39
ENCODING 7993
SWIDTH 620 0
DWIDTH 18 0
BBX 15 21 2 1
BITMAP
F3FE
F070
8070
8070
C070
2070
0070
0070
0070
0070
0070
0070
0070
0070
0070
0070
0070
0070
0070
0070
03FE
ENDCHAR
STARTCHAR 1F3A
ENCODING 7994
SWIDTH 655 0
DWIDTH 19 0
BBX 19 21 -1 1
BITMAP
F63FE0
F60700
130700
110700
210700
408700
000700
000700
000700
000700
000700
000700
000700
000700
000700
000700
000700
000700
000700
000700
003FE0
ENDCHAR
STARTCHAR 1F3B
ENCODING 7995
SWIDTH 689 0
DWIDTH 20 0
BBX 19 21 0 1
BITMAP
F63FE0
F60700
820700
830700
C10700
200700
000700
000700
000700
000700
000700
000700
000700
000700
000700
000700
000700
000700
000700
000700
003FE0
ENDCHAR
STARTCHAR 1F3C
ENCODING 7996
SWIDTH 689 0
DWIDTH 20 0
BBX 19 21 0 1
BITMAP
F33FE0
F30700
160700
160700
240700
400700
000700
000700
000700
000700
000700
000700
000700
000700
000700
000700
000700
000700
000700
000700
003FE0
ENDCHAR
STARTCHAR 1F3D
ENCODING 7997
SWIDTH 689 0
DWIDTH 20 0
BBX 19 21 0 1
BITMAP
F33FE0
F30700
860700
840700
C40700
280700
000700
000700
000700
000700
000700
000700
000700
000700
000700
000700
000700
000700
000700
000700
003FE0
ENDCHAR
STARTCHAR 1F3E
ENCODING 7998
SWIDTH 655 0
DWIDTH 19 0
BBX 19 25 -1 0
BITMAP
78C000
BCC000
8E4000
C7C000
DFBFE0
1E0700
020700
020700
060700
040700
000700
000700
000700
000700
000700
000700
000700
000700
000700
000700
000700
000700
000700
000700
003FE0
ENDCHAR
STARTCHAR 1F3F
ENCODING 7999
SWIDTH 655 0
DWIDTH 19 0
BBX 19 25 -1 0
BITMAP
78C000
BCC000
8E4000
C7C000
CFBFE0
1E0700
1E0700
100700
100700
080700
000700
000700
000700
000700
000700
000700
000700
000700
000700
000700
000700
000700
000700
000700
003FE0
ENDCHAR
STARTCHAR 1F40
ENCODING 8000
SWIDTH 482 0
DWIDTH 14 0
BBX 10 21 2 1
BITMAP
1E00
1E00
0200
0200
0400
0800
0000
1E00
3D00
7080
E040
E040
C040
C0C0
80C0
80C0
81C0
8380
4380
6F00
1E00
ENDCHAR
STARTCHAR 1F41
ENCODING 8001
SWIDTH 482 0
DWIDTH 14 0
BBX 10 21 2 1
BITMAP
1E00
1E00
1000
1000
1800
0400
0000
1E00
3D00
7080
E040
E040
C040
C0C0
80C0
80C0
81C0
8380
4380
6F00
1E00
ENDCHAR
STARTCHAR 1F42
ENCODING 8002
SWIDTH 482 0
DWIDTH 14 0
BBX 10 21 2 1
BITMAP
7A00
7B00
0900
0900
1100
2080
0000
1E00
3D00
7080
E040
E040
C040
C0C0
80C0
80C0
81C0
8380
4380
6F00
1E00
ENDCHAR
STARTCHAR 1F43
ENCODING 8003
SWIDTH 482 0
DWIDTH 14 0
BBX 10 21 2 1
BITMAP
7E00
7B00
4300
4100
6100
1080
0000
1E00
3D00
7080
E040
E040
C040
C0C0
80C0
80C0
81C0
8380
4380
6F00
1E00
ENDCHAR
STARTCHAR 1F44
ENCODING 8004
SWIDTH 482 0
DWIDTH 14 0
BBX 10 21 2 1
BITMAP
7980
7980
0B00
0A00
1200
2000
0000
1E00
3D00
7080
E040
E040
C040
C0C0
80C0
80C0
81C0
8380
4380
6F00
1E00
ENDCHAR
STARTCHAR 1F45
ENCODING 8005
SWIDTH 482 0
DWIDTH 14 0
BBX 10 21 2 1
BITMAP
3980
3D80
2100
2300
3200
0000
0000
1E00
3D00
7080
E040
E040
C040
C0C0
80C0
80C0
81C0
8380
4380
6F00
1E00
ENDCHAR
STARTCHAR 1F48
ENCODING 8008
SWIDTH 862 0
DWIDTH 25 0
BBX 22 22 2 0
BITMAP
000400
F03F80
F060C0
10C060
118030
238038
438038
030018
07001C
07001C
07001C
07001C
07001C
07001C
07001C
030018
038038
038038
018030
00C060
0060C0
003F80
ENDCHAR
STARTCHAR 1F49
ENCODING 8009
SWIDTH 862 0
DWIDTH 25 0
BBX 22 22 2 0
BITMAP
000400
F03F80
F060C0
80C060
818030
C38038
638038
030018
07001C
07001C
07001C
07001C
07001C
07001C
07001C
030018
038038
038038
018030
00C060
0060C0
003F80
ENDCHAR
STARTCHAR 1F4A
ENCODING 8010
SWIDTH 896 0
DWIDTH 26 0
BBX 26 22 -1 0
BITMAP
00004000
F603F800
F6060C00
120C0600
13180300
21380380
41380380
00300180
007001C0
007001C0
007001C0
007001C0
007001C0
007001C0
007001C0
00300180
00380380
00380380
00180300
000C0600
00060C00
0003F800
ENDCHAR
STARTCHAR 1F4B
ENCODING 8011
SWIDTH 931 0
DWIDTH 27 0
BBX 26 22 0 0
BITMAP
00004000
F603F800
F6060C00
820C0600
83180300
C1380380
21380380
00300180
007001C0
007001C0
007001C0
007001C0
007001C0
007001C0
007001C0
00300180
00380380
00380380
00180300
000C0600
00060C00
0003F800
ENDCHAR
STARTCHAR 1F4C
ENCODING 8012
SWIDTH 896 0
DWIDTH 26 0
BBX 25 21 0 1
BITMAP
F307F000
F30C1800
16180C00
16300600
24700700
40700700
00600300
00E00380
00E00380
00E00380
00E00380
00E00380
00E00380
00E00380
00600300
00700700
00700700
00300600
00180C00
000C1800
0007F000
ENDCHAR
STARTCHAR 1F4D
ENCODING 8013
SWIDTH 862 0
DWIDTH 25 0
BBX 24 21 0 1
BITMAP
F307E0
F31C38
863818
84300C
C4700E
286006
006006
00E007
00E007
00E007
00E007
00E007
00E007
00E007
006006
006006
00700E
00300C
00381C
001C38
0007E0
ENDCHAR
STARTCHAR 1F50
ENCODING 8016
SWIDTH 448 0
DWIDTH 13 0
BBX 10 21 2 1
BITMAP
3C00
3C00
0400
0400
0800
1000
0000
C000
C100
C080
C080
40C0
80C0
80C0
80C0
80C0
81C0
8180
C380
6700
3E00
ENDCHAR
STARTCHAR 1F51
ENCODING 8017
SWIDTH 448 0
DWIDTH 13 0
BBX 10 21 2 1
BITMAP
3C00
3C00
2000
2000
3000
0800
0000
C000
C100
C180
C080
40C0
80C0
80C0
80C0
80C0
81C0
8180
C380
6700
3E00
ENDCHAR
STARTCHAR 1F52
ENCODING 8018
SWIDTH 448 0
DWIDTH 13 0
BBX 11 21 1 1
BITMAP
F600
F600
1300
1100
1100
2080
0000
6100
6080
60C0
6040
2060
4060
4060
4060
4060
40E0
40C0
61C0
3F80
1F00
ENDCHAR
STARTCHAR 1F53
ENCODING 8019
SWIDTH 482 0
DWIDTH 14 0
BBX 11 21 2 1
BITMAP
FE00
F600
8200
8300
C100
4000
0000
C100
E080
C0C0
4040
4040
C060
8060
8060
8060
80E0
C0C0
C1C0
7F80
1E00
ENDCHAR
STARTCHAR 1F54
ENCODING 8020
SWIDTH 448 0
DWIDTH 13 0
BBX 10 21 2 1
BITMAP
F300
F300
1600
1400
2400
4000
0000
C000
C100
C080
C080
C0C0
80C0
80C0
80C0
80C0
80C0
8180
C380
7F00
3E00
ENDCHAR
STARTCHAR 1F55
ENCODING 8021
SWIDTH 448 0
DWIDTH 13 0
BBX 10 21 2 1
BITMAP
F300
F700
8600
8400
CC00
4800
0000
C200
C100
C080
C080
C0C0
80C0
80C0
80C0
80C0
80C0
8180
C380
7F00
3E00
ENDCHAR
STARTCHAR 1F56
ENCODING 8022
SWIDTH 482 0
DWIDTH 14 0
BBX 12 26 1 0
BITMAP
70C0
B8C0
9CC0
CE40
C7C0
5F80
1E00
0600
0200
0600
0400
0000
6080
6040
6040
6020
4020
4030
4030
4030
4030
4070
4060
60E0
3BC0
0F00
ENDCHAR
STARTCHAR 1F57
ENCODING 8023
SWIDTH 482 0
DWIDTH 14 0
BBX 12 26 1 0
BITMAP
70C0
B8C0
9CC0
CE40
C7C0
4F80
1E00
1E00
1000
1000
0800
0000
6080
6040
6040
6020
4020
4030
4030
4030
4030
4070
4060
60E0
3BC0
0F00
ENDCHAR
STARTCHAR 1F59
ENCODING 8025
SWIDTH 862 0
DWIDTH 25 0
BBX 22 21 2 1
BITMAP
F300F8
F0C19C
80613C
80323C
C03200
603C00
001C00
001C00
001C00
001C00
001C00
001C00
001C00
001C00
001C00
001C00
001C00
001C00
001C00
001C00
00FF80
ENDCHAR
STARTCHAR 1F5B
ENCODING 8027
SWIDTH 931 0
DWIDTH 27 0
BBX 26 21 0 1
BITMAP
F6700F80
F60C19C0
820613C0
830723C0
C1032000
6103C000
0001C000
0001C000
0001C000
0001C000
0001C000
0001C000
0001C000
0001C000
0001C000
0001C000
0001C000
0001C000
0001C000
0001C000
000FF800
ENDCHAR
STARTCHAR 1F5D
ENCODING 8029
SWIDTH 931 0
DWIDTH 27 0
BBX 26 21 0 1
BITMAP
F3700F80
F70C19C0
860613C0
840723C0
C4032000
6803C000
0001C000
0001C000
0001C000
0001C000
0001C000
0001C000
0001C000
0001C000
0001C000
0001C000
0001C000
0001C000
0001C000
0001C000
000FF800
ENDCHAR
STARTCHAR 1F5F
ENCODING 8031
SWIDTH 896 0
DWIDTH 26 0
BBX 26 25 -1 0
BITMAP
78C00000
BCC00000
8E400000
C7C00000
CF900FC0
1E0C19C0
1E0613C0
100323C0
1003A000
0801E000
0001C000
0001C000
0001C000
0001C000
0001C000
0001C000
0001C000
0001C000
0001C000
0001C000
0001C000
0001C000
0001C000
0001C000
000FF800
ENDCHAR
STARTCHAR 1F60
ENCODING 8032
SWIDTH 655 0
DWIDTH 19 0
BBX 17 21 1 1
BITMAP
03C000
03C000
004000
004000
008000
000000
000000
300800
380400
700200
608300
E1C100
C1C180
C1C180
C1C180
C18180
C18380
608300
610700
31CE00
1E3C00
ENDCHAR
STARTCHAR 1F61
ENCODING 8033
SWIDTH 655 0
DWIDTH 19 0
BBX 17 21 1 1
BITMAP
01C000
01C000
010000
010000
018000
000000
000000
100800
380400
700200
608300
E1C100
C1C180
C1C180
C1C180
C1C180
C08380
608380
608300
314E00
0E3C00
ENDCHAR
STARTCHAR 1F62
ENCODING 8034
SWIDTH 655 0
DWIDTH 19 0
BBX 17 21 1 1
BITMAP
0F6000
0F6000
013000
013000
021000
040800
000000
300800
300400
700200
618300
E1C100
C1C180
C1C180
C1C180
C18180
C08380
608380
608300
314E00
1E3C00
ENDCHAR
STARTCHAR 1F63
ENCODING 8035
SWIDTH 655 0
DWIDTH 19 0
BBX 17 21 1 1
BITMAP
0F6000
0F6000
083000
083000
041000
000800
000000
180800
380400
700200
608300
E1C100
C1C180
C1C180
C1C180
C18180
C18380
608300
608300
314E00
1E3C00
ENDCHAR
STARTCHAR 1F64
ENCODING 8036
SWIDTH 655 0
DWIDTH 19 0
BBX 17 21 1 1
BITMAP
079800
079000
00B000
00A000
014000
024000
000000
300800
380400
700200
608300
E1C100
C1C180
C1C180
C1C180
C1C180
C0C380
608380
608300
30EF00
0F1C00
ENDCHAR
STARTCHAR 1F65
ENCODING 8037
SWIDTH 655 0
DWIDTH 19 0
BBX 17 21 1 1
BITMAP
031800
073000
043000
042000
024000
004000
000000
180800
380400
700200
608300
E1C100
C1C180
C1C180
C1C180
C18180
C18380
608300
608300
314E00
1E3C00
ENDCHAR
STARTCHAR 1F66
ENCODING 8038
SWIDTH 655 0
DWIDTH 19 0
BBX 17 26 1 0
BITMAP
0E1800
171800
139800
19C800
18F800
0BF000
03C000
004000
004000
00C000
008000
000000
300800
700400
700200
608300
E1C300
C1C180
C1C180
C1C180
C18180
C18380
608300
610700
31CE00
1E3C00
ENDCHAR
STARTCHAR 1F67
ENCODING 8039
SWIDTH 655 0
DWIDTH 19 0
BBX 17 26 1 0
BITMAP
0E1800
171800
139800
19C800
18F800
09F000
03C000
03C000
020000
020000
010000
000000
300800
700400
700200
608300
E1C300
C1C180
C1C180
C1C180
C18180
C08380
608300
608300
314E00
1E3C00
ENDCHAR
STARTCHAR 1F68
ENCODING 8040
SWIDTH 931 0
DWIDTH 27 0
BBX 23 21 2 1
BITMAP
F03FE0
F07070
10E038
11C01C
21C01C
43800E
03800E
03800E
03800E
03800E
03800C
01801C
01C018
00E030
0070E0
020902
020902
010904
01F9FC
01F9FC
01F9FC
ENDCHAR
STARTCHAR 1F69
ENCODING 8041
SWIDTH 896 0
DWIDTH 26 0
BBX 22 21 2 1
BITMAP
F03FC0
F070E0
80E070
81C038
C18018
63801C
03801C
03801C
03801C
03801C
038018
018038
01C030
00E070
0070E0
020904
020904
010908
01F9F8
01F9F8
01F9F8
ENDCHAR
STARTCHAR 1F6A
ENCODING 8042
SWIDTH 965 0
DWIDTH 28 0
BBX 27 21 -1 1
BITMAP
F603FE00
F6070700
120E0380
131C01C0
211C01C0
413800E0
003800E0
003800E0
003800E0
003800E0
001800C0
001C01C0
000C0180
00060380
00030700
0020C820
00204820
00104840
001FCFC0
001FCFC0
001FCFC0
ENDCHAR
STARTCHAR 1F6B
ENCODING 8043
SWIDTH 1000 0
DWIDTH 29 0
BBX 27 21 0 1
BITMAP
F603FE00
F6070700
860E0380
821C01C0
C11C01C0
613800E0
003800E0
003800E0
003800E0
003800E0
001800C0
001C01C0
000C0180
00060380
00030700
0020C820
00204820
00104840
001FCFC0
001FCFC0
001FCFC0
ENDCHAR
STARTCHAR 1F6C
ENCODING 8044
SWIDTH 931 0
DWIDTH 27 0
BBX 25 21 0 1
BITMAP
F30FF800
F21C1C00
16380E00
14700700
24700700
48E00380
00E00380
00E00380
00E00380
00E00380
00600300
00700700
00300600
00180E00
000C1C00
00832080
00812080
00412100
007F3F00
007F3F00
007F3F00
ENDCHAR
STARTCHAR 1F6D
ENCODING 8045
SWIDTH 931 0
DWIDTH 27 0
BBX 25 21 0 1
BITMAP
F30FF800
F61C1C00
86380E00
84700700
CC700700
68E00380
00E00380
00E00380
00E00380
00E00380
00600300
00700700
00300600
00180E00
000C1C00
00832080
00812080
00412100
007F3F00
007F3F00
007F3F00
ENDCHAR
STARTCHAR 1F6E
ENCODING 8046
SWIDTH 931 0
DWIDTH 27 0
BBX 26 25 -1 0
BITMAP
78C00000
BCC00000
8E400000
C7C00000
DF83FC00
1E070E00
020E0700
021C0380
06380180
043801C0
003801C0
003801C0
003801C0
003801C0
00380180
001C0380
000C0300
000E0700
00030C00
00209040
00209040
00209080
003F9F80
003F9F80
003F9F80
ENDCHAR
STARTCHAR 1F6F
ENCODING 8047
SWIDTH 931 0
DWIDTH 27 0
BBX 26 25 -1 0
BITMAP
78C00000
BCC00000
8E400000
C7C00000
CF83FC00
1E070E00
1E0E0700
101C0380
10180180
083801C0
003801C0
003801C0
003801C0
003801C0
00380180
00180380
001C0300
000E0700
00070E00
00209040
00209040
00209080
003F9F80
003F9F80
003F9F80
ENDCHAR
STARTCHAR 1F70
ENCODING 8048
SWIDTH 551 0
DWIDTH 16 0
BBX 13 21 2 1
BITMAP
0C00
0C00
0400
0600
0200
0000
0000
1C30
3E30
7360
6160
C0E0
C0C0
C0C0
8180
8180
8380
8340
C668
6E78
3830
ENDCHAR
STARTCHAR 1F71
ENCODING 8049
SWIDTH 551 0
DWIDTH 16 0
BBX 13 21 2 1
BITMAP
00C0
0180
0180
0100
0200
0200
0000
1C30
3E30
7370
6160
C160
C0C0
C0C0
8180
8180
8380
8340
C668
6E78
3830
ENDCHAR
STARTCHAR 1F72
ENCODING 8050
SWIDTH 448 0
DWIDTH 13 0
BBX 10 21 2 1
BITMAP
3000
1800
1800
0800
0400
0400
0000
3E00
7380
C000
8000
8000
4E00
3F00
4E00
8000
8000
C040
F180
7F80
3E00
ENDCHAR
STARTCHAR 1F73
ENCODING 8051
SWIDTH 448 0
DWIDTH 13 0
BBX 10 21 2 1
BITMAP
0300
0300
0600
0400
0400
0800
0000
3E00
7380
C000
8000
8000
4E00
3F00
4E00
8000
8000
C040
F180
7F80
3E00
ENDCHAR
STARTCHAR 1F74
ENCODING 8052
SWIDTH 586 0
DWIDTH 17 0
BBX 14 29 1 -7
BITMAP
0E00
0600
0600
0300
0100
0100
0000
E070
B1D8
130C
0A04
0E04
0E04
0C04
0C04
0C0C
0C0C
0C0C
1C0C
1C0C
181C
001C
0018
0018
0038
0038
0038
0038
0038
ENDCHAR
STARTCHAR 1F75
ENCODING 8053
SWIDTH 586 0
DWIDTH 17 0
BBX 14 29 1 -7
BITMAP
00C0
00C0
0180
0180
0100
0200
0000
E070
B1D8
130C
0A04
0E04
0E04
0C04
0C04
0C0C
0C0C
1C0C
1C0C
1C0C
181C
001C
0018
0018
0038
0038
0038
0038
0038
ENDCHAR
STARTCHAR 1F76
ENCODING 8054
SWIDTH 275 0
DWIDTH 8 0
BBX 5 21 1 1
BITMAP
C0
C0
60
60
20
10
00
60
70
70
60
60
60
60
40
40
40
48
48
78
38
ENDCHAR
STARTCHAR 1F77
ENCODING 8055
SWIDTH 310 0
DWIDTH 9 0
BBX 5 21 3 1
BITMAP
18
30
30
20
20
40
00
C0
E0
E0
C0
C0
C0
C0
80
80
80
90
98
F8
70
ENDCHAR
STARTCHAR 1F78
ENCODING 8056
SWIDTH 482 0
DWIDTH 14 0
BBX 10 21 2 1
BITMAP
3000
1800
1800
0800
0800
0400
0000
1E00
3D00
7080
E040
E040
C040
C0C0
80C0
80C0
81C0
8380
4380
6F00
1E00
ENDCHAR
STARTCHAR 1F79
ENCODING 8057
SWIDTH 482 0
DWIDTH 14 0
BBX 10 21 2 1
BITMAP
0300
0600
0600
0400
0800
0800
0000
1E00
3D00
7080
E040
E040
C040
C0C0
80C0
80C0
81C0
8380
4380
6F00
1E00
ENDCHAR
STARTCHAR 1F7A
ENCODING 8058
SWIDTH 448 0
DWIDTH 13 0
BBX 10 23 2 0
BITMAP
6000
6000
2000
3000
1000
1000
1000
0000
0000
C200
C100
C180
C080
40C0
80C0
80C0
80C0
80C0
81C0
8180
C380
6700
3E00
ENDCHAR
STARTCHAR 1F7B
ENCODING 8059
SWIDTH 448 0
DWIDTH 13 0
BBX 10 21 2 1
BITMAP
0C00
0C00
0800
1800
1000
0000
0000
C200
C100
C180
C080
40C0
80C0
80C0
80C0
80C0
81C0
8180
C380
7F00
3E00
ENDCHAR
STARTCHAR 1F7C
ENCODING 8060
SWIDTH 655 0
DWIDTH 19 0
BBX 17 21 1 1
BITMAP
070000
030000
010000
018000
008000
000000
000000
300800
380400
700200
608300
E1C100
C1C180
C1C180
C1C180
C18180
C18380
608300
608300
314E00
1E3C00
ENDCHAR
STARTCHAR 1F7D
ENCODING 8061
SWIDTH 655 0
DWIDTH 19 0
BBX 17 21 1 1
BITMAP
006000
006000
00C000
00C000
008000
000000
000000
300800
380400
700200
608300
E1C100
C1C180
C1C180
C1C180
C18180
C18380
608300
608300
314E00
1E3C00
ENDCHAR
STARTCHAR 1F80
ENCODING 8064
SWIDTH 551 0
DWIDTH 16 0
BBX 13 29 2 -7
BITMAP
0F00
0F80
0080
0080
0100
0200
0000
1E30
3F30
7330
61E0
C0E0
C0C0
C0C0
8180
8180
8380
8340
C728
6E38
3C38
0000
0000
0400
0400
0600
0E00
0E00
0600
ENDCHAR
STARTCHAR 1F81
ENCODING 8065
SWIDTH 551 0
DWIDTH 16 0
BBX 13 29 2 -7
BITMAP
0780
0780
0400
0400
0600
0200
0000
1C30
3E30
7360
6160
C160
C0C0
C0C0
8180
8180
8380
8340
C668
6E78
3830
0000
0000
0400
0400
0600
0E00
0E00
0600
ENDCHAR
STARTCHAR 1F82
ENCODING 8066
SWIDTH 551 0
DWIDTH 16 0
BBX 13 29 2 -7
BITMAP
3D80
3D80
04C0
04C0
0840
1020
0000
1C30
3E30
7360
6160
C0E0
C0C0
C0C0
8180
8180
8380
8340
C668
6E78
3830
0000
0000
0400
0400
0600
0E00
0E00
0600
ENDCHAR
STARTCHAR 1F83
ENCODING 8067
SWIDTH 551 0
DWIDTH 16 0
BBX 13 29 2 -7
BITMAP
3D80
3D80
20C0
20C0
3040
1820
0000
1C30
3E30
7360
6160
C0E0
C0C0
C0C0
8180
8180
8380
8340
C668
6E78
3830
0000
0000
0400
0400
0600
0E00
0E00
0600
ENDCHAR
STARTCHAR 1F84
ENCODING 8068
SWIDTH 551 0
DWIDTH 16 0
BBX 13 29 2 -7
BITMAP
1E60
1EE0
02C0
0280
0580
0900
0000
1C30
3E30
7370
6160
C160
C0C0
C0C0
8180
8180
8380
8340
C668
6E78
3830
0000
0000
0400
0400
0600
0E00
0E00
0600
ENDCHAR
STARTCHAR 1F85
ENCODING 8069
SWIDTH 551 0
DWIDTH 16 0
BBX 13 29 2 -7
BITMAP
1E60
1EE0
10C0
1080
1980
0900
0000
1C30
3E30
7370
6160
C160
C0C0
C0C0
8180
8180
8380
8340
C668
6E78
3830
0000
0000
0400
0400
0600
0E00
0E00
0600
ENDCHAR
STARTCHAR 1F86
ENCODING 8070
SWIDTH 551 0
DWIDTH 16 0
BBX 13 34 2 -8
BITMAP
1C30
2E30
2730
3390
31F0
3FE0
0F80
0180
0080
0180
0100
0000
1E38
3F30
7330
61E0
C0E0
C0C0
C0C0
8180
8180
8380
8340
C728
6E38
3C38
0000
0000
0400
0400
0600
0E00
0E00
0600
ENDCHAR
STARTCHAR 1F87
ENCODING 8071
SWIDTH 551 0
DWIDTH 16 0
BBX 13 34 2 -8
BITMAP
1C30
2E30
2730
3390
31F0
33E0
0780
0780
0400
0400
0200
0000
1E38
3F30
7930
6160
E0E0
C0C0
C0C0
8080
8180
8180
8340
C368
6E38
3C38
0000
0000
0200
0600
0600
0600
0700
0600
ENDCHAR
STARTCHAR 1F88
ENCODING 8072
SWIDTH 793 0
DWIDTH 23 0
BBX 21 29 2 -7
BITMAP
F03000
F03000
103000
107800
207800
407800
00DC00
009C00
019C00
010E00
010E00
030600
020700
03FF00
060300
040380
040380
0C0380
0C01C0
3E03E0
7F8FF8
000000
000000
002000
002000
006000
007000
007000
006000
ENDCHAR
STARTCHAR 1F89
ENCODING 8073
SWIDTH 793 0
DWIDTH 23 0
BBX 21 29 2 -7
BITMAP
F02000
F06000
807000
807000
C0F000
20B800
00B800
013800
011C00
011C00
020C00
020E00
020E00
07FE00
040700
040300
080380
080380
080180
3C03E0
7F1FF8
000000
000000
004000
004000
006000
00E000
00E000
006000
ENDCHAR
STARTCHAR 1F8A
ENCODING 8074
SWIDTH 827 0
DWIDTH 24 0
BBX 24 29 -1 -7
BITMAP
F60200
F60600
120600
130700
210F00
400B00
000B80
001380
001180
0011C0
0021C0
0020C0
0020E0
007FE0
004060
004070
008030
008030
008038
018038
07F1FF
000000
000000
000400
000400
000600
000E00
000E00
000600
ENDCHAR
STARTCHAR 1F8B
ENCODING 8075
SWIDTH 862 0
DWIDTH 25 0
BBX 24 29 0 -7
BITMAP
F60600
F60600
820600
830F00
410F00
210F00
001380
001380
001180
0021C0
0021C0
0020C0
0040E0
007FE0
004060
008070
008070
008030
018038
018038
0FF1FF
000000
000000
000400
000400
000C00
000E00
000E00
000C00
ENDCHAR
STARTCHAR 1F8C
ENCODING 8076
SWIDTH 827 0
DWIDTH 24 0
BBX 23 29 0 -7
BITMAP
F30400
F30C00
160C00
141E00
241E00
401E00
003700
002700
002300
006380
004380
004180
0081C0
00FFC0
0080C0
0180E0
0100E0
010060
030070
070070
1FE3FE
000000
000000
000800
000800
001800
001C00
001C00
001800
ENDCHAR
STARTCHAR 1F8D
ENCODING 8077
SWIDTH 793 0
DWIDTH 23 0
BBX 23 29 0 -7
BITMAP
F30400
F60C00
860C00
841E00
441E00
281E00
003700
002700
002700
004380
004380
004180
0081C0
00FFC0
0080C0
0100C0
0100E0
0100E0
030060
030070
1FE3FE
000000
000000
000800
000800
001800
001C00
001C00
001800
ENDCHAR
STARTCHAR 1F8E
ENCODING 8078
SWIDTH 827 0
DWIDTH 24 0
BBX 24 34 -1 -8
BITMAP
70C000
B8C000
9CC000
CE4000
C7C000
5F8200
1E0600
020600
020700
060F00
000B00
001B80
001380
001180
0031C0
0021C0
0020C0
0060E0
007FE0
004060
00C070
008070
018030
018038
03C07C
0FF1FF
000000
000000
000400
000400
000600
000E00
000E00
000600
ENDCHAR
STARTCHAR 1F8F
ENCODING 8079
SWIDTH 827 0
DWIDTH 24 0
BBX 24 34 -1 -8
BITMAP
70C000
B8C000
9CC000
CE4000
C7C000
4F8200
1E0600
1E0600
100700
100F00
080B00
000B80
001380
001180
0011C0
0021C0
0020C0
0020E0
007FE0
004060
004070
008070
008030
018038
03C07C
0FF1FF
000000
000000
000400
000400
000600
000E00
000E00
000600
ENDCHAR
STARTCHAR 1F90
ENCODING 8080
SWIDTH 586 0
DWIDTH 17 0
BBX 14 29 1 -7
BITMAP
03C0
03C0
0040
0040
0080
0100
0000
6070
90E8
0984
0B04
0B04
0604
0604
0604
0604
0C04
0C04
0C04
0C04
0C0C
000C
000C
020C
021C
061C
071C
071C
061C
ENDCHAR
STARTCHAR 1F91
ENCODING 8081
SWIDTH 586 0
DWIDTH 17 0
BBX 14 29 1 -7
BITMAP
03C0
03C0
0200
0200
0100
0080
0000
6070
90E8
0984
0B04
0B04
0604
0604
0604
0604
0C04
0C04
0C04
0C04
0C0C
000C
000C
020C
021C
061C
071C
071C
061C
ENDCHAR
STARTCHAR 1F92
ENCODING 8082
SWIDTH 586 0
DWIDTH 17 0
BBX 14 29 1 -7
BITMAP
1EE0
1E60
0260
0230
0410
0410
0000
6070
90E8
0984
0B04
0B04
0604
0604
0604
0604
0C04
0C04
0C04
0C04
0C0C
000C
000C
020C
021C
061C
071C
071C
061C
ENDCHAR
STARTCHAR 1F93
ENCODING 8083
SWIDTH 551 0
DWIDTH 16 0
BBX 14 29 0 -7
BITMAP
0FE0
0F60
0860
0830
0C10
0410
0000
7070
D0E8
0984
0B04
0B04
0604
0604
0604
0604
0E04
0C04
0C04
0C04
0C0C
000C
000C
020C
021C
021C
071C
071C
071C
ENDCHAR
STARTCHAR 1F94
ENCODING 8084
SWIDTH 586 0
DWIDTH 17 0
BBX 14 29 1 -7
BITMAP
0F38
0F30
0120
0160
0240
0400
0000
6070
90E8
0984
0B04
0B04
0604
0604
0604
0604
0C04
0C04
0C04
0C04
0C0C
000C
000C
020C
021C
061C
071C
071C
061C
ENDCHAR
STARTCHAR 1F95
ENCODING 8085
SWIDTH 586 0
DWIDTH 17 0
BBX 14 29 1 -7
BITMAP
0E70
0E60
0860
08C0
0C80
0480
0000
E070
B1D8
190C
0B04
0E04
0E04
0C04
0C04
0C0C
0C0C
1C0C
1C0C
1C0C
181C
001C
0018
0418
0438
0638
0E38
0E38
0638
ENDCHAR
STARTCHAR 1F96
ENCODING 8086
SWIDTH 586 0
DWIDTH 17 0
BBX 14 34 1 -8
BITMAP
0E18
1718
1398
19C8
18F8
0BF0
03C0
0040
0040
0040
0080
0000
6070
90E8
0984
0B04
0B04
0604
0604
0604
0604
0E04
0C04
0C04
0C0C
0C0C
000C
000C
021C
021C
021C
071C
071C
0618
ENDCHAR
STARTCHAR 1F97
ENCODING 8087
SWIDTH 586 0
DWIDTH 17 0
BBX 14 34 1 -8
BITMAP
0E18
1718
1398
19C8
18F8
09F0
03C0
03C0
0200
0200
0100
0000
6070
90E8
0984
0B04
0B04
0604
0604
0604
0604
0E04
0C04
0C04
0C0C
0C0C
000C
000C
021C
021C
021C
071C
071C
0618
ENDCHAR
STARTCHAR 1F98
ENCODING 8088
SWIDTH 1000 0
DWIDTH 29 0
BBX 26 29 2 -7
BITMAP
F3FE3FC0
F0700E00
10700E00
10700E00
20700E00
40700E00
00700E00
00700E00
00700E00
007FFE00
00700E00
00700E00
00700E00
00700E00
00700E00
00700E00
00700E00
00700E00
00700E00
00700E00
03FE3FC0
00000000
00000000
00008000
00008000
00018000
0001C000
0001C000
00018000
ENDCHAR
STARTCHAR 1F99
ENCODING 8089
SWIDTH 1000 0
DWIDTH 29 0
BBX 26 29 2 -7
BITMAP
F3FC7FC0
F0700E00
80700E00
80700E00
40700E00
20700E00
00700E00
00700E00
00700E00
007FFE00
00700E00
00700E00
00700E00
00700E00
00700E00
00700E00
00700E00
00700E00
00700E00
00700E00
03FC7FC0
00000000
00000000
00010000
00010000
00018000
00038000
00038000
00018000
ENDCHAR
STARTCHAR 1F9A
ENCODING 8090
SWIDTH 1034 0
DWIDTH 30 0
BBX 30 29 -1 -7
BITMAP
F63FC7FC
F60700E0
130700E0
110700E0
210700E0
408700E0
000700E0
000700E0
000700E0
0007FFE0
000700E0
000700E0
000700E0
000700E0
000700E0
000700E0
000700E0
000700E0
000700E0
000700E0
003FC7FC
00000000
00000000
00001000
00001000
00001800
00003800
00003800
00001800
ENDCHAR
STARTCHAR 1F9B
ENCODING 8091
SWIDTH 1068 0
DWIDTH 31 0
BBX 30 29 0 -7
BITMAP
F63FC7FC
F60700E0
820700E0
830700E0
410700E0
200700E0
000700E0
000700E0
000700E0
0007FFE0
000700E0
000700E0
000700E0
000700E0
000700E0
000700E0
000700E0
000700E0
000700E0
000700E0
003FC7FC
00000000
00000000
00001000
00001000
00001800
00003800
00003800
00001800
ENDCHAR
STARTCHAR 1F9C
ENCODING 8092
SWIDTH 1068 0
DWIDTH 31 0
BBX 30 29 0 -7
BITMAP
F33FE3FC
F30700E0
160700E0
160700E0
240700E0
400700E0
000700E0
000700E0
000700E0
0007FFE0
000700E0
000700E0
000700E0
000700E0
000700E0
000700E0
000700E0
000700E0
000700E0
000700E0
003FE3FC
00000000
00000000
00000800
00000800
00001800
00001C00
00001C00
00001800
ENDCHAR
STARTCHAR 1F9D
ENCODING 8093
SWIDTH 1068 0
DWIDTH 31 0
BBX 30 29 0 -7
BITMAP
F33FC7FC
F30700E0
860700E0
840700E0
440700E0
280700E0
000700E0
000700E0
000700E0
0007FFE0
000700E0
000700E0
000700E0
000700E0
000700E0
000700E0
000700E0
000700E0
000700E0
000700E0
003FC7FC
00000000
00000000
00001000
00001000
00001800
00003800
00003800
00001800
ENDCHAR
STARTCHAR 1F9E
ENCODING 8094
SWIDTH 1068 0
DWIDTH 31 0
BBX 31 34 -1 -8
BITMAP
70C00000
B8C00000
9CC00000
CE400000
C7C00000
5FBFE3FE
1E070070
02070070
02070070
06070070
04070070
00070070
00070070
00070070
0007FFF0
00070070
00070070
00070070
00070070
00070070
00070070
00070070
00070070
00070070
00070070
003FE3FE
00000000
00000000
00000800
00000800
00001800
00001C00
00001C00
00001800
ENDCHAR
STARTCHAR 1F9F
ENCODING 8095
SWIDTH 1068 0
DWIDTH 31 0
BBX 31 34 -1 -8
BITMAP
70C00000
B8C00000
9CC00000
CE400000
C7C00000
4FBFE3FE
1E070070
1E070070
10070070
10070070
08070070
00070070
00070070
00070070
0007FFF0
00070070
00070070
00070070
00070070
00070070
00070070
00070070
00070070
00070070
00070070
003FE3FE
00000000
00000000
00000800
00000800
00001800
00001C00
00001C00
00001800
ENDCHAR
STARTCHAR 1FA0
ENCODING 8096
SWIDTH 655 0
DWIDTH 19 0
BBX 17 29 1 -7
BITMAP
03C000
03C000
004000
004000
008000
010000
000000
300800
380400
700200
608300
E1C100
C1C180
C1C180
C1C180
C18180
C18380
608300
610700
31DE00
1E3C00
000000
000000
008000
008000
018000
01C000
01C000
01C000
ENDCHAR
STARTCHAR 1FA1
ENCODING 8097
SWIDTH 655 0
DWIDTH 19 0
BBX 17 29 1 -7
BITMAP
01C000
01E000
010000
010000
018000
000000
000000
100800
380400
700200
608300
E1C100
C1C180
C1C180
C1C180
C0C180
C08380
608380
608300
316E00
0E3C00
000000
000000
008000
008000
018000
01C000
01C000
01C000
ENDCHAR
STARTCHAR 1FA2
ENCODING 8098
SWIDTH 655 0
DWIDTH 19 0
BBX 17 29 1 -7
BITMAP
0F6000
0F6000
013000
011000
021000
040800
000000
300800
300400
700200
608300
E1C100
C1C180
C1C180
C1C180
C1C180
C08380
608380
608300
314E00
0E3C00
000000
000000
008000
008000
018000
01C000
01C000
01C000
ENDCHAR
STARTCHAR 1FA3
ENCODING 8099
SWIDTH 655 0
DWIDTH 19 0
BBX 17 29 1 -7
BITMAP
0F6000
0F6000
083000
081000
041000
020800
000000
180800
380400
700200
608300
E1C100
C1C180
C1C180
C1C180
C18180
C08380
608300
608300
314E00
1E3C00
000000
000000
008000
008000
018000
01C000
01C000
01C000
ENDCHAR
STARTCHAR 1FA4
ENCODING 8100
SWIDTH 655 0
DWIDTH 19 0
BBX 17 29 1 -7
BITMAP
079800
079800
00B000
00A000
012000
024000
000000
300800
380400
700200
608300
E1C100
C1C180
C1C180
C1C180
C1C180
C0C380
608380
608300
30EF00
0F1C00
000000
000000
008000
008000
018000
01C000
01C000
01C000
ENDCHAR
STARTCHAR 1FA5
ENCODING 8101
SWIDTH 655 0
DWIDTH 19 0
BBX 17 29 1 -7
BITMAP
039800
07B800
043000
042000
024000
004000
000000
180800
380400
700200
608300
E1C100
C1C180
C1C180
C1C180
C18180
C08380
608300
608300
314E00
1E3C00
000000
000000
008000
008000
018000
01C000
01C000
01C000
ENDCHAR
STARTCHAR 1FA6
ENCODING 8102
SWIDTH 655 0
DWIDTH 19 0
BBX 17 34 1 -8
BITMAP
0E1800
171800
139800
19C800
18F800
0BF000
03C000
004000
004000
00C000
008000
000000
300800
700400
700200
608300
E1C300
C1C180
C1C180
C1C180
C18180
C18380
608300
610700
31DE00
1E3C00
000000
000000
008000
008000
018000
01C000
01C000
01C000
ENDCHAR
STARTCHAR 1FA7
ENCODING 8103
SWIDTH 655 0
DWIDTH 19 0
BBX 17 34 1 -8
BITMAP
0E1800
171800
139800
19C800
18F800
09F000
03C000
03C000
020000
020000
010000
000000
300800
700400
700200
608300
E1C300
C1C180
C1C180
C1C180
C18180
C08380
608300
608700
316E00
1E3C00
000000
000000
008000
008000
008000
01C000
01C000
01C000
ENDCHAR
STARTCHAR 1FA8
ENCODING 8104
SWIDTH 931 0
DWIDTH 27 0
BBX 23 29 2 -7
BITMAP
F03FE0
F07070
10E038
11C01C
21C01C
43800E
03800E
03800E
03800E
03800E
03800C
01801C
01C018
00E030
0070E0
020902
020902
010904
01F9FC
01F9FC
01F9FC
000000
000000
000200
000200
000600
000700
000700
000600
ENDCHAR
STARTCHAR 1FA9
ENCODING 8105
SWIDTH 896 0
DWIDTH 26 0
BBX 22 29 2 -7
BITMAP
F03FC0
F070E0
80E070
81C038
C18018
63801C
03801C
03801C
03801C
03801C
038018
018038
01C030
00E070
0070E0
020904
020904
010908
01F9F8
01F9F8
01F9F8
000000
000000
000400
000400
000600
000E00
000E00
000600
ENDCHAR
STARTCHAR 1FAA
ENCODING 8106
SWIDTH 965 0
DWIDTH 28 0
BBX 27 29 -1 -7
BITMAP
F603FE00
F6070700
120E0380
131C01C0
211C01C0
413800E0
003800E0
003800E0
003800E0
003800E0
001800C0
001C01C0
000C0180
00060380
00030700
0020C820
00204820
00104840
001FCFC0
001FCFC0
001FCFC0
00000000
00000000
00002000
00002000
00003000
00007000
00007000
00003000
ENDCHAR
STARTCHAR 1FAB
ENCODING 8107
SWIDTH 1000 0
DWIDTH 29 0
BBX 27 29 0 -7
BITMAP
F603FE00
F6070700
860E0380
821C01C0
C11C01C0
613800E0
003800E0
003800E0
003800E0
003800E0
001800C0
001C01C0
000C0180
00060380
00030700
0020C820
00204820
00104840
001FCFC0
001FCFC0
001FCFC0
00000000
00000000
00002000
00002000
00006000
00007000
00007000
00006000
ENDCHAR
STARTCHAR 1FAC
ENCODING 8108
SWIDTH 931 0
DWIDTH 27 0
BBX 25 29 0 -7
BITMAP
F30FF800
F21C1C00
16380E00
14700700
24700700
48E00380
00E00380
00E00380
00E00380
00E00380
00600300
00700700
00300600
00180E00
000C1C00
00832080
00812080
00412100
007F3F00
007F3F00
007F3F00
00000000
00000000
00008000
00008000
0000C000
0001C000
0001C000
0000C000
ENDCHAR
STARTCHAR 1FAD
ENCODING 8109
SWIDTH 931 0
DWIDTH 27 0
BBX 25 29 0 -7
BITMAP
F30FF800
F61C1C00
86380E00
84700700
CC700700
68E00380
00E00380
00E00380
00E00380
00E00380
00600300
00700700
00300600
00180E00
000C1C00
00832080
00812080
00412100
007F3F00
007F3F00
007F3F00
00000000
00000000
00008000
00008000
0000C000
0001C000
0001C000
0000C000
ENDCHAR
STARTCHAR 1FAE
ENCODING 8110
SWIDTH 931 0
DWIDTH 27 0
BBX 26 34 -1 -8
BITMAP
70C00000
B8C00000
9CC00000
CE400000
C7C00000
5F83FC00
1E070E00
020E0700
021C0380
06380180
043801C0
003801C0
003801C0
003801C0
003801C0
00380180
001C0380
000C0300
000E0700
00030C00
00209040
00209040
00209080
003F9F80
003F9F80
003F9F80
00000000
00000000
00004000
00004000
00006000
0000E000
0000E000
00006000
ENDCHAR
STARTCHAR 1FAF
ENCODING 8111
SWIDTH 931 0
DWIDTH 27 0
BBX 26 34 -1 -8
BITMAP
70C00000
B8C00000
9CC00000
CE400000
C7C00000
4F83FC00
1E070E00
1E0E0700
101C0380
10180180
083801C0
003801C0
003801C0
003801C0
003801C0
00380180
00180380
001C0300
000E0700
00070E00
00209040
00209040
00209080
003F9F80
003F9F80
003F9F80
00000000
00000000
00004000
00004000
00006000
0000E000
0000E000
00006000
ENDCHAR
STARTCHAR 1FB0
ENCODING 8112
SWIDTH 551 0
DWIDTH 16 0
BBX 13 20 2 0
BITMAP
1020
1020
0840
0780
0000
0000
1E30
3F30
7930
6160
C0E0
C0C0
C0C0
8080
8180
8180
8340
C768
7E38
3C38
ENDCHAR
STARTCHAR 1FB1
ENCODING 8113
SWIDTH 551 0
DWIDTH 16 0
BBX 13 19 2 0
BITMAP
1FE0
0000
0000
0000
0000
1E10
3F30
7930
6160
E0E0
C0C0
C0C0
8080
8180
8180
8340
C328
6E38
3C38
ENDCHAR
STARTCHAR 1FB2
ENCODING 8114
SWIDTH 551 0
DWIDTH 16 0
BBX 13 29 2 -7
BITMAP
0C00
0C00
0400
0600
0200
0000
0000
1C30
3E30
7360
6160
C0E0
C0C0
C0C0
8180
8180
8380
8340
C668
6E78
3830
0000
0000
0400
0400
0600
0E00
0E00
0600
ENDCHAR
STARTCHAR 1FB3
ENCODING 8115
SWIDTH 551 0
DWIDTH 16 0
BBX 13 22 2 -8
BITMAP
1C30
3E30
7360
6160
C0E0
C0C0
C0C0
8180
8180
8380
8340
C668
6E78
3830
0000
0000
0400
0400
0600
0E00
0E00
0600
ENDCHAR
STARTCHAR 1FB4
ENCODING 8116
SWIDTH 551 0
DWIDTH 16 0
BBX 13 29 2 -7
BITMAP
01C0
0180
0180
0300
0200
0000
0000
1C30
3E30
7370
6160
C160
C0C0
C0C0
8180
8180
8380
8340
C668
6E78
3830
0000
0000
0400
0400
0600
0E00
0E00
0600
ENDCHAR
STARTCHAR 1FB6
ENCODING 8118
SWIDTH 551 0
DWIDTH 16 0
BBX 13 21 2 0
BITMAP
1C60
2E60
3320
31C0
0000
0000
0000
1C30
3E70
7260
6160
C1C0
C0C0
C1C0
8180
8180
8380
8380
C648
6C78
3830
ENDCHAR
STARTCHAR 1FB7
ENCODING 8119
SWIDTH 551 0
DWIDTH 16 0
BBX 13 29 2 -8
BITMAP
1C60
2E60
3320
31C0
0000
0000
0000
1C30
3E70
7260
6160
C1C0
C0C0
C1C0
8180
8180
8380
8380
C648
6C78
3830
0000
0000
0400
0400
0600
0E00
0E00
0600
ENDCHAR
STARTCHAR 1FB8
ENCODING 8120
SWIDTH 758 0
DWIDTH 22 0
BBX 21 28 1 0
BITMAP
020200
020200
030600
018C00
00F800
000000
000000
002000
002000
007000
007000
00F000
00B800
00B800
019800
011C00
011C00
030E00
020E00
020E00
060700
07FF00
0C0700
0C0380
080380
180380
3C03E0
FF0FF8
ENDCHAR
STARTCHAR 1FB9
ENCODING 8121
SWIDTH 793 0
DWIDTH 23 0
BBX 20 26 2 0
BITMAP
03FC00
000000
000000
000000
000000
006000
006000
006000
00F000
00F000
00F000
01B800
013800
033800
031C00
021C00
061C00
060E00
040E00
0FFE00
0C0700
080700
180300
180380
7C07C0
FF1FF0
ENDCHAR
STARTCHAR 1FBA
ENCODING 8122
SWIDTH 793 0
DWIDTH 23 0
BBX 20 21 2 1
BITMAP
C04000
C06000
606000
20E000
20F000
10F000
01B000
013800
013800
031C00
021C00
061C00
060E00
040E00
0FFE00
080700
080700
180700
180380
380380
FF1FF0
ENDCHAR
STARTCHAR 1FBB
ENCODING 8123
SWIDTH 793 0
DWIDTH 23 0
BBX 20 21 2 1
BITMAP
304000
306000
606000
40E000
40F000
80F000
01B000
013800
013800
031C00
021C00
061C00
060E00
040E00
0FFE00
080700
080700
180700
180380
380380
FF1FF0
ENDCHAR
STARTCHAR 1FBC
ENCODING 8124
SWIDTH 1068 0
DWIDTH 31 0
BBX 28 21 2 0
BITMAP
00400000
00600000
00E00000
00E00000
00F00000
01F00000
01300000
01380000
03380000
023803F0
021C00C0
061C00C0
041C00C0
040E00C0
0FFE00C0
080E00C0
180700C0
180700C0
180380C0
7C07C0C0
FF1FF3F0
ENDCHAR
STARTCHAR 1FBD
ENCODING 8125
SWIDTH 241 0
DWIDTH 7 0
BBX 4 6 2 16
BITMAP
F0
F0
10
10
20
40
ENDCHAR
STARTCHAR 1FBE
ENCODING 8126
SWIDTH 275 0
DWIDTH 8 0
BBX 6 12 1 0
BITMAP
FC
30
30
30
30
30
30
30
30
30
30
FC
ENDCHAR
STARTCHAR 1FBF
ENCODING 8127
SWIDTH 241 0
DWIDTH 7 0
BBX 4 6 2 16
BITMAP
F0
F0
10
10
20
40
ENDCHAR
STARTCHAR 1FC0
ENCODING 8128
SWIDTH 413 0
DWIDTH 12 0
BBX 10 4 1 16
BITMAP
78C0
9C40
CFC0
4380
ENDCHAR
STARTCHAR 1FC1
ENCODING 8129
SWIDTH 413 0
DWIDTH 12 0
BBX 10 8 1 15
BITMAP
70C0
FCC0
CE40
4380
0000
7380
7380
7380
ENDCHAR
STARTCHAR 1FC2
ENCODING 8130
SWIDTH 586 0
DWIDTH 17 0
BBX 14 29 1 -7
BITMAP
0600
0700
0300
0100
0080
0080
0000
6070
90E8
0984
0B04
0B04
0604
0604
0604
0604
0C04
0C04
0C04
0C04
0C0C
000C
000C
020C
021C
061C
071C
071C
061C
ENDCHAR
STARTCHAR 1FC3
ENCODING 8131
SWIDTH 586 0
DWIDTH 17 0
BBX 14 22 1 -8
BITMAP
6070
90E8
0984
0B04
0B04
0604
0604
0604
0604
0C04
0C04
0C04
0C04
0C0C
000C
000C
020C
021C
061C
071C
071C
061C
ENDCHAR
STARTCHAR 1FC4
ENCODING 8132
SWIDTH 586 0
DWIDTH 17 0
BBX 14 29 1 -7
BITMAP
0060
0060
00C0
0080
0080
0100
0000
6070
90E8
0984
0B04
0B04
0604
0604
0604
0604
0C04
0C04
0C04
0C04
0C0C
000C
000C
020C
021C
061C
071C
071C
061C
ENDCHAR
STARTCHAR 1FC6
ENCODING 8134
SWIDTH 586 0
DWIDTH 17 0
BBX 14 29 1 -8
BITMAP
0F18
1B98
19C8
18F0
0000
0000
0000
6070
90E8
0984
0B04
0B04
0604
0604
0604
0604
0E04
0C04
0C04
0C0C
0C0C
000C
000C
001C
001C
001C
001C
001C
0018
ENDCHAR
STARTCHAR 1FC7
ENCODING 8135
SWIDTH 586 0
DWIDTH 17 0
BBX 14 29 1 -8
BITMAP
0F18
1798
19C8
18F0
0000
0000
0000
6070
90E8
0984
0B04
0B04
0604
0604
0604
0604
0E04
0C04
0C04
0C0C
0C0C
000C
000C
021C
021C
061C
071C
071C
0618
ENDCHAR
STARTCHAR 1FC8
ENCODING 8136
SWIDTH 827 0
DWIDTH 24 0
BBX 22 21 1 1
BITMAP
C7FFFC
C0E07C
C0E01C
60E00C
20E00C
20E004
00E084
00E080
00E180
00E180
00FF80
00E380
00E180
00E084
00E084
00E004
00E00C
00E00C
00E00C
00E03C
07FFFC
ENDCHAR
STARTCHAR 1FC9
ENCODING 8137
SWIDTH 896 0
DWIDTH 26 0
BBX 23 21 2 1
BITMAP
33FFFE
30703E
60700E
607006
407006
807002
007042
007040
0070C0
0070C0
007FC0
0071C0
0070C0
007042
007042
007002
007006
007006
007006
00701E
03FFFE
ENDCHAR
STARTCHAR 1FCA
ENCODING 8138
SWIDTH 931 0
DWIDTH 27 0
BBX 25 21 1 1
BITMAP
C7FCFF80
C0E01C00
40E01C00
60E01C00
20E01C00
20E01C00
00E01C00
00E01C00
00E01C00
00FFFC00
00E01C00
00E01C00
00E01C00
00E01C00
00E01C00
00E01C00
00E01C00
00E01C00
00E01C00
00E01C00
07FCFF80
ENDCHAR
STARTCHAR 1FCB
ENCODING 8139
SWIDTH 1000 0
DWIDTH 29 0
BBX 26 21 2 1
BITMAP
33FE7FC0
30700E00
60700E00
40700E00
40700E00
80700E00
00700E00
00700E00
00700E00
007FFE00
00700E00
00700E00
00700E00
00700E00
00700E00
00700E00
00700E00
00700E00
00700E00
00700E00
03FE7FC0
ENDCHAR
STARTCHAR 1FCC
ENCODING 8140
SWIDTH 1103 0
DWIDTH 32 0
BBX 29 21 2 0
BITMAP
FF9FF000
1C038000
1C038000
1C038000
1C038000
1C038000
1C038000
1C038000
1C038000
1FFF81F8
1C038060
1C038060
1C038060
1C038060
1C038060
1C038060
1C038060
1C038060
1C038060
1C038060
FF9FF1F8
ENDCHAR
STARTCHAR 1FCD
ENCODING 8141
SWIDTH 241 0
DWIDTH 7 0
BBX 8 6 -1 16
BITMAP
F6
F6
12
13
21
41
ENDCHAR
STARTCHAR 1FCE
ENCODING 8142
SWIDTH 275 0
DWIDTH 8 0
BBX 8 6 0 16
BITMAP
F3
F2
16
14
24
48
ENDCHAR
STARTCHAR 1FCF
ENCODING 8143
SWIDTH 275 0
DWIDTH 8 0
BBX 10 11 -1 15
BITMAP
70C0
B8C0
9CC0
CE40
C7C0
5F80
1E00
0200
0200
0600
0400
ENDCHAR
STARTCHAR 1FD0
ENCODING 8144
SWIDTH 344 0
DWIDTH 10 0
BBX 8 21 1 0
BITMAP
81
81
81
42
3C
00
00
38
38
38
38
30
30
30
20
20
20
24
32
3E
1C
ENDCHAR
STARTCHAR 1FD1
ENCODING 8145
SWIDTH 344 0
DWIDTH 10 0
BBX 8 19 1 0
BITMAP
FF
00
00
00
00
38
38
38
38
30
30
30
30
20
20
22
32
3E
1C
ENDCHAR
STARTCHAR 1FD2
ENCODING 8146
SWIDTH 310 0
DWIDTH 9 0
BBX 9 23 0 0
BITMAP
3000
3000
1000
1800
EB80
EB80
E380
0000
0000
1800
1C00
1800
1800
1800
1800
1800
1000
1000
1000
1200
1200
1E00
0C00
ENDCHAR
STARTCHAR 1FD3
ENCODING 8147
SWIDTH 310 0
DWIDTH 9 0
BBX 9 23 0 0
BITMAP
0200
0600
0600
0400
E780
EB80
E380
0000
0000
1800
1C00
1800
1800
1800
1800
1800
1000
1000
1000
1200
1200
1E00
0E00
ENDCHAR
STARTCHAR 1FD6
ENCODING 8150
SWIDTH 310 0
DWIDTH 9 0
BBX 9 21 0 0
BITMAP
7080
BC80
9E80
8F00
0000
0000
0000
3800
3800
3800
3800
3800
3000
3000
3000
2000
2000
2200
3200
3E00
1E00
ENDCHAR
STARTCHAR 1FD7
ENCODING 8151
SWIDTH 275 0
DWIDTH 8 0
BBX 10 23 -1 0
BITMAP
78C0
DC40
C780
0000
7380
7380
7380
0000
0000
1C00
1C00
1C00
1800
1800
1800
1800
1000
1000
1000
1200
1300
1F00
0E00
ENDCHAR
STARTCHAR 1FD8
ENCODING 8152
SWIDTH 379 0
DWIDTH 11 0
BBX 8 26 2 0
BITMAP
FF
00
00
00
00
FF
38
38
38
38
38
38
38
38
38
38
38
38
38
38
38
38
38
38
38
FF
ENDCHAR
STARTCHAR 1FD9
ENCODING 8153
SWIDTH 413 0
DWIDTH 12 0
BBX 9 28 2 0
BITMAP
8080
8080
C180
6300
3E00
0000
0000
FF80
1C00
1C00
1C00
1C00
1C00
1C00
1C00
1C00
1C00
1C00
1C00
1C00
1C00
1C00
1C00
1C00
1C00
1C00
1C00
FF80
ENDCHAR
STARTCHAR 1FDA
ENCODING 8154
SWIDTH 551 0
DWIDTH 16 0
BBX 14 21 1 1
BITMAP
C7FC
C0E0
C0E0
60E0
20E0
20E0
00E0
00E0
00E0
00E0
00E0
00E0
00E0
00E0
00E0
00E0
00E0
00E0
00E0
00E0
07FC
ENDCHAR
STARTCHAR 1FDB
ENCODING 8155
SWIDTH 655 0
DWIDTH 19 0
BBX 15 21 3 1
BITMAP
73FE
6070
6070
C070
8070
8070
0070
0070
0070
0070
0070
0070
0070
0070
0070
0070
0070
0070
0070
0070
03FE
ENDCHAR
STARTCHAR 1FDD
ENCODING 8157
SWIDTH 275 0
DWIDTH 8 0
BBX 8 6 0 16
BITMAP
FC
FE
86
82
C3
61
ENDCHAR
STARTCHAR 1FDE
ENCODING 8158
SWIDTH 275 0
DWIDTH 8 0
BBX 8 6 0 16
BITMAP
F3
F6
86
84
CC
68
ENDCHAR
STARTCHAR 1FDF
ENCODING 8159
SWIDTH 275 0
DWIDTH 8 0
BBX 10 10 -1 15
BITMAP
78C0
BCC0
8E40
C7C0
CF80
1E00
1E00
1000
1000
0800
ENDCHAR
STARTCHAR 1FE0
ENCODING 8160
SWIDTH 448 0
DWIDTH 13 0
BBX 10 21 2 0
BITMAP
8100
8100
C200
6200
7C00
0000
0000
C200
C100
C180
C080
80C0
80C0
80C0
80C0
80C0
81C0
8180
C380
7F00
3E00
ENDCHAR
STARTCHAR 1FE1
ENCODING 8161
SWIDTH 448 0
DWIDTH 13 0
BBX 10 19 2 0
BITMAP
FF00
0000
0000
0000
0000
C100
C100
C080
C080
C0C0
80C0
80C0
80C0
80C0
81C0
8180
C380
6700
3E00
ENDCHAR
STARTCHAR 1FE2
ENCODING 8162
SWIDTH 448 0
DWIDTH 13 0
BBX 11 23 1 0
BITMAP
6000
3000
3000
1000
DB80
CB80
C380
0000
0000
C100
C080
C0C0
4040
4060
8060
8060
8060
8060
80E0
80C0
41C0
7780
1F00
ENDCHAR
STARTCHAR 1FE3
ENCODING 8163
SWIDTH 448 0
DWIDTH 13 0
BBX 11 23 1 0
BITMAP
0600
0600
0C00
0C00
CB80
D380
C380
0000
0000
C100
C080
C0C0
4040
4060
8060
8060
8060
8060
80E0
80C0
41C0
7780
1F00
ENDCHAR
STARTCHAR 1FE4
ENCODING 8164
SWIDTH 517 0
DWIDTH 15 0
BBX 11 29 2 -7
BITMAP
0F00
0F00
0100
0100
0200
0400
0000
0F00
1E80
3840
7020
7020
6020
6060
4060
4060
40E0
41C0
61C0
7780
4F00
4000
C000
C000
C000
E000
E000
E000
E000
ENDCHAR
STARTCHAR 1FE5
ENCODING 8165
SWIDTH 517 0
DWIDTH 15 0
BBX 11 29 2 -7
BITMAP
0F00
0F00
0800
0800
0C00
0200
0000
0F00
1E80
3840
7020
7020
6020
6060
4060
4060
40E0
41C0
61C0
7780
4F00
4000
C000
C000
C000
E000
E000
E000
E000
ENDCHAR
STARTCHAR 1FE6
ENCODING 8166
SWIDTH 482 0
DWIDTH 14 0
BBX 12 21 1 0
BITMAP
78C0
9CC0
CE40
4380
0000
0000
0000
6080
6040
6040
6020
4020
4030
4030
4030
4030
4070
4060
60E0
3BC0
0F00
ENDCHAR
STARTCHAR 1FE7
ENCODING 8167
SWIDTH 482 0
DWIDTH 14 0
BBX 12 23 1 0
BITMAP
78C0
DC40
C780
0000
6380
7380
6380
0000
0000
6080
7040
6040
6020
2020
6030
4030
4030
4030
4070
4060
60E0
3BC0
0F00
ENDCHAR
STARTCHAR 1FE8
ENCODING 8168
SWIDTH 620 0
DWIDTH 18 0
BBX 16 28 1 0
BITMAP
1010
1010
1830
0C60
07C0
0000
0000
E03E
3067
184F
0C8F
0C86
0680
0700
0700
0700
0700
0700
0700
0700
0700
0700
0700
0700
0700
0700
0700
3FF0
ENDCHAR
STARTCHAR 1FE9
ENCODING 8169
SWIDTH 655 0
DWIDTH 19 0
BBX 17 26 1 0
BITMAP
0FF000
000000
000000
000000
000000
E01F00
383380
0C2780
0E4780
064300
078000
038000
038000
038000
038000
038000
038000
038000
038000
038000
038000
038000
038000
038000
038000
3FF000
ENDCHAR
STARTCHAR 1FEA
ENCODING 8170
SWIDTH 793 0
DWIDTH 23 0
BBX 21 21 1 1
BITMAP
CE01F0
C18338
C0C278
40E478
206430
207800
003800
003800
003800
003800
003800
003800
003800
003800
003800
003800
003800
003800
003800
003800
03FF00
ENDCHAR
STARTCHAR 1FEB
ENCODING 8171
SWIDTH 896 0
DWIDTH 26 0
BBX 22 21 3 1
BITMAP
7700F8
61C19C
60613C
C0723C
803218
803C00
001C00
001C00
001C00
001C00
001C00
001C00
001C00
001C00
001C00
001C00
001C00
001C00
001C00
001C00
01FF80
ENDCHAR
STARTCHAR 1FEC
ENCODING 8172
SWIDTH 896 0
DWIDTH 26 0
BBX 23 21 2 1
BITMAP
F3FFE0
F07078
80701C
80700E
C0700E
20700E
00700E
00700E
00701C
007038
007FF0
007000
007000
007000
007000
007000
007000
007000
007000
007000
03FE00
ENDCHAR
STARTCHAR 1FED
ENCODING 8173
SWIDTH 448 0
DWIDTH 13 0
BBX 9 7 2 16
BITMAP
2000
3000
3000
1800
EB80
EB80
E380
ENDCHAR
STARTCHAR 1FEE
ENCODING 8174
SWIDTH 448 0
DWIDTH 13 0
BBX 9 7 2 16
BITMAP
0600
0600
0600
0C00
EB80
EB80
E380
ENDCHAR
STARTCHAR 1FEF
ENCODING 8175
SWIDTH 137 0
DWIDTH 4 0
BBX 4 6 1 16
BITMAP
C0
C0
60
20
20
10
ENDCHAR
STARTCHAR 1FF2
ENCODING 8178
SWIDTH 655 0
DWIDTH 19 0
BBX 17 29 1 -7
BITMAP
070000
030000
010000
018000
008000
000000
000000
300800
380400
700200
608300
E1C100
C1C180
C1C180
C1C180
C18180
C08380
608300
608700
316E00
1E3C00
000000
000000
008000
008000
018000
01C000
01C000
01C000
ENDCHAR
STARTCHAR 1FF3
ENCODING 8179
SWIDTH 655 0
DWIDTH 19 0
BBX 17 22 1 -8
BITMAP
300800
380400
700200
608300
E1C100
C1C180
C1C180
C1C180
C18180
C08380
608300
608700
316E00
1E3C00
000000
000000
008000
008000
018000
01C000
01C000
01C000
ENDCHAR
STARTCHAR 1FF4
ENCODING 8180
SWIDTH 655 0
DWIDTH 19 0
BBX 17 29 1 -7
BITMAP
007000
006000
00C000
00C000
008000
000000
000000
300800
380400
700200
608300
E1C100
C1C180
C1C180
C1C180
C18180
C08380
608300
608300
314E00
1E3C00
000000
000000
008000
008000
018000
01C000
01C000
01C000
ENDCHAR
STARTCHAR 1FF6
ENCODING 8182
SWIDTH 655 0
DWIDTH 19 0
BBX 17 21 1 0
BITMAP
071800
0B9800
0CC800
0C7000
000000
000000
000000
180800
380400
700200
608300
E1C300
C1C180
C1C180
C1C180
C18180
C18380
608300
608300
314E00
1E3C00
ENDCHAR
STARTCHAR 1FF7
ENCODING 8183
SWIDTH 655 0
DWIDTH 19 0
BBX 17 29 1 -8
BITMAP
071800
0B9800
0CC800
0C7000
000000
000000
000000
180800
380400
700200
608300
E1C100
C1C180
C1C180
C1C180
C18180
C08380
608300
608700
316E00
1E3C00
000000
000000
008000
008000
018000
01C000
01C000
01C000
ENDCHAR
STARTCHAR 1FF8
ENCODING 8184
SWIDTH 793 0
DWIDTH 23 0
BBX 21 21 1 1
BITMAP
C07F00
C0C180
C180C0
430060
270070
270070
060030
0E0038
0E0038
0E0038
0E0038
0E0038
0E0038
0E0038
060030
060070
070070
030060
0180C0
00C180
007F00
ENDCHAR
STARTCHAR 1FF9
ENCODING 8185
SWIDTH 827 0
DWIDTH 24 0
BBX 21 21 2 1
BITMAP
307F00
30C180
6180C0
430060
470070
870070
060030
0E0038
0E0038
0E0038
0E0038
0E0038
0E0038
0E0038
060030
060070
070070
030060
0180C0
00C180
007F00
ENDCHAR
STARTCHAR 1FFA
ENCODING 8186
SWIDTH 896 0
DWIDTH 26 0
BBX 23 21 1 1
BITMAP
C03FE0
E07070
60E038
21C01C
21C01C
13800E
03800E
03800E
03800E
03800E
01800C
01C01C
00C018
006030
003060
020D82
020502
010504
01FDFC
01FDFC
01FDFC
ENDCHAR
STARTCHAR 1FFB
ENCODING 8187
SWIDTH 896 0
DWIDTH 26 0
BBX 21 21 3 1
BITMAP
70FF80
61C1C0
6380E0
C70070
870070
8E0038
0E0038
0E0038
0E0038
0E0038
060030
070070
030060
0180C0
00C180
083608
081408
041410
07F7F0
07F7F0
07F7F0
ENDCHAR
STARTCHAR 1FFC
ENCODING 8188
SWIDTH 1000 0
DWIDTH 29 0
BBX 26 21 2 1
BITMAP
0FF80000
1C1C0000
380E0000
70070000
70070000
E0038000
E0038000
E0038000
E0038000
E0038FC0
60030300
70070300
30060300
180C0300
0E380300
81408300
81408300
41410300
7F7F0300
7F7F0300
7F7F0FC0
ENDCHAR
STARTCHAR 1FFD
ENCODING 8189
SWIDTH 241 0
DWIDTH 7 0
BBX 4 6 2 16
BITMAP
30
30
60
40
40
80
ENDCHAR
STARTCHAR 1FFE
ENCODING 8190
SWIDTH 206 0
DWIDTH 6 0
BBX 4 6 2 16
BITMAP
F0
F0
80
80
C0
60
ENDCHAR
STARTCHAR 2000
ENCODING 8192
SWIDTH 517 0
DWIDTH 15 0
BBX 0 0 0 0
BITMAP
ENDCHAR
STARTCHAR 2001
ENCODING 8193
SWIDTH 1000 0
DWIDTH 29 0
BBX 0 0 0 0
BITMAP
ENDCHAR
STARTCHAR 2002
ENCODING 8194
SWIDTH 517 0
DWIDTH 15 0
BBX 0 0 0 0
BITMAP
ENDCHAR
STARTCHAR 2003
ENCODING 8195
SWIDTH 1000 0
DWIDTH 29 0
BBX 0 0 0 0
BITMAP
ENDCHAR
STARTCHAR 2004
ENCODING 8196
SWIDTH 344 0
DWIDTH 10 0
BBX 0 0 0 0
BITMAP
ENDCHAR
STARTCHAR 2005
ENCODING 8197
SWIDTH 241 0
DWIDTH 7 0
BBX 0 0 0 0
BITMAP
ENDCHAR
STARTCHAR 2006
ENCODING 8198
SWIDTH 172 0
DWIDTH 5 0
BBX 0 0 0 0
BITMAP
ENDCHAR
STARTCHAR 2007
ENCODING 8199
SWIDTH 586 0
DWIDTH 17 0
BBX 0 0 0 0
BITMAP
ENDCHAR
STARTCHAR 2008
ENCODING 8200
SWIDTH 275 0
DWIDTH 8 0
BBX 0 0 0 0
BITMAP
ENDCHAR
STARTCHAR 2009
ENCODING 8201
SWIDTH 172 0
DWIDTH 5 0
BBX 0 0 0 0
BITMAP
ENDCHAR
STARTCHAR 200A
ENCODING 8202
SWIDTH 68 0
DWIDTH 2 0
BBX 0 0 0 0
BITMAP
ENDCHAR
STARTCHAR 200B
ENCODING 8203
SWIDTH 0 0
DWIDTH 0 0
BBX 0 0 0 0
BITMAP
ENDCHAR
STARTCHAR 200C
ENCODING 8204
SWIDTH 0 0
DWIDTH 0 0
BBX 0 0 0 0
BITMAP
ENDCHAR
STARTCHAR 200D
ENCODING 8205
SWIDTH 0 0
DWIDTH 0 0
BBX 0 0 0 0
BITMAP
ENDCHAR
STARTCHAR 2010
ENCODING 8208
SWIDTH 379 0
DWIDTH 11 0
BBX 7 2 2 7
BITMAP
FE
FE
ENDCHAR
STARTCHAR 2011
ENCODING 8209
SWIDTH 379 0
DWIDTH 11 0
BBX 7 2 2 7
BITMAP
FE
FE
ENDCHAR
STARTCHAR 2012
ENCODING 8210
SWIDTH 586 0
DWIDTH 17 0
BBX 13 1 2 7
BITMAP
FFF8
ENDCHAR
STARTCHAR 2013
ENCODING 8211
SWIDTH 655 0
DWIDTH 19 0
BBX 15 1 2 7
BITMAP
FFFE
ENDCHAR
STARTCHAR 2014
ENCODING 8212
SWIDTH 1034 0
DWIDTH 30 0
BBX 26 1 2 7
BITMAP
FFFFFFC0
ENDCHAR
STARTCHAR 2016
ENCODING 8214
SWIDTH 482 0
DWIDTH 14 0
BBX 7 28 4 -6
BITMAP
82
82
82
82
82
82
82
82
82
82
82
82
82
82
82
82
82
82
82
82
82
82
82
82
82
82
82
82
ENDCHAR
STARTCHAR 2017
ENCODING 8215
SWIDTH 517 0
DWIDTH 15 0
BBX 15 5 0 -8
BITMAP
FFFE
0000
0000
0000
FFFE
ENDCHAR
STARTCHAR 2018
ENCODING 8216
SWIDTH 275 0
DWIDTH 8 0
BBX 4 8 2 14
BITMAP
60
40
80
80
80
F0
F0
70
ENDCHAR
STARTCHAR 2019
ENCODING 8217
SWIDTH 275 0
DWIDTH 8 0
BBX 4 8 2 14
BITMAP
E0
F0
70
10
10
20
20
40
ENDCHAR
STARTCHAR 201A
ENCODING 8218
SWIDTH 275 0
DWIDTH 8 0
BBX 4 8 2 -5
BITMAP
E0
F0
F0
10
10
10
20
40
ENDCHAR
STARTCHAR 201B
ENCODING 8219
SWIDTH 275 0
DWIDTH 8 0
BBX 4 8 2 14
BITMAP
F0
F0
E0
80
80
80
40
20
ENDCHAR
STARTCHAR 201C
ENCODING 8220
SWIDTH 482 0
DWIDTH 14 0
BBX 10 9 2 13
BITMAP
2080
4100
4200
8400
8400
8400
E780
F7C0
6380
ENDCHAR
STARTCHAR 201D
ENCODING 8221
SWIDTH 448 0
DWIDTH 13 0
BBX 9 8 2 14
BITMAP
E780
F780
7180
1080
1080
2100
2100
4200
ENDCHAR
STARTCHAR 201E
ENCODING 8222
SWIDTH 448 0
DWIDTH 13 0
BBX 9 9 2 -5
BITMAP
E300
F780
F380
1080
1080
1080
2100
4200
0200
ENDCHAR
STARTCHAR 201F
ENCODING 8223
SWIDTH 448 0
DWIDTH 13 0
BBX 9 8 2 14
BITMAP
F780
F780
C700
8400
8400
8400
4200
2100
ENDCHAR
STARTCHAR 2020
ENCODING 8224
SWIDTH 551 0
DWIDTH 16 0
BBX 14 27 1 -5
BITMAP
0200
0700
0700
0700
0700
0200
F238
FFFC
F238
0200
0700
0700
0700
0700
0200
0200
0200
0200
0200
0200
0200
0200
0200
0200
0200
0200
0200
ENDCHAR
ENDFONT
